  0
SECTION
  2
HEADER
  9
$ACADVER
  1
AC1027
  9
$ACADMAINTVER
 70
   105
  9
$DWGCODEPAGE
  3
ANSI_950
  9
$LASTSAVEDBY
  1
Apple.Li
  9
$REQUIREDVERSIONS
160
                 0
  9
$INSBASE
 10
0.0
 20
0.0
 30
0.0
  9
$EXTMIN
 10
1.000000000000000E+20
 20
1.000000000000000E+20
 30
1.000000000000000E+20
  9
$EXTMAX
 10
-1.000000000000000E+20
 20
-1.000000000000000E+20
 30
-1.000000000000000E+20
  9
$LIMMIN
 10
37.84329744
 20
57.11943872
  9
$LIMMAX
 10
69.95192512
 20
79.62758521999999
  9
$ORTHOMODE
 70
     0
  9
$REGENMODE
 70
     1
  9
$FILLMODE
 70
     1
  9
$QTEXTMODE
 70
     0
  9
$MIRRTEXT
 70
     1
  9
$LTSCALE
 40
1.0
  9
$ATTMODE
 70
     1
  9
$TEXTSIZE
 40
0.2
  9
$TRACEWID
 40
0.05
  9
$TEXTSTYLE
  7
Standard
  9
$CLAYER
  8
0
  9
$CELTYPE
  6
ByLayer
  9
$CECOLOR
 62
   256
  9
$CELTSCALE
 40
1.0
  9
$DISPSILH
 70
     0
  9
$DIMSCALE
 40
1.0
  9
$DIMASZ
 40
0.18
  9
$DIMEXO
 40
0.0625
  9
$DIMDLI
 40
0.38
  9
$DIMRND
 40
0.0
  9
$DIMDLE
 40
0.0
  9
$DIMEXE
 40
0.18
  9
$DIMTP
 40
0.0
  9
$DIMTM
 40
0.0
  9
$DIMTXT
 40
0.18
  9
$DIMCEN
 40
0.09
  9
$DIMTSZ
 40
0.0
  9
$DIMTOL
 70
     0
  9
$DIMLIM
 70
     0
  9
$DIMTIH
 70
     1
  9
$DIMTOH
 70
     1
  9
$DIMSE1
 70
     0
  9
$DIMSE2
 70
     0
  9
$DIMTAD
 70
     0
  9
$DIMZIN
 70
     0
  9
$DIMBLK
  1

  9
$DIMASO
 70
     1
  9
$DIMSHO
 70
     1
  9
$DIMPOST
  1

  9
$DIMAPOST
  1

  9
$DIMALT
 70
     0
  9
$DIMALTD
 70
     2
  9
$DIMALTF
 40
25.4
  9
$DIMLFAC
 40
1.0
  9
$DIMTOFL
 70
     0
  9
$DIMTVP
 40
0.0
  9
$DIMTIX
 70
     0
  9
$DIMSOXD
 70
     0
  9
$DIMSAH
 70
     0
  9
$DIMBLK1
  1

  9
$DIMBLK2
  1

  9
$DIMSTYLE
  2
Standard
  9
$DIMCLRD
 70
     0
  9
$DIMCLRE
 70
     0
  9
$DIMCLRT
 70
     0
  9
$DIMTFAC
 40
1.0
  9
$DIMGAP
 40
0.09
  9
$DIMJUST
 70
     0
  9
$DIMSD1
 70
     0
  9
$DIMSD2
 70
     0
  9
$DIMTOLJ
 70
     1
  9
$DIMTZIN
 70
     0
  9
$DIMALTZ
 70
     0
  9
$DIMALTTZ
 70
     0
  9
$DIMUPT
 70
     0
  9
$DIMDEC
 70
     4
  9
$DIMTDEC
 70
     4
  9
$DIMALTU
 70
     2
  9
$DIMALTTD
 70
     2
  9
$DIMTXSTY
  7
Standard
  9
$DIMAUNIT
 70
     0
  9
$DIMADEC
 70
     0
  9
$DIMALTRND
 40
0.0
  9
$DIMAZIN
 70
     0
  9
$DIMDSEP
 70
    46
  9
$DIMATFIT
 70
     3
  9
$DIMFRAC
 70
     0
  9
$DIMLDRBLK
  1

  9
$DIMLUNIT
 70
     2
  9
$DIMLWD
 70
    -2
  9
$DIMLWE
 70
    -2
  9
$DIMTMOVE
 70
     0
  9
$DIMFXL
 40
1.0
  9
$DIMFXLON
 70
     0
  9
$DIMJOGANG
 40
0.7853981633974483
  9
$DIMTFILL
 70
     0
  9
$DIMTFILLCLR
 70
     0
  9
$DIMARCSYM
 70
     0
  9
$DIMLTYPE
  6

  9
$DIMLTEX1
  6

  9
$DIMLTEX2
  6

  9
$DIMTXTDIRECTION
 70
     0
  9
$LUNITS
 70
     2
  9
$LUPREC
 70
     4
  9
$SKETCHINC
 40
0.1
  9
$FILLETRAD
 40
0.0
  9
$AUNITS
 70
     0
  9
$AUPREC
 70
     0
  9
$MENU
  1
.
  9
$ELEVATION
 40
0.0
  9
$PELEVATION
 40
0.0
  9
$THICKNESS
 40
0.0
  9
$LIMCHECK
 70
     0
  9
$CHAMFERA
 40
0.0
  9
$CHAMFERB
 40
0.0
  9
$CHAMFERC
 40
0.0
  9
$CHAMFERD
 40
0.0
  9
$SKPOLY
 70
     0
  9
$TDCREATE
 40
2459982.63386397
  9
$TDUCREATE
 40
2459982.300530637
  9
$TDUPDATE
 40
2459982.633876401
  9
$TDUUPDATE
 40
2459982.300543067
  9
$TDINDWG
 40
0.0000000116
  9
$TDUSRTIMER
 40
0.0000000116
  9
$USRTIMER
 70
     1
  9
$ANGBASE
 50
0.0
  9
$ANGDIR
 70
     0
  9
$PDMODE
 70
     0
  9
$PDSIZE
 40
0.0
  9
$PLINEWID
 40
0.0
  9
$SPLFRAME
 70
     0
  9
$SPLINETYPE
 70
     6
  9
$SPLINESEGS
 70
     8
  9
$HANDSEED
  5
1C4
  9
$SURFTAB1
 70
     6
  9
$SURFTAB2
 70
     6
  9
$SURFTYPE
 70
     6
  9
$SURFU
 70
     6
  9
$SURFV
 70
     6
  9
$UCSBASE
  2

  9
$UCSNAME
  2

  9
$UCSORG
 10
0.0
 20
0.0
 30
0.0
  9
$UCSXDIR
 10
1.0
 20
0.0
 30
0.0
  9
$UCSYDIR
 10
0.0
 20
1.0
 30
0.0
  9
$UCSORTHOREF
  2

  9
$UCSORTHOVIEW
 70
     0
  9
$UCSORGTOP
 10
0.0
 20
0.0
 30
0.0
  9
$UCSORGBOTTOM
 10
0.0
 20
0.0
 30
0.0
  9
$UCSORGLEFT
 10
0.0
 20
0.0
 30
0.0
  9
$UCSORGRIGHT
 10
0.0
 20
0.0
 30
0.0
  9
$UCSORGFRONT
 10
0.0
 20
0.0
 30
0.0
  9
$UCSORGBACK
 10
0.0
 20
0.0
 30
0.0
  9
$PUCSBASE
  2

  9
$PUCSNAME
  2

  9
$PUCSORG
 10
0.0
 20
0.0
 30
0.0
  9
$PUCSXDIR
 10
1.0
 20
0.0
 30
0.0
  9
$PUCSYDIR
 10
0.0
 20
1.0
 30
0.0
  9
$PUCSORTHOREF
  2

  9
$PUCSORTHOVIEW
 70
     0
  9
$PUCSORGTOP
 10
0.0
 20
0.0
 30
0.0
  9
$PUCSORGBOTTOM
 10
0.0
 20
0.0
 30
0.0
  9
$PUCSORGLEFT
 10
0.0
 20
0.0
 30
0.0
  9
$PUCSORGRIGHT
 10
0.0
 20
0.0
 30
0.0
  9
$PUCSORGFRONT
 10
0.0
 20
0.0
 30
0.0
  9
$PUCSORGBACK
 10
0.0
 20
0.0
 30
0.0
  9
$USERI1
 70
     0
  9
$USERI2
 70
     0
  9
$USERI3
 70
     0
  9
$USERI4
 70
     0
  9
$USERI5
 70
     0
  9
$USERR1
 40
0.0
  9
$USERR2
 40
0.0
  9
$USERR3
 40
0.0
  9
$USERR4
 40
0.0
  9
$USERR5
 40
0.0
  9
$WORLDVIEW
 70
     1
  9
$SHADEDGE
 70
     3
  9
$SHADEDIF
 70
    70
  9
$TILEMODE
 70
     1
  9
$MAXACTVP
 70
    64
  9
$PINSBASE
 10
0.0
 20
0.0
 30
0.0
  9
$PLIMCHECK
 70
     0
  9
$PEXTMIN
 10
1.000000000000000E+20
 20
1.000000000000000E+20
 30
1.000000000000000E+20
  9
$PEXTMAX
 10
-1.000000000000000E+20
 20
-1.000000000000000E+20
 30
-1.000000000000000E+20
  9
$PLIMMIN
 10
0.0
 20
0.0
  9
$PLIMMAX
 10
12.0
 20
9.0
  9
$UNITMODE
 70
     0
  9
$VISRETAIN
 70
     1
  9
$PLINEGEN
 70
     0
  9
$PSLTSCALE
 70
     1
  9
$TREEDEPTH
 70
  3020
  9
$CMLSTYLE
  2
Standard
  9
$CMLJUST
 70
     0
  9
$CMLSCALE
 40
1.0
  9
$PROXYGRAPHICS
 70
     1
  9
$MEASUREMENT
 70
     1
  9
$CELWEIGHT
370
    -1
  9
$ENDCAPS
280
     0
  9
$JOINSTYLE
280
     0
  9
$LWDISPLAY
290
     0
  9
$INSUNITS
 70
     1
  9
$HYPERLINKBASE
  1

  9
$STYLESHEET
  1

  9
$XEDIT
290
     1
  9
$CEPSNTYPE
380
     0
  9
$PSTYLEMODE
290
     1
  9
$FINGERPRINTGUID
  2
{19189cc3-ee8c-4b70-ac1f-a91338d046c9}
  9
$VERSIONGUID
  2
{FAEB1C32-E019-11D5-929B-00C0DF256EC4}
  9
$EXTNAMES
290
     1
  9
$PSVPSCALE
 40
0.0
  9
$OLESTARTUP
290
     0
  9
$SORTENTS
280
   127
  9
$INDEXCTL
280
     0
  9
$HIDETEXT
280
     1
  9
$XCLIPFRAME
280
     2
  9
$HALOGAP
280
     0
  9
$OBSCOLOR
 70
   257
  9
$OBSLTYPE
280
     0
  9
$INTERSECTIONDISPLAY
280
     0
  9
$INTERSECTIONCOLOR
 70
   257
  9
$DIMASSOC
280
     2
  9
$PROJECTNAME
  1

  9
$CAMERADISPLAY
290
     0
  9
$LENSLENGTH
 40
50.0
  9
$CAMERAHEIGHT
 40
0.0
  9
$STEPSPERSEC
 40
2.0
  9
$STEPSIZE
 40
6.0
  9
$3DDWFPREC
 40
2.0
  9
$PSOLWIDTH
 40
0.25
  9
$PSOLHEIGHT
 40
4.0
  9
$LOFTANG1
 40
1.570796326794897
  9
$LOFTANG2
 40
1.570796326794897
  9
$LOFTMAG1
 40
0.0
  9
$LOFTMAG2
 40
0.0
  9
$LOFTPARAM
 70
     7
  9
$LOFTNORMALS
280
     1
  9
$LATITUDE
 40
37.795
  9
$LONGITUDE
 40
-122.394
  9
$NORTHDIRECTION
 40
0.0
  9
$TIMEZONE
 70
 -8000
  9
$LIGHTGLYPHDISPLAY
280
     1
  9
$TILEMODELIGHTSYNCH
280
     1
  9
$CMATERIAL
347
44
  9
$SOLIDHIST
280
     0
  9
$SHOWHIST
280
     1
  9
$DWFFRAME
280
     2
  9
$DGNFRAME
280
     2
  9
$REALWORLDSCALE
290
     1
  9
$INTERFERECOLOR
 62
   256
  9
$CSHADOW
280
     0
  9
$SHADOWPLANELOCATION
 40
0.0
  0
ENDSEC
  0
SECTION
  2
CLASSES
  0
CLASS
  1
ACDBDICTIONARYWDFLT
  2
AcDbDictionaryWithDefault
  3
ObjectDBX Classes
 90
        0
 91
        3
280
     0
281
     0
  0
CLASS
  1
VISUALSTYLE
  2
AcDbVisualStyle
  3
ObjectDBX Classes
 90
     4095
 91
        3
280
     0
281
     0
  0
CLASS
  1
MATERIAL
  2
AcDbMaterial
  3
ObjectDBX Classes
 90
     1153
 91
        3
280
     0
281
     0
  0
CLASS
  1
SCALE
  2
AcDbScale
  3
ObjectDBX Classes
 90
     1153
 91
        3
280
     0
281
     0
  0
CLASS
  1
TABLESTYLE
  2
AcDbTableStyle
  3
ObjectDBX Classes
 90
     4095
 91
        3
280
     0
281
     0
  0
CLASS
  1
MLEADERSTYLE
  2
AcDbMLeaderStyle
  3
ACDB_MLEADERSTYLE_CLASS
 90
     4095
 91
        3
280
     0
281
     0
  0
CLASS
  1
SUN
  2
AcDbSun
  3
SCENEOE
 90
     1153
 91
        3
280
     0
281
     0
  0
CLASS
  1
DICTIONARYVAR
  2
AcDbDictionaryVar
  3
ObjectDBX Classes
 90
        0
 91
        3
280
     0
281
     0
  0
CLASS
  1
CELLSTYLEMAP
  2
AcDbCellStyleMap
  3
ObjectDBX Classes
 90
     1152
 91
        3
280
     0
281
     0
  0
ENDSEC
  0
SECTION
  2
TABLES
  0
TABLE
  2
VPORT
  5
8
330
0
100
AcDbSymbolTable
 70
     1
  0
VPORT
  5
29
330
8
100
AcDbSymbolTableRecord
100
AcDbViewportTableRecord
  2
*Active
 70
     0
 10
0.0
 20
0.0
 11
1.0
 21
1.0
 12
10.42990654205607
 22
4.5
 13
0.0
 23
0.0
 14
0.5
 24
0.5
 15
0.5
 25
0.5
 16
0.0
 26
0.0
 36
1.0
 17
0.0
 27
0.0
 37
0.0
 40
9.0
 41
1.972972972850329
 42
50.0
 43
0.0
 44
0.0
 50
0.0
 51
0.0
 71
     0
 72
   100
 73
     1
 74
     3
 75
     0
 76
     0
 77
     0
 78
     0
281
     0
 65
     1
110
0.0
120
0.0
130
0.0
111
1.0
121
0.0
131
0.0
112
0.0
122
1.0
132
0.0
 79
     0
146
0.0
348
2F
 60
     3
 61
     5
292
     1
282
     1
141
0.0
142
0.0
 63
   250
361
5D
  0
ENDTAB
  0
TABLE
  2
LTYPE
  5
5
330
0
100
AcDbSymbolTable
 70
     1
  0
LTYPE
  5
14
330
5
100
AcDbSymbolTableRecord
100
AcDbLinetypeTableRecord
  2
ByBlock
 70
     0
  3

 72
    65
 73
     0
 40
0.0
  0
LTYPE
  5
15
330
5
100
AcDbSymbolTableRecord
100
AcDbLinetypeTableRecord
  2
ByLayer
 70
     0
  3

 72
    65
 73
     0
 40
0.0
  0
LTYPE
  5
16
330
5
100
AcDbSymbolTableRecord
100
AcDbLinetypeTableRecord
  2
Continuous
 70
     0
  3
Solid line
 72
    65
 73
     0
 40
0.0
  0
ENDTAB
  0
TABLE
  2
LAYER
  5
2
330
0
100
AcDbSymbolTable
 70
     5
  0
LAYER
  5
10
330
2
100
AcDbSymbolTableRecord
100
AcDbLayerTableRecord
  2
0
 70
     0
 62
     7
  6
Continuous
370
    -3
390
F
347
46
348
0
  0
LAYER
  5
5E
330
2
100
AcDbSymbolTableRecord
100
AcDbLayerTableRecord
  2
TopLayer
 70
     0
 62
     1
  6
Continuous
370
    -3
390
F
347
46
348
0
  0
LAYER
  5
5F
330
2
100
AcDbSymbolTableRecord
100
AcDbLayerTableRecord
  2
TopOverlay
 70
     0
 62
     2
  6
Continuous
370
    -3
390
F
347
46
348
0
  0
LAYER
  5
60
330
2
100
AcDbSymbolTableRecord
100
AcDbLayerTableRecord
  2
TopPaste
 70
     0
 62
     8
  6
Continuous
370
    -3
390
F
347
46
348
0
  0
LAYER
  5
61
330
2
100
AcDbSymbolTableRecord
100
AcDbLayerTableRecord
  2
TopSolder
 70
     0
 62
   216
  6
Continuous
370
    -3
390
F
347
46
348
0
  0
ENDTAB
  0
TABLE
  2
STYLE
  5
3
330
0
100
AcDbSymbolTable
 70
     2
  0
STYLE
  5
11
330
3
100
AcDbSymbolTableRecord
100
AcDbTextStyleTableRecord
  2
Standard
 70
     0
 40
0.0
 41
1.0
 50
0.0
 71
     0
 42
0.2
  3
txt
  4

  0
STYLE
  5
1B7
330
3
100
AcDbSymbolTableRecord
100
AcDbTextStyleTableRecord
  2
Arial
 70
     0
 40
0.2
 41
1.0
 50
0.0
 71
     0
 42
0.2
  3

  4

1001
ACAD
1000
Arial
1071
        0
  0
ENDTAB
  0
TABLE
  2
VIEW
  5
6
330
0
100
AcDbSymbolTable
 70
     0
  0
ENDTAB
  0
TABLE
  2
UCS
  5
7
330
0
100
AcDbSymbolTable
 70
     0
  0
ENDTAB
  0
TABLE
  2
APPID
  5
9
330
0
100
AcDbSymbolTable
 70
     1
  0
APPID
  5
12
330
9
100
AcDbSymbolTableRecord
100
AcDbRegAppTableRecord
  2
ACAD
 70
     0
  0
ENDTAB
  0
TABLE
  2
DIMSTYLE
  5
A
330
0
100
AcDbSymbolTable
 70
     1
100
AcDbDimStyleTable
  0
DIMSTYLE
105
27
330
A
100
AcDbSymbolTableRecord
100
AcDbDimStyleTableRecord
  2
Standard
 70
     0
178
     0
340
11
  0
ENDTAB
  0
TABLE
  2
BLOCK_RECORD
  5
1
330
0
100
AcDbSymbolTable
 70
     2
  0
BLOCK_RECORD
  5
1F
330
1
100
AcDbSymbolTableRecord
100
AcDbBlockTableRecord
  2
*Model_Space
340
22
 70
     0
280
     1
281
     0
  0
BLOCK_RECORD
  5
1B
330
1
100
AcDbSymbolTableRecord
100
AcDbBlockTableRecord
  2
*Paper_Space
340
1E
 70
     0
280
     1
281
     0
  0
BLOCK_RECORD
  5
23
330
1
100
AcDbSymbolTableRecord
100
AcDbBlockTableRecord
  2
*Paper_Space0
340
26
 70
     0
280
     1
281
     0
  0
BLOCK_RECORD
  5
62
330
1
100
AcDbSymbolTableRecord
100
AcDbBlockTableRecord
  2
L______LWB6___LWB6__M_______P________S____1
340
0
102
{BLKREFS
331
1B6
102
}
 70
     0
280
     1
281
     0
  0
ENDTAB
  0
ENDSEC
  0
SECTION
  2
BLOCKS
  0
BLOCK
  5
20
330
1F
100
AcDbEntity
  8
0
100
AcDbBlockBegin
  2
*Model_Space
 70
     0
 10
0.0
 20
0.0
 30
0.0
  3
*Model_Space
  1

  0
ENDBLK
  5
21
330
1F
100
AcDbEntity
  8
0
100
AcDbBlockEnd
  0
BLOCK
  5
1C
330
1B
100
AcDbEntity
 67
     1
  8
0
100
AcDbBlockBegin
  2
*Paper_Space
 70
     0
 10
0.0
 20
0.0
 30
0.0
  3
*Paper_Space
  1

  0
ENDBLK
  5
1D
330
1B
100
AcDbEntity
 67
     1
  8
0
100
AcDbBlockEnd
  0
BLOCK
  5
24
330
23
100
AcDbEntity
  8
0
100
AcDbBlockBegin
  2
*Paper_Space0
 70
     0
 10
0.0
 20
0.0
 30
0.0
  3
*Paper_Space0
  1

  0
ENDBLK
  5
25
330
23
100
AcDbEntity
  8
0
100
AcDbBlockEnd
  0
BLOCK
  5
1B9
330
62
100
AcDbEntity
  8
0
100
AcDbBlockBegin
  2
L______LWB6___LWB6__M_______P________S____1
 70
     0
 10
0.0
 20
0.0
 30
0.0
  3
L______LWB6___LWB6__M_______P________S____1
  1

  0
LWPOLYLINE
  5
63
330
62
100
AcDbEntity
  8
TopOverlay
100
AcDbPolyline
 90
        2
 70
     0
 43
0.1016
 10
-6.4999997
 20
-8.99999978
 10
6.4999997
 20
-9.00000232
  0
LWPOLYLINE
  5
64
330
62
100
AcDbEntity
  8
TopOverlay
100
AcDbPolyline
 90
        2
 70
     1
 43
0.0508
 10
-6.525399699999999
 20
-8.99999978
 42
1.0
 10
-6.4745997
 20
-8.99999978
 42
1.0
  0
LWPOLYLINE
  5
65
330
62
100
AcDbEntity
  8
TopOverlay
100
AcDbPolyline
 90
        2
 70
     1
 43
0.0508
 10
6.4745997
 20
-9.00000232
 42
1.0
 10
6.525399699999999
 20
-9.00000232
 42
1.0
  0
LWPOLYLINE
  5
66
330
62
100
AcDbEntity
  8
TopOverlay
100
AcDbPolyline
 90
        2
 70
     0
 43
0.1016
 10
6.499997159999999
 20
8.999997239999999
 10
6.4999997
 20
-9.00000232
  0
LWPOLYLINE
  5
67
330
62
100
AcDbEntity
  8
TopOverlay
100
AcDbPolyline
 90
        2
 70
     1
 43
0.0508
 10
6.47459716
 20
8.999997239999999
 42
1.0
 10
6.52539716
 20
8.999997239999999
 42
1.0
  0
LWPOLYLINE
  5
68
330
62
100
AcDbEntity
  8
TopOverlay
100
AcDbPolyline
 90
        2
 70
     1
 43
0.0508
 10
6.4745997
 20
-9.00000232
 42
1.0
 10
6.525399699999999
 20
-9.00000232
 42
1.0
  0
LWPOLYLINE
  5
69
330
62
100
AcDbEntity
  8
TopOverlay
100
AcDbPolyline
 90
        2
 70
     0
 43
0.1016
 10
-6.4999997
 20
-8.99999978
 10
-6.4999997
 20
8.99999978
  0
LWPOLYLINE
  5
6A
330
62
100
AcDbEntity
  8
TopOverlay
100
AcDbPolyline
 90
        2
 70
     1
 43
0.0508
 10
-6.525399699999999
 20
-8.99999978
 42
1.0
 10
-6.4745997
 20
-8.99999978
 42
1.0
  0
LWPOLYLINE
  5
6B
330
62
100
AcDbEntity
  8
TopOverlay
100
AcDbPolyline
 90
        2
 70
     1
 43
0.0508
 10
-6.525399699999999
 20
8.99999978
 42
1.0
 10
-6.4745997
 20
8.99999978
 42
1.0
  0
LWPOLYLINE
  5
6C
330
62
100
AcDbEntity
  8
TopOverlay
100
AcDbPolyline
 90
        2
 70
     0
 43
0.1016
 10
-6.4999997
 20
8.99999978
 10
6.499997159999999
 20
8.999997239999999
  0
LWPOLYLINE
  5
6D
330
62
100
AcDbEntity
  8
TopOverlay
100
AcDbPolyline
 90
        2
 70
     1
 43
0.0508
 10
-6.525399699999999
 20
8.99999978
 42
1.0
 10
-6.4745997
 20
8.99999978
 42
1.0
  0
LWPOLYLINE
  5
6E
330
62
100
AcDbEntity
  8
TopOverlay
100
AcDbPolyline
 90
        2
 70
     1
 43
0.0508
 10
6.47459716
 20
8.999997239999999
 42
1.0
 10
6.52539716
 20
8.999997239999999
 42
1.0
  0
LWPOLYLINE
  5
6F
330
62
100
AcDbEntity
  8
TopOverlay
100
AcDbPolyline
 90
        2
 70
     1
 43
0.3809999999999999
 10
-6.80012102
 20
6.73152832
 42
1.0
 10
-7.12525626
 20
6.73152832
 42
1.0
  0
LWPOLYLINE
  5
70
330
62
100
AcDbEntity
  8
TopOverlay
100
AcDbPolyline
 90
        2
 70
     1
 43
0.1905
 10
-6.895371020000001
 20
6.73152832
 42
1.0
 10
-6.704871020000001
 20
6.73152832
 42
1.0
  0
LWPOLYLINE
  5
71
330
62
100
AcDbEntity
  8
TopOverlay
100
AcDbPolyline
 90
        2
 70
     1
 43
0.1905
 10
-7.220506260000001
 20
6.73152832
 42
1.0
 10
-7.03000626
 20
6.73152832
 42
1.0
  0
SOLID
  5
72
330
62
100
AcDbEntity
  8
TopPaste
100
AcDbTrace
 10
-3.15000132
 20
3.45000834
 30
0.0
 11
-0.15000224
 21
3.45000834
 31
0.0
 12
-3.15000132
 22
6.450007419999999
 32
0.0
 13
-0.15000224
 23
6.450007419999999
 33
0.0
  0
SOLID
  5
73
330
62
100
AcDbEntity
  8
TopSolder
100
AcDbTrace
 10
-3.20080132
 20
3.39920834
 30
0.0
 11
-0.09920224
 21
3.39920834
 31
0.0
 12
-3.20080132
 22
6.500807419999999
 32
0.0
 13
-0.09920224
 23
6.500807419999999
 33
0.0
  0
SOLID
  5
74
330
62
100
AcDbEntity
  8
TopLayer
100
AcDbTrace
 10
-3.15000132
 20
3.45000834
 30
0.0
 11
-0.15000224
 21
3.45000834
 31
0.0
 12
-3.15000132
 22
6.450007419999999
 32
0.0
 13
-0.15000224
 23
6.450007419999999
 33
0.0
  0
SOLID
  5
75
330
62
100
AcDbEntity
  8
TopPaste
100
AcDbTrace
 10
3.14999878
 20
6.450007419999999
 30
0.0
 11
0.1499997
 21
6.450007419999999
 31
0.0
 12
3.14999878
 22
3.45000834
 32
0.0
 13
0.1499997
 23
3.45000834
 33
0.0
  0
SOLID
  5
76
330
62
100
AcDbEntity
  8
TopSolder
100
AcDbTrace
 10
3.20079878
 20
6.500807419999999
 30
0.0
 11
0.0991997
 21
6.500807419999999
 31
0.0
 12
3.20079878
 22
3.39920834
 32
0.0
 13
0.0991997
 23
3.39920834
 33
0.0
  0
SOLID
  5
77
330
62
100
AcDbEntity
  8
TopLayer
100
AcDbTrace
 10
3.14999878
 20
6.450007419999999
 30
0.0
 11
0.1499997
 21
6.450007419999999
 31
0.0
 12
3.14999878
 22
3.45000834
 32
0.0
 13
0.1499997
 23
3.45000834
 33
0.0
  0
SOLID
  5
78
330
62
100
AcDbEntity
  8
TopPaste
100
AcDbTrace
 10
3.15000132
 20
-3.45000326
 30
0.0
 11
0.15000224
 21
-3.45000326
 31
0.0
 12
3.15000132
 22
-6.45000234
 32
0.0
 13
0.15000224
 23
-6.45000234
 33
0.0
  0
SOLID
  5
79
330
62
100
AcDbEntity
  8
TopSolder
100
AcDbTrace
 10
3.20080132
 20
-3.39920326
 30
0.0
 11
0.09920224
 21
-3.39920326
 31
0.0
 12
3.20080132
 22
-6.500802339999999
 32
0.0
 13
0.09920224
 23
-6.500802339999999
 33
0.0
  0
SOLID
  5
7A
330
62
100
AcDbEntity
  8
TopLayer
100
AcDbTrace
 10
3.15000132
 20
-3.45000326
 30
0.0
 11
0.15000224
 21
-3.45000326
 31
0.0
 12
3.15000132
 22
-6.45000234
 32
0.0
 13
0.15000224
 23
-6.45000234
 33
0.0
  0
SOLID
  5
7B
330
62
100
AcDbEntity
  8
TopPaste
100
AcDbTrace
 10
-3.14999878
 20
-6.45000234
 30
0.0
 11
-0.1499997
 21
-6.45000234
 31
0.0
 12
-3.14999878
 22
-3.45000326
 32
0.0
 13
-0.1499997
 23
-3.45000326
 33
0.0
  0
SOLID
  5
7C
330
62
100
AcDbEntity
  8
TopSolder
100
AcDbTrace
 10
-3.20079878
 20
-6.500802339999999
 30
0.0
 11
-0.0991997
 21
-6.500802339999999
 31
0.0
 12
-3.20079878
 22
-3.39920326
 32
0.0
 13
-0.0991997
 23
-3.39920326
 33
0.0
  0
SOLID
  5
7D
330
62
100
AcDbEntity
  8
TopLayer
100
AcDbTrace
 10
-3.14999878
 20
-6.45000234
 30
0.0
 11
-0.1499997
 21
-6.45000234
 31
0.0
 12
-3.14999878
 22
-3.45000326
 32
0.0
 13
-0.1499997
 23
-3.45000326
 33
0.0
  0
SOLID
  5
7E
330
62
100
AcDbEntity
  8
TopPaste
100
AcDbTrace
 10
3.14999878
 20
3.15000386
 30
0.0
 11
0.1499997
 21
3.15000386
 31
0.0
 12
3.14999878
 22
0.15000478
 32
0.0
 13
0.1499997
 23
0.15000478
 33
0.0
  0
SOLID
  5
7F
330
62
100
AcDbEntity
  8
TopSolder
100
AcDbTrace
 10
3.20079878
 20
3.200803859999999
 30
0.0
 11
0.0991997
 21
3.200803859999999
 31
0.0
 12
3.20079878
 22
0.09920478
 32
0.0
 13
0.0991997
 23
0.09920478
 33
0.0
  0
SOLID
  5
80
330
62
100
AcDbEntity
  8
TopLayer
100
AcDbTrace
 10
3.14999878
 20
3.15000386
 30
0.0
 11
0.1499997
 21
3.15000386
 31
0.0
 12
3.14999878
 22
0.15000478
 32
0.0
 13
0.1499997
 23
0.15000478
 33
0.0
  0
SOLID
  5
81
330
62
100
AcDbEntity
  8
TopPaste
100
AcDbTrace
 10
-3.14999878
 20
0.15000478
 30
0.0
 11
-0.1499997
 21
0.15000478
 31
0.0
 12
-3.14999878
 22
3.15000386
 32
0.0
 13
-0.1499997
 23
3.15000386
 33
0.0
  0
SOLID
  5
82
330
62
100
AcDbEntity
  8
TopSolder
100
AcDbTrace
 10
-3.20079878
 20
0.09920478
 30
0.0
 11
-0.0991997
 21
0.09920478
 31
0.0
 12
-3.20079878
 22
3.200803859999999
 32
0.0
 13
-0.0991997
 23
3.200803859999999
 33
0.0
  0
SOLID
  5
83
330
62
100
AcDbEntity
  8
TopLayer
100
AcDbTrace
 10
-3.14999878
 20
0.15000478
 30
0.0
 11
-0.1499997
 21
0.15000478
 31
0.0
 12
-3.14999878
 22
3.15000386
 32
0.0
 13
-0.1499997
 23
3.15000386
 33
0.0
  0
SOLID
  5
84
330
62
100
AcDbEntity
  8
TopPaste
100
AcDbTrace
 10
3.14999878
 20
-0.1499997
 30
0.0
 11
0.1499997
 21
-0.1499997
 31
0.0
 12
3.14999878
 22
-3.14999878
 32
0.0
 13
0.1499997
 23
-3.14999878
 33
0.0
  0
SOLID
  5
85
330
62
100
AcDbEntity
  8
TopSolder
100
AcDbTrace
 10
3.20079878
 20
-0.0991997
 30
0.0
 11
0.0991997
 21
-0.0991997
 31
0.0
 12
3.20079878
 22
-3.20079878
 32
0.0
 13
0.0991997
 23
-3.20079878
 33
0.0
  0
SOLID
  5
86
330
62
100
AcDbEntity
  8
TopLayer
100
AcDbTrace
 10
3.14999878
 20
-0.1499997
 30
0.0
 11
0.1499997
 21
-0.1499997
 31
0.0
 12
3.14999878
 22
-3.14999878
 32
0.0
 13
0.1499997
 23
-3.14999878
 33
0.0
  0
SOLID
  5
87
330
62
100
AcDbEntity
  8
TopPaste
100
AcDbTrace
 10
-3.14999878
 20
-3.14999878
 30
0.0
 11
-0.1499997
 21
-3.14999878
 31
0.0
 12
-3.14999878
 22
-0.1499997
 32
0.0
 13
-0.1499997
 23
-0.1499997
 33
0.0
  0
SOLID
  5
88
330
62
100
AcDbEntity
  8
TopSolder
100
AcDbTrace
 10
-3.20079878
 20
-3.20079878
 30
0.0
 11
-0.0991997
 21
-3.20079878
 31
0.0
 12
-3.20079878
 22
-0.0991997
 32
0.0
 13
-0.0991997
 23
-0.0991997
 33
0.0
  0
SOLID
  5
89
330
62
100
AcDbEntity
  8
TopLayer
100
AcDbTrace
 10
-3.14999878
 20
-3.14999878
 30
0.0
 11
-0.1499997
 21
-3.14999878
 31
0.0
 12
-3.14999878
 22
-0.1499997
 32
0.0
 13
-0.1499997
 23
-0.1499997
 33
0.0
  0
SOLID
  5
8A
330
62
100
AcDbEntity
  8
TopPaste
100
AcDbTrace
 10
-4.90000036
 20
7.35000054
 30
0.0
 11
-4.60000096
 21
7.35000054
 31
0.0
 12
-4.90000036
 22
7.849999540000001
 32
0.0
 13
-4.60000096
 23
7.849999540000001
 33
0.0
  0
SOLID
  5
8B
330
62
100
AcDbEntity
  8
TopSolder
100
AcDbTrace
 10
-4.95080036
 20
7.29920054
 30
0.0
 11
-4.549200959999999
 21
7.29920054
 31
0.0
 12
-4.95080036
 22
7.900799539999999
 32
0.0
 13
-4.549200959999999
 23
7.900799539999999
 33
0.0
  0
SOLID
  5
8C
330
62
100
AcDbEntity
  8
TopLayer
100
AcDbTrace
 10
-4.90000036
 20
7.35000054
 30
0.0
 11
-4.60000096
 21
7.35000054
 31
0.0
 12
-4.90000036
 22
7.849999540000001
 32
0.0
 13
-4.60000096
 23
7.849999540000001
 33
0.0
  0
SOLID
  5
8D
330
62
100
AcDbEntity
  8
TopPaste
100
AcDbTrace
 10
-4.39999882
 20
7.35000054
 30
0.0
 11
-4.099999420000001
 21
7.35000054
 31
0.0
 12
-4.39999882
 22
7.849999540000001
 32
0.0
 13
-4.099999420000001
 23
7.849999540000001
 33
0.0
  0
SOLID
  5
8E
330
62
100
AcDbEntity
  8
TopSolder
100
AcDbTrace
 10
-4.45079882
 20
7.29920054
 30
0.0
 11
-4.04919942
 21
7.29920054
 31
0.0
 12
-4.45079882
 22
7.900799539999999
 32
0.0
 13
-4.04919942
 23
7.900799539999999
 33
0.0
  0
SOLID
  5
8F
330
62
100
AcDbEntity
  8
TopLayer
100
AcDbTrace
 10
-4.39999882
 20
7.35000054
 30
0.0
 11
-4.099999420000001
 21
7.35000054
 31
0.0
 12
-4.39999882
 22
7.849999540000001
 32
0.0
 13
-4.099999420000001
 23
7.849999540000001
 33
0.0
  0
SOLID
  5
90
330
62
100
AcDbEntity
  8
TopPaste
100
AcDbTrace
 10
-3.89999982
 20
7.35000054
 30
0.0
 11
-3.60000042
 21
7.35000054
 31
0.0
 12
-3.89999982
 22
7.849999540000001
 32
0.0
 13
-3.60000042
 23
7.849999540000001
 33
0.0
  0
SOLID
  5
91
330
62
100
AcDbEntity
  8
TopSolder
100
AcDbTrace
 10
-3.95079982
 20
7.29920054
 30
0.0
 11
-3.54920042
 21
7.29920054
 31
0.0
 12
-3.95079982
 22
7.900799539999999
 32
0.0
 13
-3.54920042
 23
7.900799539999999
 33
0.0
  0
SOLID
  5
92
330
62
100
AcDbEntity
  8
TopLayer
100
AcDbTrace
 10
-3.89999982
 20
7.35000054
 30
0.0
 11
-3.60000042
 21
7.35000054
 31
0.0
 12
-3.89999982
 22
7.849999540000001
 32
0.0
 13
-3.60000042
 23
7.849999540000001
 33
0.0
  0
SOLID
  5
93
330
62
100
AcDbEntity
  8
TopPaste
100
AcDbTrace
 10
-3.40000082
 20
7.35000054
 30
0.0
 11
-3.10000142
 21
7.35000054
 31
0.0
 12
-3.40000082
 22
7.849999540000001
 32
0.0
 13
-3.10000142
 23
7.849999540000001
 33
0.0
  0
SOLID
  5
94
330
62
100
AcDbEntity
  8
TopSolder
100
AcDbTrace
 10
-3.45080082
 20
7.29920054
 30
0.0
 11
-3.04920142
 21
7.29920054
 31
0.0
 12
-3.45080082
 22
7.900799539999999
 32
0.0
 13
-3.04920142
 23
7.900799539999999
 33
0.0
  0
SOLID
  5
95
330
62
100
AcDbEntity
  8
TopLayer
100
AcDbTrace
 10
-3.40000082
 20
7.35000054
 30
0.0
 11
-3.10000142
 21
7.35000054
 31
0.0
 12
-3.40000082
 22
7.849999540000001
 32
0.0
 13
-3.10000142
 23
7.849999540000001
 33
0.0
  0
SOLID
  5
96
330
62
100
AcDbEntity
  8
TopPaste
100
AcDbTrace
 10
-2.89999928
 20
7.35000054
 30
0.0
 11
-2.59999988
 21
7.35000054
 31
0.0
 12
-2.89999928
 22
7.849999540000001
 32
0.0
 13
-2.59999988
 23
7.849999540000001
 33
0.0
  0
SOLID
  5
97
330
62
100
AcDbEntity
  8
TopSolder
100
AcDbTrace
 10
-2.95079928
 20
7.29920054
 30
0.0
 11
-2.54919988
 21
7.29920054
 31
0.0
 12
-2.95079928
 22
7.900799539999999
 32
0.0
 13
-2.54919988
 23
7.900799539999999
 33
0.0
  0
SOLID
  5
98
330
62
100
AcDbEntity
  8
TopLayer
100
AcDbTrace
 10
-2.89999928
 20
7.35000054
 30
0.0
 11
-2.59999988
 21
7.35000054
 31
0.0
 12
-2.89999928
 22
7.849999540000001
 32
0.0
 13
-2.59999988
 23
7.849999540000001
 33
0.0
  0
SOLID
  5
99
330
62
100
AcDbEntity
  8
TopPaste
100
AcDbTrace
 10
-2.40000028
 20
7.35000054
 30
0.0
 11
-2.10000088
 21
7.35000054
 31
0.0
 12
-2.40000028
 22
7.849999540000001
 32
0.0
 13
-2.10000088
 23
7.849999540000001
 33
0.0
  0
SOLID
  5
9A
330
62
100
AcDbEntity
  8
TopSolder
100
AcDbTrace
 10
-2.45080028
 20
7.29920054
 30
0.0
 11
-2.04920088
 21
7.29920054
 31
0.0
 12
-2.45080028
 22
7.900799539999999
 32
0.0
 13
-2.04920088
 23
7.900799539999999
 33
0.0
  0
SOLID
  5
9B
330
62
100
AcDbEntity
  8
TopLayer
100
AcDbTrace
 10
-2.40000028
 20
7.35000054
 30
0.0
 11
-2.10000088
 21
7.35000054
 31
0.0
 12
-2.40000028
 22
7.849999540000001
 32
0.0
 13
-2.10000088
 23
7.849999540000001
 33
0.0
  0
SOLID
  5
9C
330
62
100
AcDbEntity
  8
TopPaste
100
AcDbTrace
 10
-1.89999874
 20
7.35000054
 30
0.0
 11
-1.59999934
 21
7.35000054
 31
0.0
 12
-1.89999874
 22
7.849999540000001
 32
0.0
 13
-1.59999934
 23
7.849999540000001
 33
0.0
  0
SOLID
  5
9D
330
62
100
AcDbEntity
  8
TopSolder
100
AcDbTrace
 10
-1.95079874
 20
7.29920054
 30
0.0
 11
-1.54919934
 21
7.29920054
 31
0.0
 12
-1.95079874
 22
7.900799539999999
 32
0.0
 13
-1.54919934
 23
7.900799539999999
 33
0.0
  0
SOLID
  5
9E
330
62
100
AcDbEntity
  8
TopLayer
100
AcDbTrace
 10
-1.89999874
 20
7.35000054
 30
0.0
 11
-1.59999934
 21
7.35000054
 31
0.0
 12
-1.89999874
 22
7.849999540000001
 32
0.0
 13
-1.59999934
 23
7.849999540000001
 33
0.0
  0
SOLID
  5
9F
330
62
100
AcDbEntity
  8
TopPaste
100
AcDbTrace
 10
-1.39999974
 20
7.35000054
 30
0.0
 11
-1.10000034
 21
7.35000054
 31
0.0
 12
-1.39999974
 22
7.849999540000001
 32
0.0
 13
-1.10000034
 23
7.849999540000001
 33
0.0
  0
SOLID
  5
A0
330
62
100
AcDbEntity
  8
TopSolder
100
AcDbTrace
 10
-1.45079974
 20
7.29920054
 30
0.0
 11
-1.04920034
 21
7.29920054
 31
0.0
 12
-1.45079974
 22
7.900799539999999
 32
0.0
 13
-1.04920034
 23
7.900799539999999
 33
0.0
  0
SOLID
  5
A1
330
62
100
AcDbEntity
  8
TopLayer
100
AcDbTrace
 10
-1.39999974
 20
7.35000054
 30
0.0
 11
-1.10000034
 21
7.35000054
 31
0.0
 12
-1.39999974
 22
7.849999540000001
 32
0.0
 13
-1.10000034
 23
7.849999540000001
 33
0.0
  0
SOLID
  5
A2
330
62
100
AcDbEntity
  8
TopPaste
100
AcDbTrace
 10
-0.90000074
 20
7.35000054
 30
0.0
 11
-0.6000013399999999
 21
7.35000054
 31
0.0
 12
-0.90000074
 22
7.849999540000001
 32
0.0
 13
-0.6000013399999999
 23
7.849999540000001
 33
0.0
  0
SOLID
  5
A3
330
62
100
AcDbEntity
  8
TopSolder
100
AcDbTrace
 10
-0.9508007399999999
 20
7.29920054
 30
0.0
 11
-0.5492013399999999
 21
7.29920054
 31
0.0
 12
-0.9508007399999999
 22
7.900799539999999
 32
0.0
 13
-0.5492013399999999
 23
7.900799539999999
 33
0.0
  0
SOLID
  5
A4
330
62
100
AcDbEntity
  8
TopLayer
100
AcDbTrace
 10
-0.90000074
 20
7.35000054
 30
0.0
 11
-0.6000013399999999
 21
7.35000054
 31
0.0
 12
-0.90000074
 22
7.849999540000001
 32
0.0
 13
-0.6000013399999999
 23
7.849999540000001
 33
0.0
  0
SOLID
  5
A5
330
62
100
AcDbEntity
  8
TopPaste
100
AcDbTrace
 10
-0.3999992
 20
7.35000054
 30
0.0
 11
-0.0999998
 21
7.35000054
 31
0.0
 12
-0.3999992
 22
7.849999540000001
 32
0.0
 13
-0.0999998
 23
7.849999540000001
 33
0.0
  0
SOLID
  5
A6
330
62
100
AcDbEntity
  8
TopSolder
100
AcDbTrace
 10
-0.4507992
 20
7.29920054
 30
0.0
 11
-0.0491998
 21
7.29920054
 31
0.0
 12
-0.4507992
 22
7.900799539999999
 32
0.0
 13
-0.0491998
 23
7.900799539999999
 33
0.0
  0
SOLID
  5
A7
330
62
100
AcDbEntity
  8
TopLayer
100
AcDbTrace
 10
-0.3999992
 20
7.35000054
 30
0.0
 11
-0.0999998
 21
7.35000054
 31
0.0
 12
-0.3999992
 22
7.849999540000001
 32
0.0
 13
-0.0999998
 23
7.849999540000001
 33
0.0
  0
SOLID
  5
A8
330
62
100
AcDbEntity
  8
TopPaste
100
AcDbTrace
 10
0.0999998
 20
7.35000054
 30
0.0
 11
0.3999992
 21
7.35000054
 31
0.0
 12
0.0999998
 22
7.849999540000001
 32
0.0
 13
0.3999992
 23
7.849999540000001
 33
0.0
  0
SOLID
  5
A9
330
62
100
AcDbEntity
  8
TopSolder
100
AcDbTrace
 10
0.0491998
 20
7.29920054
 30
0.0
 11
0.4507992
 21
7.29920054
 31
0.0
 12
0.0491998
 22
7.900799539999999
 32
0.0
 13
0.4507992
 23
7.900799539999999
 33
0.0
  0
SOLID
  5
AA
330
62
100
AcDbEntity
  8
TopLayer
100
AcDbTrace
 10
0.0999998
 20
7.35000054
 30
0.0
 11
0.3999992
 21
7.35000054
 31
0.0
 12
0.0999998
 22
7.849999540000001
 32
0.0
 13
0.3999992
 23
7.849999540000001
 33
0.0
  0
SOLID
  5
AB
330
62
100
AcDbEntity
  8
TopPaste
100
AcDbTrace
 10
0.6000013399999999
 20
7.35000054
 30
0.0
 11
0.90000074
 21
7.35000054
 31
0.0
 12
0.6000013399999999
 22
7.849999540000001
 32
0.0
 13
0.90000074
 23
7.849999540000001
 33
0.0
  0
SOLID
  5
AC
330
62
100
AcDbEntity
  8
TopSolder
100
AcDbTrace
 10
0.5492013399999999
 20
7.29920054
 30
0.0
 11
0.9508007399999999
 21
7.29920054
 31
0.0
 12
0.5492013399999999
 22
7.900799539999999
 32
0.0
 13
0.9508007399999999
 23
7.900799539999999
 33
0.0
  0
SOLID
  5
AD
330
62
100
AcDbEntity
  8
TopLayer
100
AcDbTrace
 10
0.6000013399999999
 20
7.35000054
 30
0.0
 11
0.90000074
 21
7.35000054
 31
0.0
 12
0.6000013399999999
 22
7.849999540000001
 32
0.0
 13
0.90000074
 23
7.849999540000001
 33
0.0
  0
SOLID
  5
AE
330
62
100
AcDbEntity
  8
TopPaste
100
AcDbTrace
 10
1.10000034
 20
7.35000054
 30
0.0
 11
1.39999974
 21
7.35000054
 31
0.0
 12
1.10000034
 22
7.849999540000001
 32
0.0
 13
1.39999974
 23
7.849999540000001
 33
0.0
  0
SOLID
  5
AF
330
62
100
AcDbEntity
  8
TopSolder
100
AcDbTrace
 10
1.04920034
 20
7.29920054
 30
0.0
 11
1.45079974
 21
7.29920054
 31
0.0
 12
1.04920034
 22
7.900799539999999
 32
0.0
 13
1.45079974
 23
7.900799539999999
 33
0.0
  0
SOLID
  5
B0
330
62
100
AcDbEntity
  8
TopLayer
100
AcDbTrace
 10
1.10000034
 20
7.35000054
 30
0.0
 11
1.39999974
 21
7.35000054
 31
0.0
 12
1.10000034
 22
7.849999540000001
 32
0.0
 13
1.39999974
 23
7.849999540000001
 33
0.0
  0
SOLID
  5
B1
330
62
100
AcDbEntity
  8
TopPaste
100
AcDbTrace
 10
1.59999934
 20
7.35000054
 30
0.0
 11
1.89999874
 21
7.35000054
 31
0.0
 12
1.59999934
 22
7.849999540000001
 32
0.0
 13
1.89999874
 23
7.849999540000001
 33
0.0
  0
SOLID
  5
B2
330
62
100
AcDbEntity
  8
TopSolder
100
AcDbTrace
 10
1.54919934
 20
7.29920054
 30
0.0
 11
1.95079874
 21
7.29920054
 31
0.0
 12
1.54919934
 22
7.900799539999999
 32
0.0
 13
1.95079874
 23
7.900799539999999
 33
0.0
  0
SOLID
  5
B3
330
62
100
AcDbEntity
  8
TopLayer
100
AcDbTrace
 10
1.59999934
 20
7.35000054
 30
0.0
 11
1.89999874
 21
7.35000054
 31
0.0
 12
1.59999934
 22
7.849999540000001
 32
0.0
 13
1.89999874
 23
7.849999540000001
 33
0.0
  0
SOLID
  5
B4
330
62
100
AcDbEntity
  8
TopPaste
100
AcDbTrace
 10
2.10000088
 20
7.35000054
 30
0.0
 11
2.40000028
 21
7.35000054
 31
0.0
 12
2.10000088
 22
7.849999540000001
 32
0.0
 13
2.40000028
 23
7.849999540000001
 33
0.0
  0
SOLID
  5
B5
330
62
100
AcDbEntity
  8
TopSolder
100
AcDbTrace
 10
2.04920088
 20
7.29920054
 30
0.0
 11
2.45080028
 21
7.29920054
 31
0.0
 12
2.04920088
 22
7.900799539999999
 32
0.0
 13
2.45080028
 23
7.900799539999999
 33
0.0
  0
SOLID
  5
B6
330
62
100
AcDbEntity
  8
TopLayer
100
AcDbTrace
 10
2.10000088
 20
7.35000054
 30
0.0
 11
2.40000028
 21
7.35000054
 31
0.0
 12
2.10000088
 22
7.849999540000001
 32
0.0
 13
2.40000028
 23
7.849999540000001
 33
0.0
  0
SOLID
  5
B7
330
62
100
AcDbEntity
  8
TopPaste
100
AcDbTrace
 10
2.59999988
 20
7.35000054
 30
0.0
 11
2.89999928
 21
7.35000054
 31
0.0
 12
2.59999988
 22
7.849999540000001
 32
0.0
 13
2.89999928
 23
7.849999540000001
 33
0.0
  0
SOLID
  5
B8
330
62
100
AcDbEntity
  8
TopSolder
100
AcDbTrace
 10
2.54919988
 20
7.29920054
 30
0.0
 11
2.95079928
 21
7.29920054
 31
0.0
 12
2.54919988
 22
7.900799539999999
 32
0.0
 13
2.95079928
 23
7.900799539999999
 33
0.0
  0
SOLID
  5
B9
330
62
100
AcDbEntity
  8
TopLayer
100
AcDbTrace
 10
2.59999988
 20
7.35000054
 30
0.0
 11
2.89999928
 21
7.35000054
 31
0.0
 12
2.59999988
 22
7.849999540000001
 32
0.0
 13
2.89999928
 23
7.849999540000001
 33
0.0
  0
SOLID
  5
BA
330
62
100
AcDbEntity
  8
TopPaste
100
AcDbTrace
 10
3.10000142
 20
7.35000054
 30
0.0
 11
3.40000082
 21
7.35000054
 31
0.0
 12
3.10000142
 22
7.849999540000001
 32
0.0
 13
3.40000082
 23
7.849999540000001
 33
0.0
  0
SOLID
  5
BB
330
62
100
AcDbEntity
  8
TopSolder
100
AcDbTrace
 10
3.04920142
 20
7.29920054
 30
0.0
 11
3.45080082
 21
7.29920054
 31
0.0
 12
3.04920142
 22
7.900799539999999
 32
0.0
 13
3.45080082
 23
7.900799539999999
 33
0.0
  0
SOLID
  5
BC
330
62
100
AcDbEntity
  8
TopLayer
100
AcDbTrace
 10
3.10000142
 20
7.35000054
 30
0.0
 11
3.40000082
 21
7.35000054
 31
0.0
 12
3.10000142
 22
7.849999540000001
 32
0.0
 13
3.40000082
 23
7.849999540000001
 33
0.0
  0
SOLID
  5
BD
330
62
100
AcDbEntity
  8
TopPaste
100
AcDbTrace
 10
3.60000042
 20
7.35000054
 30
0.0
 11
3.89999982
 21
7.35000054
 31
0.0
 12
3.60000042
 22
7.849999540000001
 32
0.0
 13
3.89999982
 23
7.849999540000001
 33
0.0
  0
SOLID
  5
BE
330
62
100
AcDbEntity
  8
TopSolder
100
AcDbTrace
 10
3.54920042
 20
7.29920054
 30
0.0
 11
3.95079982
 21
7.29920054
 31
0.0
 12
3.54920042
 22
7.900799539999999
 32
0.0
 13
3.95079982
 23
7.900799539999999
 33
0.0
  0
SOLID
  5
BF
330
62
100
AcDbEntity
  8
TopLayer
100
AcDbTrace
 10
3.60000042
 20
7.35000054
 30
0.0
 11
3.89999982
 21
7.35000054
 31
0.0
 12
3.60000042
 22
7.849999540000001
 32
0.0
 13
3.89999982
 23
7.849999540000001
 33
0.0
  0
SOLID
  5
C0
330
62
100
AcDbEntity
  8
TopPaste
100
AcDbTrace
 10
4.099999420000001
 20
7.35000054
 30
0.0
 11
4.39999882
 21
7.35000054
 31
0.0
 12
4.099999420000001
 22
7.849999540000001
 32
0.0
 13
4.39999882
 23
7.849999540000001
 33
0.0
  0
SOLID
  5
C1
330
62
100
AcDbEntity
  8
TopSolder
100
AcDbTrace
 10
4.04919942
 20
7.29920054
 30
0.0
 11
4.45079882
 21
7.29920054
 31
0.0
 12
4.04919942
 22
7.900799539999999
 32
0.0
 13
4.45079882
 23
7.900799539999999
 33
0.0
  0
SOLID
  5
C2
330
62
100
AcDbEntity
  8
TopLayer
100
AcDbTrace
 10
4.099999420000001
 20
7.35000054
 30
0.0
 11
4.39999882
 21
7.35000054
 31
0.0
 12
4.099999420000001
 22
7.849999540000001
 32
0.0
 13
4.39999882
 23
7.849999540000001
 33
0.0
  0
SOLID
  5
C3
330
62
100
AcDbEntity
  8
TopPaste
100
AcDbTrace
 10
5.34999946
 20
6.399999899999999
 30
0.0
 11
5.34999946
 21
6.100000499999999
 31
0.0
 12
5.849998459999999
 22
6.399999899999999
 32
0.0
 13
5.849998459999999
 23
6.100000499999999
 33
0.0
  0
SOLID
  5
C4
330
62
100
AcDbEntity
  8
TopSolder
100
AcDbTrace
 10
5.29919946
 20
6.450799899999999
 30
0.0
 11
5.29919946
 21
6.0492005
 31
0.0
 12
5.90079846
 22
6.450799899999999
 32
0.0
 13
5.90079846
 23
6.0492005
 33
0.0
  0
SOLID
  5
C5
330
62
100
AcDbEntity
  8
TopLayer
100
AcDbTrace
 10
5.34999946
 20
6.399999899999999
 30
0.0
 11
5.34999946
 21
6.100000499999999
 31
0.0
 12
5.849998459999999
 22
6.399999899999999
 32
0.0
 13
5.849998459999999
 23
6.100000499999999
 33
0.0
  0
SOLID
  5
C6
330
62
100
AcDbEntity
  8
TopPaste
100
AcDbTrace
 10
5.34999946
 20
5.900000899999999
 30
0.0
 11
5.34999946
 21
5.600001499999999
 31
0.0
 12
5.849998459999999
 22
5.900000899999999
 32
0.0
 13
5.849998459999999
 23
5.600001499999999
 33
0.0
  0
SOLID
  5
C7
330
62
100
AcDbEntity
  8
TopSolder
100
AcDbTrace
 10
5.29919946
 20
5.9508009
 30
0.0
 11
5.29919946
 21
5.5492015
 31
0.0
 12
5.90079846
 22
5.9508009
 32
0.0
 13
5.90079846
 23
5.5492015
 33
0.0
  0
SOLID
  5
C8
330
62
100
AcDbEntity
  8
TopLayer
100
AcDbTrace
 10
5.34999946
 20
5.900000899999999
 30
0.0
 11
5.34999946
 21
5.600001499999999
 31
0.0
 12
5.849998459999999
 22
5.900000899999999
 32
0.0
 13
5.849998459999999
 23
5.600001499999999
 33
0.0
  0
SOLID
  5
C9
330
62
100
AcDbEntity
  8
TopPaste
100
AcDbTrace
 10
5.34999946
 20
5.39999936
 30
0.0
 11
5.34999946
 21
5.09999996
 31
0.0
 12
5.849998459999999
 22
5.39999936
 32
0.0
 13
5.849998459999999
 23
5.09999996
 33
0.0
  0
SOLID
  5
CA
330
62
100
AcDbEntity
  8
TopSolder
100
AcDbTrace
 10
5.29919946
 20
5.45079936
 30
0.0
 11
5.29919946
 21
5.04919996
 31
0.0
 12
5.90079846
 22
5.45079936
 32
0.0
 13
5.90079846
 23
5.04919996
 33
0.0
  0
SOLID
  5
CB
330
62
100
AcDbEntity
  8
TopLayer
100
AcDbTrace
 10
5.34999946
 20
5.39999936
 30
0.0
 11
5.34999946
 21
5.09999996
 31
0.0
 12
5.849998459999999
 22
5.39999936
 32
0.0
 13
5.849998459999999
 23
5.09999996
 33
0.0
  0
SOLID
  5
CC
330
62
100
AcDbEntity
  8
TopPaste
100
AcDbTrace
 10
5.34999946
 20
4.90000036
 30
0.0
 11
5.34999946
 21
4.60000096
 31
0.0
 12
5.849998459999999
 22
4.90000036
 32
0.0
 13
5.849998459999999
 23
4.60000096
 33
0.0
  0
SOLID
  5
CD
330
62
100
AcDbEntity
  8
TopSolder
100
AcDbTrace
 10
5.29919946
 20
4.95080036
 30
0.0
 11
5.29919946
 21
4.549200959999999
 31
0.0
 12
5.90079846
 22
4.95080036
 32
0.0
 13
5.90079846
 23
4.549200959999999
 33
0.0
  0
SOLID
  5
CE
330
62
100
AcDbEntity
  8
TopLayer
100
AcDbTrace
 10
5.34999946
 20
4.90000036
 30
0.0
 11
5.34999946
 21
4.60000096
 31
0.0
 12
5.849998459999999
 22
4.90000036
 32
0.0
 13
5.849998459999999
 23
4.60000096
 33
0.0
  0
SOLID
  5
CF
330
62
100
AcDbEntity
  8
TopPaste
100
AcDbTrace
 10
5.34999946
 20
4.39999882
 30
0.0
 11
5.34999946
 21
4.099999420000001
 31
0.0
 12
5.849998459999999
 22
4.39999882
 32
0.0
 13
5.849998459999999
 23
4.099999420000001
 33
0.0
  0
SOLID
  5
D0
330
62
100
AcDbEntity
  8
TopSolder
100
AcDbTrace
 10
5.29919946
 20
4.45079882
 30
0.0
 11
5.29919946
 21
4.04919942
 31
0.0
 12
5.90079846
 22
4.45079882
 32
0.0
 13
5.90079846
 23
4.04919942
 33
0.0
  0
SOLID
  5
D1
330
62
100
AcDbEntity
  8
TopLayer
100
AcDbTrace
 10
5.34999946
 20
4.39999882
 30
0.0
 11
5.34999946
 21
4.099999420000001
 31
0.0
 12
5.849998459999999
 22
4.39999882
 32
0.0
 13
5.849998459999999
 23
4.099999420000001
 33
0.0
  0
SOLID
  5
D2
330
62
100
AcDbEntity
  8
TopPaste
100
AcDbTrace
 10
5.34999946
 20
3.89999982
 30
0.0
 11
5.34999946
 21
3.60000042
 31
0.0
 12
5.849998459999999
 22
3.89999982
 32
0.0
 13
5.849998459999999
 23
3.60000042
 33
0.0
  0
SOLID
  5
D3
330
62
100
AcDbEntity
  8
TopSolder
100
AcDbTrace
 10
5.29919946
 20
3.95079982
 30
0.0
 11
5.29919946
 21
3.54920042
 31
0.0
 12
5.90079846
 22
3.95079982
 32
0.0
 13
5.90079846
 23
3.54920042
 33
0.0
  0
SOLID
  5
D4
330
62
100
AcDbEntity
  8
TopLayer
100
AcDbTrace
 10
5.34999946
 20
3.89999982
 30
0.0
 11
5.34999946
 21
3.60000042
 31
0.0
 12
5.849998459999999
 22
3.89999982
 32
0.0
 13
5.849998459999999
 23
3.60000042
 33
0.0
  0
SOLID
  5
D5
330
62
100
AcDbEntity
  8
TopPaste
100
AcDbTrace
 10
5.34999946
 20
3.40000082
 30
0.0
 11
5.34999946
 21
3.10000142
 31
0.0
 12
5.849998459999999
 22
3.40000082
 32
0.0
 13
5.849998459999999
 23
3.10000142
 33
0.0
  0
SOLID
  5
D6
330
62
100
AcDbEntity
  8
TopSolder
100
AcDbTrace
 10
5.29919946
 20
3.45080082
 30
0.0
 11
5.29919946
 21
3.04920142
 31
0.0
 12
5.90079846
 22
3.45080082
 32
0.0
 13
5.90079846
 23
3.04920142
 33
0.0
  0
SOLID
  5
D7
330
62
100
AcDbEntity
  8
TopLayer
100
AcDbTrace
 10
5.34999946
 20
3.40000082
 30
0.0
 11
5.34999946
 21
3.10000142
 31
0.0
 12
5.849998459999999
 22
3.40000082
 32
0.0
 13
5.849998459999999
 23
3.10000142
 33
0.0
  0
SOLID
  5
D8
330
62
100
AcDbEntity
  8
TopPaste
100
AcDbTrace
 10
5.34999946
 20
2.89999928
 30
0.0
 11
5.34999946
 21
2.59999988
 31
0.0
 12
5.849998459999999
 22
2.89999928
 32
0.0
 13
5.849998459999999
 23
2.59999988
 33
0.0
  0
SOLID
  5
D9
330
62
100
AcDbEntity
  8
TopSolder
100
AcDbTrace
 10
5.29919946
 20
2.95079928
 30
0.0
 11
5.29919946
 21
2.54919988
 31
0.0
 12
5.90079846
 22
2.95079928
 32
0.0
 13
5.90079846
 23
2.54919988
 33
0.0
  0
SOLID
  5
DA
330
62
100
AcDbEntity
  8
TopLayer
100
AcDbTrace
 10
5.34999946
 20
2.89999928
 30
0.0
 11
5.34999946
 21
2.59999988
 31
0.0
 12
5.849998459999999
 22
2.89999928
 32
0.0
 13
5.849998459999999
 23
2.59999988
 33
0.0
  0
SOLID
  5
DB
330
62
100
AcDbEntity
  8
TopPaste
100
AcDbTrace
 10
5.34999946
 20
2.40000028
 30
0.0
 11
5.34999946
 21
2.10000088
 31
0.0
 12
5.849998459999999
 22
2.40000028
 32
0.0
 13
5.849998459999999
 23
2.10000088
 33
0.0
  0
SOLID
  5
DC
330
62
100
AcDbEntity
  8
TopSolder
100
AcDbTrace
 10
5.29919946
 20
2.45080028
 30
0.0
 11
5.29919946
 21
2.04920088
 31
0.0
 12
5.90079846
 22
2.45080028
 32
0.0
 13
5.90079846
 23
2.04920088
 33
0.0
  0
SOLID
  5
DD
330
62
100
AcDbEntity
  8
TopLayer
100
AcDbTrace
 10
5.34999946
 20
2.40000028
 30
0.0
 11
5.34999946
 21
2.10000088
 31
0.0
 12
5.849998459999999
 22
2.40000028
 32
0.0
 13
5.849998459999999
 23
2.10000088
 33
0.0
  0
SOLID
  5
DE
330
62
100
AcDbEntity
  8
TopPaste
100
AcDbTrace
 10
5.34999946
 20
1.89999874
 30
0.0
 11
5.34999946
 21
1.59999934
 31
0.0
 12
5.849998459999999
 22
1.89999874
 32
0.0
 13
5.849998459999999
 23
1.59999934
 33
0.0
  0
SOLID
  5
DF
330
62
100
AcDbEntity
  8
TopSolder
100
AcDbTrace
 10
5.29919946
 20
1.95079874
 30
0.0
 11
5.29919946
 21
1.54919934
 31
0.0
 12
5.90079846
 22
1.95079874
 32
0.0
 13
5.90079846
 23
1.54919934
 33
0.0
  0
SOLID
  5
E0
330
62
100
AcDbEntity
  8
TopLayer
100
AcDbTrace
 10
5.34999946
 20
1.89999874
 30
0.0
 11
5.34999946
 21
1.59999934
 31
0.0
 12
5.849998459999999
 22
1.89999874
 32
0.0
 13
5.849998459999999
 23
1.59999934
 33
0.0
  0
SOLID
  5
E1
330
62
100
AcDbEntity
  8
TopPaste
100
AcDbTrace
 10
5.34999946
 20
1.39999974
 30
0.0
 11
5.34999946
 21
1.10000034
 31
0.0
 12
5.849998459999999
 22
1.39999974
 32
0.0
 13
5.849998459999999
 23
1.10000034
 33
0.0
  0
SOLID
  5
E2
330
62
100
AcDbEntity
  8
TopSolder
100
AcDbTrace
 10
5.29919946
 20
1.45079974
 30
0.0
 11
5.29919946
 21
1.04920034
 31
0.0
 12
5.90079846
 22
1.45079974
 32
0.0
 13
5.90079846
 23
1.04920034
 33
0.0
  0
SOLID
  5
E3
330
62
100
AcDbEntity
  8
TopLayer
100
AcDbTrace
 10
5.34999946
 20
1.39999974
 30
0.0
 11
5.34999946
 21
1.10000034
 31
0.0
 12
5.849998459999999
 22
1.39999974
 32
0.0
 13
5.849998459999999
 23
1.10000034
 33
0.0
  0
SOLID
  5
E4
330
62
100
AcDbEntity
  8
TopPaste
100
AcDbTrace
 10
5.34999946
 20
0.90000074
 30
0.0
 11
5.34999946
 21
0.6000013399999999
 31
0.0
 12
5.849998459999999
 22
0.90000074
 32
0.0
 13
5.849998459999999
 23
0.6000013399999999
 33
0.0
  0
SOLID
  5
E5
330
62
100
AcDbEntity
  8
TopSolder
100
AcDbTrace
 10
5.29919946
 20
0.9508007399999999
 30
0.0
 11
5.29919946
 21
0.5492013399999999
 31
0.0
 12
5.90079846
 22
0.9508007399999999
 32
0.0
 13
5.90079846
 23
0.5492013399999999
 33
0.0
  0
SOLID
  5
E6
330
62
100
AcDbEntity
  8
TopLayer
100
AcDbTrace
 10
5.34999946
 20
0.90000074
 30
0.0
 11
5.34999946
 21
0.6000013399999999
 31
0.0
 12
5.849998459999999
 22
0.90000074
 32
0.0
 13
5.849998459999999
 23
0.6000013399999999
 33
0.0
  0
SOLID
  5
E7
330
62
100
AcDbEntity
  8
TopPaste
100
AcDbTrace
 10
5.34999946
 20
0.3999992
 30
0.0
 11
5.34999946
 21
0.0999998
 31
0.0
 12
5.849998459999999
 22
0.3999992
 32
0.0
 13
5.849998459999999
 23
0.0999998
 33
0.0
  0
SOLID
  5
E8
330
62
100
AcDbEntity
  8
TopSolder
100
AcDbTrace
 10
5.29919946
 20
0.4507992
 30
0.0
 11
5.29919946
 21
0.0491998
 31
0.0
 12
5.90079846
 22
0.4507992
 32
0.0
 13
5.90079846
 23
0.0491998
 33
0.0
  0
SOLID
  5
E9
330
62
100
AcDbEntity
  8
TopLayer
100
AcDbTrace
 10
5.34999946
 20
0.3999992
 30
0.0
 11
5.34999946
 21
0.0999998
 31
0.0
 12
5.849998459999999
 22
0.3999992
 32
0.0
 13
5.849998459999999
 23
0.0999998
 33
0.0
  0
SOLID
  5
EA
330
62
100
AcDbEntity
  8
TopPaste
100
AcDbTrace
 10
5.34999946
 20
-0.0999998
 30
0.0
 11
5.34999946
 21
-0.3999992
 31
0.0
 12
5.849998459999999
 22
-0.0999998
 32
0.0
 13
5.849998459999999
 23
-0.3999992
 33
0.0
  0
SOLID
  5
EB
330
62
100
AcDbEntity
  8
TopSolder
100
AcDbTrace
 10
5.29919946
 20
-0.0491998
 30
0.0
 11
5.29919946
 21
-0.4507992
 31
0.0
 12
5.90079846
 22
-0.0491998
 32
0.0
 13
5.90079846
 23
-0.4507992
 33
0.0
  0
SOLID
  5
EC
330
62
100
AcDbEntity
  8
TopLayer
100
AcDbTrace
 10
5.34999946
 20
-0.0999998
 30
0.0
 11
5.34999946
 21
-0.3999992
 31
0.0
 12
5.849998459999999
 22
-0.0999998
 32
0.0
 13
5.849998459999999
 23
-0.3999992
 33
0.0
  0
SOLID
  5
ED
330
62
100
AcDbEntity
  8
TopPaste
100
AcDbTrace
 10
5.34999946
 20
-0.6000013399999999
 30
0.0
 11
5.34999946
 21
-0.90000074
 31
0.0
 12
5.849998459999999
 22
-0.6000013399999999
 32
0.0
 13
5.849998459999999
 23
-0.90000074
 33
0.0
  0
SOLID
  5
EE
330
62
100
AcDbEntity
  8
TopSolder
100
AcDbTrace
 10
5.29919946
 20
-0.5492013399999999
 30
0.0
 11
5.29919946
 21
-0.9508007399999999
 31
0.0
 12
5.90079846
 22
-0.5492013399999999
 32
0.0
 13
5.90079846
 23
-0.9508007399999999
 33
0.0
  0
SOLID
  5
EF
330
62
100
AcDbEntity
  8
TopLayer
100
AcDbTrace
 10
5.34999946
 20
-0.6000013399999999
 30
0.0
 11
5.34999946
 21
-0.90000074
 31
0.0
 12
5.849998459999999
 22
-0.6000013399999999
 32
0.0
 13
5.849998459999999
 23
-0.90000074
 33
0.0
  0
SOLID
  5
F0
330
62
100
AcDbEntity
  8
TopPaste
100
AcDbTrace
 10
5.34999946
 20
-1.10000034
 30
0.0
 11
5.34999946
 21
-1.39999974
 31
0.0
 12
5.849998459999999
 22
-1.10000034
 32
0.0
 13
5.849998459999999
 23
-1.39999974
 33
0.0
  0
SOLID
  5
F1
330
62
100
AcDbEntity
  8
TopSolder
100
AcDbTrace
 10
5.29919946
 20
-1.04920034
 30
0.0
 11
5.29919946
 21
-1.45079974
 31
0.0
 12
5.90079846
 22
-1.04920034
 32
0.0
 13
5.90079846
 23
-1.45079974
 33
0.0
  0
SOLID
  5
F2
330
62
100
AcDbEntity
  8
TopLayer
100
AcDbTrace
 10
5.34999946
 20
-1.10000034
 30
0.0
 11
5.34999946
 21
-1.39999974
 31
0.0
 12
5.849998459999999
 22
-1.10000034
 32
0.0
 13
5.849998459999999
 23
-1.39999974
 33
0.0
  0
SOLID
  5
F3
330
62
100
AcDbEntity
  8
TopPaste
100
AcDbTrace
 10
5.34999946
 20
-1.59999934
 30
0.0
 11
5.34999946
 21
-1.89999874
 31
0.0
 12
5.849998459999999
 22
-1.59999934
 32
0.0
 13
5.849998459999999
 23
-1.89999874
 33
0.0
  0
SOLID
  5
F4
330
62
100
AcDbEntity
  8
TopSolder
100
AcDbTrace
 10
5.29919946
 20
-1.54919934
 30
0.0
 11
5.29919946
 21
-1.95079874
 31
0.0
 12
5.90079846
 22
-1.54919934
 32
0.0
 13
5.90079846
 23
-1.95079874
 33
0.0
  0
SOLID
  5
F5
330
62
100
AcDbEntity
  8
TopLayer
100
AcDbTrace
 10
5.34999946
 20
-1.59999934
 30
0.0
 11
5.34999946
 21
-1.89999874
 31
0.0
 12
5.849998459999999
 22
-1.59999934
 32
0.0
 13
5.849998459999999
 23
-1.89999874
 33
0.0
  0
SOLID
  5
F6
330
62
100
AcDbEntity
  8
TopPaste
100
AcDbTrace
 10
5.34999946
 20
-2.10000088
 30
0.0
 11
5.34999946
 21
-2.40000028
 31
0.0
 12
5.849998459999999
 22
-2.10000088
 32
0.0
 13
5.849998459999999
 23
-2.40000028
 33
0.0
  0
SOLID
  5
F7
330
62
100
AcDbEntity
  8
TopSolder
100
AcDbTrace
 10
5.29919946
 20
-2.04920088
 30
0.0
 11
5.29919946
 21
-2.45080028
 31
0.0
 12
5.90079846
 22
-2.04920088
 32
0.0
 13
5.90079846
 23
-2.45080028
 33
0.0
  0
SOLID
  5
F8
330
62
100
AcDbEntity
  8
TopLayer
100
AcDbTrace
 10
5.34999946
 20
-2.10000088
 30
0.0
 11
5.34999946
 21
-2.40000028
 31
0.0
 12
5.849998459999999
 22
-2.10000088
 32
0.0
 13
5.849998459999999
 23
-2.40000028
 33
0.0
  0
SOLID
  5
F9
330
62
100
AcDbEntity
  8
TopPaste
100
AcDbTrace
 10
5.34999946
 20
-2.59999988
 30
0.0
 11
5.34999946
 21
-2.89999928
 31
0.0
 12
5.849998459999999
 22
-2.59999988
 32
0.0
 13
5.849998459999999
 23
-2.89999928
 33
0.0
  0
SOLID
  5
FA
330
62
100
AcDbEntity
  8
TopSolder
100
AcDbTrace
 10
5.29919946
 20
-2.54919988
 30
0.0
 11
5.29919946
 21
-2.95079928
 31
0.0
 12
5.90079846
 22
-2.54919988
 32
0.0
 13
5.90079846
 23
-2.95079928
 33
0.0
  0
SOLID
  5
FB
330
62
100
AcDbEntity
  8
TopLayer
100
AcDbTrace
 10
5.34999946
 20
-2.59999988
 30
0.0
 11
5.34999946
 21
-2.89999928
 31
0.0
 12
5.849998459999999
 22
-2.59999988
 32
0.0
 13
5.849998459999999
 23
-2.89999928
 33
0.0
  0
SOLID
  5
FC
330
62
100
AcDbEntity
  8
TopPaste
100
AcDbTrace
 10
5.34999946
 20
-3.10000142
 30
0.0
 11
5.34999946
 21
-3.40000082
 31
0.0
 12
5.849998459999999
 22
-3.10000142
 32
0.0
 13
5.849998459999999
 23
-3.40000082
 33
0.0
  0
SOLID
  5
FD
330
62
100
AcDbEntity
  8
TopSolder
100
AcDbTrace
 10
5.29919946
 20
-3.04920142
 30
0.0
 11
5.29919946
 21
-3.45080082
 31
0.0
 12
5.90079846
 22
-3.04920142
 32
0.0
 13
5.90079846
 23
-3.45080082
 33
0.0
  0
SOLID
  5
FE
330
62
100
AcDbEntity
  8
TopLayer
100
AcDbTrace
 10
5.34999946
 20
-3.10000142
 30
0.0
 11
5.34999946
 21
-3.40000082
 31
0.0
 12
5.849998459999999
 22
-3.10000142
 32
0.0
 13
5.849998459999999
 23
-3.40000082
 33
0.0
  0
SOLID
  5
FF
330
62
100
AcDbEntity
  8
TopPaste
100
AcDbTrace
 10
5.34999946
 20
-3.60000042
 30
0.0
 11
5.34999946
 21
-3.89999982
 31
0.0
 12
5.849998459999999
 22
-3.60000042
 32
0.0
 13
5.849998459999999
 23
-3.89999982
 33
0.0
  0
SOLID
  5
100
330
62
100
AcDbEntity
  8
TopSolder
100
AcDbTrace
 10
5.29919946
 20
-3.54920042
 30
0.0
 11
5.29919946
 21
-3.95079982
 31
0.0
 12
5.90079846
 22
-3.54920042
 32
0.0
 13
5.90079846
 23
-3.95079982
 33
0.0
  0
SOLID
  5
101
330
62
100
AcDbEntity
  8
TopLayer
100
AcDbTrace
 10
5.34999946
 20
-3.60000042
 30
0.0
 11
5.34999946
 21
-3.89999982
 31
0.0
 12
5.849998459999999
 22
-3.60000042
 32
0.0
 13
5.849998459999999
 23
-3.89999982
 33
0.0
  0
SOLID
  5
102
330
62
100
AcDbEntity
  8
TopPaste
100
AcDbTrace
 10
5.34999946
 20
-4.099999420000001
 30
0.0
 11
5.34999946
 21
-4.39999882
 31
0.0
 12
5.849998459999999
 22
-4.099999420000001
 32
0.0
 13
5.849998459999999
 23
-4.39999882
 33
0.0
  0
SOLID
  5
103
330
62
100
AcDbEntity
  8
TopSolder
100
AcDbTrace
 10
5.29919946
 20
-4.04919942
 30
0.0
 11
5.29919946
 21
-4.45079882
 31
0.0
 12
5.90079846
 22
-4.04919942
 32
0.0
 13
5.90079846
 23
-4.45079882
 33
0.0
  0
SOLID
  5
104
330
62
100
AcDbEntity
  8
TopLayer
100
AcDbTrace
 10
5.34999946
 20
-4.099999420000001
 30
0.0
 11
5.34999946
 21
-4.39999882
 31
0.0
 12
5.849998459999999
 22
-4.099999420000001
 32
0.0
 13
5.849998459999999
 23
-4.39999882
 33
0.0
  0
SOLID
  5
105
330
62
100
AcDbEntity
  8
TopPaste
100
AcDbTrace
 10
5.34999946
 20
-4.60000096
 30
0.0
 11
5.34999946
 21
-4.90000036
 31
0.0
 12
5.849998459999999
 22
-4.60000096
 32
0.0
 13
5.849998459999999
 23
-4.90000036
 33
0.0
  0
SOLID
  5
106
330
62
100
AcDbEntity
  8
TopSolder
100
AcDbTrace
 10
5.29919946
 20
-4.549200959999999
 30
0.0
 11
5.29919946
 21
-4.95080036
 31
0.0
 12
5.90079846
 22
-4.549200959999999
 32
0.0
 13
5.90079846
 23
-4.95080036
 33
0.0
  0
SOLID
  5
107
330
62
100
AcDbEntity
  8
TopLayer
100
AcDbTrace
 10
5.34999946
 20
-4.60000096
 30
0.0
 11
5.34999946
 21
-4.90000036
 31
0.0
 12
5.849998459999999
 22
-4.60000096
 32
0.0
 13
5.849998459999999
 23
-4.90000036
 33
0.0
  0
SOLID
  5
108
330
62
100
AcDbEntity
  8
TopPaste
100
AcDbTrace
 10
5.34999946
 20
-5.09999996
 30
0.0
 11
5.34999946
 21
-5.39999936
 31
0.0
 12
5.849998459999999
 22
-5.09999996
 32
0.0
 13
5.849998459999999
 23
-5.39999936
 33
0.0
  0
SOLID
  5
109
330
62
100
AcDbEntity
  8
TopSolder
100
AcDbTrace
 10
5.29919946
 20
-5.04919996
 30
0.0
 11
5.29919946
 21
-5.45079936
 31
0.0
 12
5.90079846
 22
-5.04919996
 32
0.0
 13
5.90079846
 23
-5.45079936
 33
0.0
  0
SOLID
  5
10A
330
62
100
AcDbEntity
  8
TopLayer
100
AcDbTrace
 10
5.34999946
 20
-5.09999996
 30
0.0
 11
5.34999946
 21
-5.39999936
 31
0.0
 12
5.849998459999999
 22
-5.09999996
 32
0.0
 13
5.849998459999999
 23
-5.39999936
 33
0.0
  0
SOLID
  5
10B
330
62
100
AcDbEntity
  8
TopPaste
100
AcDbTrace
 10
5.34999946
 20
-5.600001499999999
 30
0.0
 11
5.34999946
 21
-5.900000899999999
 31
0.0
 12
5.849998459999999
 22
-5.600001499999999
 32
0.0
 13
5.849998459999999
 23
-5.900000899999999
 33
0.0
  0
SOLID
  5
10C
330
62
100
AcDbEntity
  8
TopSolder
100
AcDbTrace
 10
5.29919946
 20
-5.5492015
 30
0.0
 11
5.29919946
 21
-5.9508009
 31
0.0
 12
5.90079846
 22
-5.5492015
 32
0.0
 13
5.90079846
 23
-5.9508009
 33
0.0
  0
SOLID
  5
10D
330
62
100
AcDbEntity
  8
TopLayer
100
AcDbTrace
 10
5.34999946
 20
-5.600001499999999
 30
0.0
 11
5.34999946
 21
-5.900000899999999
 31
0.0
 12
5.849998459999999
 22
-5.600001499999999
 32
0.0
 13
5.849998459999999
 23
-5.900000899999999
 33
0.0
  0
SOLID
  5
10E
330
62
100
AcDbEntity
  8
TopPaste
100
AcDbTrace
 10
5.34999946
 20
-6.100000499999999
 30
0.0
 11
5.34999946
 21
-6.399999899999999
 31
0.0
 12
5.849998459999999
 22
-6.100000499999999
 32
0.0
 13
5.849998459999999
 23
-6.399999899999999
 33
0.0
  0
SOLID
  5
10F
330
62
100
AcDbEntity
  8
TopSolder
100
AcDbTrace
 10
5.29919946
 20
-6.0492005
 30
0.0
 11
5.29919946
 21
-6.450799899999999
 31
0.0
 12
5.90079846
 22
-6.0492005
 32
0.0
 13
5.90079846
 23
-6.450799899999999
 33
0.0
  0
SOLID
  5
110
330
62
100
AcDbEntity
  8
TopLayer
100
AcDbTrace
 10
5.34999946
 20
-6.100000499999999
 30
0.0
 11
5.34999946
 21
-6.399999899999999
 31
0.0
 12
5.849998459999999
 22
-6.100000499999999
 32
0.0
 13
5.849998459999999
 23
-6.399999899999999
 33
0.0
  0
SOLID
  5
111
330
62
100
AcDbEntity
  8
TopPaste
100
AcDbTrace
 10
4.90000036
 20
-7.349998
 30
0.0
 11
4.60000096
 21
-7.349998
 31
0.0
 12
4.90000036
 22
-7.849997
 32
0.0
 13
4.60000096
 23
-7.849997
 33
0.0
  0
SOLID
  5
112
330
62
100
AcDbEntity
  8
TopSolder
100
AcDbTrace
 10
4.95080036
 20
-7.299198
 30
0.0
 11
4.549200959999999
 21
-7.299198
 31
0.0
 12
4.95080036
 22
-7.900797
 32
0.0
 13
4.549200959999999
 23
-7.900797
 33
0.0
  0
SOLID
  5
113
330
62
100
AcDbEntity
  8
TopLayer
100
AcDbTrace
 10
4.90000036
 20
-7.349998
 30
0.0
 11
4.60000096
 21
-7.349998
 31
0.0
 12
4.90000036
 22
-7.849997
 32
0.0
 13
4.60000096
 23
-7.849997
 33
0.0
  0
SOLID
  5
114
330
62
100
AcDbEntity
  8
TopPaste
100
AcDbTrace
 10
5.849998459999999
 20
-6.899998899999999
 30
0.0
 11
5.849998459999999
 21
-6.599999499999999
 31
0.0
 12
5.34999946
 22
-6.899998899999999
 32
0.0
 13
5.34999946
 23
-6.599999499999999
 33
0.0
  0
SOLID
  5
115
330
62
100
AcDbEntity
  8
TopSolder
100
AcDbTrace
 10
5.90079846
 20
-6.9507989
 30
0.0
 11
5.90079846
 21
-6.549199499999999
 31
0.0
 12
5.29919946
 22
-6.9507989
 32
0.0
 13
5.29919946
 23
-6.549199499999999
 33
0.0
  0
SOLID
  5
116
330
62
100
AcDbEntity
  8
TopLayer
100
AcDbTrace
 10
5.849998459999999
 20
-6.899998899999999
 30
0.0
 11
5.849998459999999
 21
-6.599999499999999
 31
0.0
 12
5.34999946
 22
-6.899998899999999
 32
0.0
 13
5.34999946
 23
-6.599999499999999
 33
0.0
  0
SOLID
  5
117
330
62
100
AcDbEntity
  8
TopPaste
100
AcDbTrace
 10
5.149999859999999
 20
-7.1499984
 30
0.0
 11
5.149999859999999
 21
-7.849997
 31
0.0
 12
5.849998459999999
 22
-7.1499984
 32
0.0
 13
5.849998459999999
 23
-7.849997
 33
0.0
  0
SOLID
  5
118
330
62
100
AcDbEntity
  8
TopSolder
100
AcDbTrace
 10
5.09919986
 20
-7.099198400000001
 30
0.0
 11
5.09919986
 21
-7.900797
 31
0.0
 12
5.90079846
 22
-7.099198400000001
 32
0.0
 13
5.90079846
 23
-7.900797
 33
0.0
  0
SOLID
  5
119
330
62
100
AcDbEntity
  8
TopLayer
100
AcDbTrace
 10
5.149999859999999
 20
-7.1499984
 30
0.0
 11
5.149999859999999
 21
-7.849997
 31
0.0
 12
5.849998459999999
 22
-7.1499984
 32
0.0
 13
5.849998459999999
 23
-7.849997
 33
0.0
  0
SOLID
  5
11A
330
62
100
AcDbEntity
  8
TopPaste
100
AcDbTrace
 10
4.39999882
 20
-7.349998
 30
0.0
 11
4.099999420000001
 21
-7.349998
 31
0.0
 12
4.39999882
 22
-7.849997
 32
0.0
 13
4.099999420000001
 23
-7.849997
 33
0.0
  0
SOLID
  5
11B
330
62
100
AcDbEntity
  8
TopSolder
100
AcDbTrace
 10
4.45079882
 20
-7.299198
 30
0.0
 11
4.04919942
 21
-7.299198
 31
0.0
 12
4.45079882
 22
-7.900797
 32
0.0
 13
4.04919942
 23
-7.900797
 33
0.0
  0
SOLID
  5
11C
330
62
100
AcDbEntity
  8
TopLayer
100
AcDbTrace
 10
4.39999882
 20
-7.349998
 30
0.0
 11
4.099999420000001
 21
-7.349998
 31
0.0
 12
4.39999882
 22
-7.849997
 32
0.0
 13
4.099999420000001
 23
-7.849997
 33
0.0
  0
SOLID
  5
11D
330
62
100
AcDbEntity
  8
TopPaste
100
AcDbTrace
 10
3.89999982
 20
-7.349998
 30
0.0
 11
3.60000042
 21
-7.349998
 31
0.0
 12
3.89999982
 22
-7.849997
 32
0.0
 13
3.60000042
 23
-7.849997
 33
0.0
  0
SOLID
  5
11E
330
62
100
AcDbEntity
  8
TopSolder
100
AcDbTrace
 10
3.95079982
 20
-7.299198
 30
0.0
 11
3.54920042
 21
-7.299198
 31
0.0
 12
3.95079982
 22
-7.900797
 32
0.0
 13
3.54920042
 23
-7.900797
 33
0.0
  0
SOLID
  5
11F
330
62
100
AcDbEntity
  8
TopLayer
100
AcDbTrace
 10
3.89999982
 20
-7.349998
 30
0.0
 11
3.60000042
 21
-7.349998
 31
0.0
 12
3.89999982
 22
-7.849997
 32
0.0
 13
3.60000042
 23
-7.849997
 33
0.0
  0
SOLID
  5
120
330
62
100
AcDbEntity
  8
TopPaste
100
AcDbTrace
 10
3.40000082
 20
-7.349998
 30
0.0
 11
3.10000142
 21
-7.349998
 31
0.0
 12
3.40000082
 22
-7.849997
 32
0.0
 13
3.10000142
 23
-7.849997
 33
0.0
  0
SOLID
  5
121
330
62
100
AcDbEntity
  8
TopSolder
100
AcDbTrace
 10
3.45080082
 20
-7.299198
 30
0.0
 11
3.04920142
 21
-7.299198
 31
0.0
 12
3.45080082
 22
-7.900797
 32
0.0
 13
3.04920142
 23
-7.900797
 33
0.0
  0
SOLID
  5
122
330
62
100
AcDbEntity
  8
TopLayer
100
AcDbTrace
 10
3.40000082
 20
-7.349998
 30
0.0
 11
3.10000142
 21
-7.349998
 31
0.0
 12
3.40000082
 22
-7.849997
 32
0.0
 13
3.10000142
 23
-7.849997
 33
0.0
  0
SOLID
  5
123
330
62
100
AcDbEntity
  8
TopPaste
100
AcDbTrace
 10
2.89999928
 20
-7.349998
 30
0.0
 11
2.59999988
 21
-7.349998
 31
0.0
 12
2.89999928
 22
-7.849997
 32
0.0
 13
2.59999988
 23
-7.849997
 33
0.0
  0
SOLID
  5
124
330
62
100
AcDbEntity
  8
TopSolder
100
AcDbTrace
 10
2.95079928
 20
-7.299198
 30
0.0
 11
2.54919988
 21
-7.299198
 31
0.0
 12
2.95079928
 22
-7.900797
 32
0.0
 13
2.54919988
 23
-7.900797
 33
0.0
  0
SOLID
  5
125
330
62
100
AcDbEntity
  8
TopLayer
100
AcDbTrace
 10
2.89999928
 20
-7.349998
 30
0.0
 11
2.59999988
 21
-7.349998
 31
0.0
 12
2.89999928
 22
-7.849997
 32
0.0
 13
2.59999988
 23
-7.849997
 33
0.0
  0
SOLID
  5
126
330
62
100
AcDbEntity
  8
TopPaste
100
AcDbTrace
 10
2.40000028
 20
-7.349998
 30
0.0
 11
2.10000088
 21
-7.349998
 31
0.0
 12
2.40000028
 22
-7.849997
 32
0.0
 13
2.10000088
 23
-7.849997
 33
0.0
  0
SOLID
  5
127
330
62
100
AcDbEntity
  8
TopSolder
100
AcDbTrace
 10
2.45080028
 20
-7.299198
 30
0.0
 11
2.04920088
 21
-7.299198
 31
0.0
 12
2.45080028
 22
-7.900797
 32
0.0
 13
2.04920088
 23
-7.900797
 33
0.0
  0
SOLID
  5
128
330
62
100
AcDbEntity
  8
TopLayer
100
AcDbTrace
 10
2.40000028
 20
-7.349998
 30
0.0
 11
2.10000088
 21
-7.349998
 31
0.0
 12
2.40000028
 22
-7.849997
 32
0.0
 13
2.10000088
 23
-7.849997
 33
0.0
  0
SOLID
  5
129
330
62
100
AcDbEntity
  8
TopPaste
100
AcDbTrace
 10
1.89999874
 20
-7.349998
 30
0.0
 11
1.59999934
 21
-7.349998
 31
0.0
 12
1.89999874
 22
-7.849997
 32
0.0
 13
1.59999934
 23
-7.849997
 33
0.0
  0
SOLID
  5
12A
330
62
100
AcDbEntity
  8
TopSolder
100
AcDbTrace
 10
1.95079874
 20
-7.299198
 30
0.0
 11
1.54919934
 21
-7.299198
 31
0.0
 12
1.95079874
 22
-7.900797
 32
0.0
 13
1.54919934
 23
-7.900797
 33
0.0
  0
SOLID
  5
12B
330
62
100
AcDbEntity
  8
TopLayer
100
AcDbTrace
 10
1.89999874
 20
-7.349998
 30
0.0
 11
1.59999934
 21
-7.349998
 31
0.0
 12
1.89999874
 22
-7.849997
 32
0.0
 13
1.59999934
 23
-7.849997
 33
0.0
  0
SOLID
  5
12C
330
62
100
AcDbEntity
  8
TopPaste
100
AcDbTrace
 10
1.39999974
 20
-7.349998
 30
0.0
 11
1.10000034
 21
-7.349998
 31
0.0
 12
1.39999974
 22
-7.849997
 32
0.0
 13
1.10000034
 23
-7.849997
 33
0.0
  0
SOLID
  5
12D
330
62
100
AcDbEntity
  8
TopSolder
100
AcDbTrace
 10
1.45079974
 20
-7.299198
 30
0.0
 11
1.04920034
 21
-7.299198
 31
0.0
 12
1.45079974
 22
-7.900797
 32
0.0
 13
1.04920034
 23
-7.900797
 33
0.0
  0
SOLID
  5
12E
330
62
100
AcDbEntity
  8
TopLayer
100
AcDbTrace
 10
1.39999974
 20
-7.349998
 30
0.0
 11
1.10000034
 21
-7.349998
 31
0.0
 12
1.39999974
 22
-7.849997
 32
0.0
 13
1.10000034
 23
-7.849997
 33
0.0
  0
SOLID
  5
12F
330
62
100
AcDbEntity
  8
TopPaste
100
AcDbTrace
 10
0.90000074
 20
-7.349998
 30
0.0
 11
0.6000013399999999
 21
-7.349998
 31
0.0
 12
0.90000074
 22
-7.849997
 32
0.0
 13
0.6000013399999999
 23
-7.849997
 33
0.0
  0
SOLID
  5
130
330
62
100
AcDbEntity
  8
TopSolder
100
AcDbTrace
 10
0.9508007399999999
 20
-7.299198
 30
0.0
 11
0.5492013399999999
 21
-7.299198
 31
0.0
 12
0.9508007399999999
 22
-7.900797
 32
0.0
 13
0.5492013399999999
 23
-7.900797
 33
0.0
  0
SOLID
  5
131
330
62
100
AcDbEntity
  8
TopLayer
100
AcDbTrace
 10
0.90000074
 20
-7.349998
 30
0.0
 11
0.6000013399999999
 21
-7.349998
 31
0.0
 12
0.90000074
 22
-7.849997
 32
0.0
 13
0.6000013399999999
 23
-7.849997
 33
0.0
  0
SOLID
  5
132
330
62
100
AcDbEntity
  8
TopPaste
100
AcDbTrace
 10
0.3999992
 20
-7.349998
 30
0.0
 11
0.0999998
 21
-7.349998
 31
0.0
 12
0.3999992
 22
-7.849997
 32
0.0
 13
0.0999998
 23
-7.849997
 33
0.0
  0
SOLID
  5
133
330
62
100
AcDbEntity
  8
TopSolder
100
AcDbTrace
 10
0.4507992
 20
-7.299198
 30
0.0
 11
0.0491998
 21
-7.299198
 31
0.0
 12
0.4507992
 22
-7.900797
 32
0.0
 13
0.0491998
 23
-7.900797
 33
0.0
  0
SOLID
  5
134
330
62
100
AcDbEntity
  8
TopLayer
100
AcDbTrace
 10
0.3999992
 20
-7.349998
 30
0.0
 11
0.0999998
 21
-7.349998
 31
0.0
 12
0.3999992
 22
-7.849997
 32
0.0
 13
0.0999998
 23
-7.849997
 33
0.0
  0
SOLID
  5
135
330
62
100
AcDbEntity
  8
TopPaste
100
AcDbTrace
 10
-0.0999998
 20
-7.349998
 30
0.0
 11
-0.3999992
 21
-7.349998
 31
0.0
 12
-0.0999998
 22
-7.849997
 32
0.0
 13
-0.3999992
 23
-7.849997
 33
0.0
  0
SOLID
  5
136
330
62
100
AcDbEntity
  8
TopSolder
100
AcDbTrace
 10
-0.0491998
 20
-7.299198
 30
0.0
 11
-0.4507992
 21
-7.299198
 31
0.0
 12
-0.0491998
 22
-7.900797
 32
0.0
 13
-0.4507992
 23
-7.900797
 33
0.0
  0
SOLID
  5
137
330
62
100
AcDbEntity
  8
TopLayer
100
AcDbTrace
 10
-0.0999998
 20
-7.349998
 30
0.0
 11
-0.3999992
 21
-7.349998
 31
0.0
 12
-0.0999998
 22
-7.849997
 32
0.0
 13
-0.3999992
 23
-7.849997
 33
0.0
  0
SOLID
  5
138
330
62
100
AcDbEntity
  8
TopPaste
100
AcDbTrace
 10
-0.6000013399999999
 20
-7.349998
 30
0.0
 11
-0.90000074
 21
-7.349998
 31
0.0
 12
-0.6000013399999999
 22
-7.849997
 32
0.0
 13
-0.90000074
 23
-7.849997
 33
0.0
  0
SOLID
  5
139
330
62
100
AcDbEntity
  8
TopSolder
100
AcDbTrace
 10
-0.5492013399999999
 20
-7.299198
 30
0.0
 11
-0.9508007399999999
 21
-7.299198
 31
0.0
 12
-0.5492013399999999
 22
-7.900797
 32
0.0
 13
-0.9508007399999999
 23
-7.900797
 33
0.0
  0
SOLID
  5
13A
330
62
100
AcDbEntity
  8
TopLayer
100
AcDbTrace
 10
-0.6000013399999999
 20
-7.349998
 30
0.0
 11
-0.90000074
 21
-7.349998
 31
0.0
 12
-0.6000013399999999
 22
-7.849997
 32
0.0
 13
-0.90000074
 23
-7.849997
 33
0.0
  0
SOLID
  5
13B
330
62
100
AcDbEntity
  8
TopPaste
100
AcDbTrace
 10
-1.10000034
 20
-7.349998
 30
0.0
 11
-1.39999974
 21
-7.349998
 31
0.0
 12
-1.10000034
 22
-7.849997
 32
0.0
 13
-1.39999974
 23
-7.849997
 33
0.0
  0
SOLID
  5
13C
330
62
100
AcDbEntity
  8
TopSolder
100
AcDbTrace
 10
-1.04920034
 20
-7.299198
 30
0.0
 11
-1.45079974
 21
-7.299198
 31
0.0
 12
-1.04920034
 22
-7.900797
 32
0.0
 13
-1.45079974
 23
-7.900797
 33
0.0
  0
SOLID
  5
13D
330
62
100
AcDbEntity
  8
TopLayer
100
AcDbTrace
 10
-1.10000034
 20
-7.349998
 30
0.0
 11
-1.39999974
 21
-7.349998
 31
0.0
 12
-1.10000034
 22
-7.849997
 32
0.0
 13
-1.39999974
 23
-7.849997
 33
0.0
  0
SOLID
  5
13E
330
62
100
AcDbEntity
  8
TopPaste
100
AcDbTrace
 10
-1.59999934
 20
-7.349998
 30
0.0
 11
-1.89999874
 21
-7.349998
 31
0.0
 12
-1.59999934
 22
-7.849997
 32
0.0
 13
-1.89999874
 23
-7.849997
 33
0.0
  0
SOLID
  5
13F
330
62
100
AcDbEntity
  8
TopSolder
100
AcDbTrace
 10
-1.54919934
 20
-7.299198
 30
0.0
 11
-1.95079874
 21
-7.299198
 31
0.0
 12
-1.54919934
 22
-7.900797
 32
0.0
 13
-1.95079874
 23
-7.900797
 33
0.0
  0
SOLID
  5
140
330
62
100
AcDbEntity
  8
TopLayer
100
AcDbTrace
 10
-1.59999934
 20
-7.349998
 30
0.0
 11
-1.89999874
 21
-7.349998
 31
0.0
 12
-1.59999934
 22
-7.849997
 32
0.0
 13
-1.89999874
 23
-7.849997
 33
0.0
  0
SOLID
  5
141
330
62
100
AcDbEntity
  8
TopPaste
100
AcDbTrace
 10
-2.10000088
 20
-7.349998
 30
0.0
 11
-2.40000028
 21
-7.349998
 31
0.0
 12
-2.10000088
 22
-7.849997
 32
0.0
 13
-2.40000028
 23
-7.849997
 33
0.0
  0
SOLID
  5
142
330
62
100
AcDbEntity
  8
TopSolder
100
AcDbTrace
 10
-2.04920088
 20
-7.299198
 30
0.0
 11
-2.45080028
 21
-7.299198
 31
0.0
 12
-2.04920088
 22
-7.900797
 32
0.0
 13
-2.45080028
 23
-7.900797
 33
0.0
  0
SOLID
  5
143
330
62
100
AcDbEntity
  8
TopLayer
100
AcDbTrace
 10
-2.10000088
 20
-7.349998
 30
0.0
 11
-2.40000028
 21
-7.349998
 31
0.0
 12
-2.10000088
 22
-7.849997
 32
0.0
 13
-2.40000028
 23
-7.849997
 33
0.0
  0
SOLID
  5
144
330
62
100
AcDbEntity
  8
TopPaste
100
AcDbTrace
 10
-2.59999988
 20
-7.349998
 30
0.0
 11
-2.89999928
 21
-7.349998
 31
0.0
 12
-2.59999988
 22
-7.849997
 32
0.0
 13
-2.89999928
 23
-7.849997
 33
0.0
  0
SOLID
  5
145
330
62
100
AcDbEntity
  8
TopSolder
100
AcDbTrace
 10
-2.54919988
 20
-7.299198
 30
0.0
 11
-2.95079928
 21
-7.299198
 31
0.0
 12
-2.54919988
 22
-7.900797
 32
0.0
 13
-2.95079928
 23
-7.900797
 33
0.0
  0
SOLID
  5
146
330
62
100
AcDbEntity
  8
TopLayer
100
AcDbTrace
 10
-2.59999988
 20
-7.349998
 30
0.0
 11
-2.89999928
 21
-7.349998
 31
0.0
 12
-2.59999988
 22
-7.849997
 32
0.0
 13
-2.89999928
 23
-7.849997
 33
0.0
  0
SOLID
  5
147
330
62
100
AcDbEntity
  8
TopPaste
100
AcDbTrace
 10
-3.10000142
 20
-7.349998
 30
0.0
 11
-3.40000082
 21
-7.349998
 31
0.0
 12
-3.10000142
 22
-7.849997
 32
0.0
 13
-3.40000082
 23
-7.849997
 33
0.0
  0
SOLID
  5
148
330
62
100
AcDbEntity
  8
TopSolder
100
AcDbTrace
 10
-3.04920142
 20
-7.299198
 30
0.0
 11
-3.45080082
 21
-7.299198
 31
0.0
 12
-3.04920142
 22
-7.900797
 32
0.0
 13
-3.45080082
 23
-7.900797
 33
0.0
  0
SOLID
  5
149
330
62
100
AcDbEntity
  8
TopLayer
100
AcDbTrace
 10
-3.10000142
 20
-7.349998
 30
0.0
 11
-3.40000082
 21
-7.349998
 31
0.0
 12
-3.10000142
 22
-7.849997
 32
0.0
 13
-3.40000082
 23
-7.849997
 33
0.0
  0
SOLID
  5
14A
330
62
100
AcDbEntity
  8
TopPaste
100
AcDbTrace
 10
-3.60000042
 20
-7.349998
 30
0.0
 11
-3.89999982
 21
-7.349998
 31
0.0
 12
-3.60000042
 22
-7.849997
 32
0.0
 13
-3.89999982
 23
-7.849997
 33
0.0
  0
SOLID
  5
14B
330
62
100
AcDbEntity
  8
TopSolder
100
AcDbTrace
 10
-3.54920042
 20
-7.299198
 30
0.0
 11
-3.95079982
 21
-7.299198
 31
0.0
 12
-3.54920042
 22
-7.900797
 32
0.0
 13
-3.95079982
 23
-7.900797
 33
0.0
  0
SOLID
  5
14C
330
62
100
AcDbEntity
  8
TopLayer
100
AcDbTrace
 10
-3.60000042
 20
-7.349998
 30
0.0
 11
-3.89999982
 21
-7.349998
 31
0.0
 12
-3.60000042
 22
-7.849997
 32
0.0
 13
-3.89999982
 23
-7.849997
 33
0.0
  0
SOLID
  5
14D
330
62
100
AcDbEntity
  8
TopPaste
100
AcDbTrace
 10
-4.099999420000001
 20
-7.349998
 30
0.0
 11
-4.39999882
 21
-7.349998
 31
0.0
 12
-4.099999420000001
 22
-7.849997
 32
0.0
 13
-4.39999882
 23
-7.849997
 33
0.0
  0
SOLID
  5
14E
330
62
100
AcDbEntity
  8
TopSolder
100
AcDbTrace
 10
-4.04919942
 20
-7.299198
 30
0.0
 11
-4.45079882
 21
-7.299198
 31
0.0
 12
-4.04919942
 22
-7.900797
 32
0.0
 13
-4.45079882
 23
-7.900797
 33
0.0
  0
SOLID
  5
14F
330
62
100
AcDbEntity
  8
TopLayer
100
AcDbTrace
 10
-4.099999420000001
 20
-7.349998
 30
0.0
 11
-4.39999882
 21
-7.349998
 31
0.0
 12
-4.099999420000001
 22
-7.849997
 32
0.0
 13
-4.39999882
 23
-7.849997
 33
0.0
  0
SOLID
  5
150
330
62
100
AcDbEntity
  8
TopPaste
100
AcDbTrace
 10
-5.149999859999999
 20
-7.1499984
 30
0.0
 11
-5.849998459999999
 21
-7.1499984
 31
0.0
 12
-5.149999859999999
 22
-7.849997
 32
0.0
 13
-5.849998459999999
 23
-7.849997
 33
0.0
  0
SOLID
  5
151
330
62
100
AcDbEntity
  8
TopSolder
100
AcDbTrace
 10
-5.09919986
 20
-7.099198400000001
 30
0.0
 11
-5.90079846
 21
-7.099198400000001
 31
0.0
 12
-5.09919986
 22
-7.900797
 32
0.0
 13
-5.90079846
 23
-7.900797
 33
0.0
  0
SOLID
  5
152
330
62
100
AcDbEntity
  8
TopLayer
100
AcDbTrace
 10
-5.149999859999999
 20
-7.1499984
 30
0.0
 11
-5.849998459999999
 21
-7.1499984
 31
0.0
 12
-5.149999859999999
 22
-7.849997
 32
0.0
 13
-5.849998459999999
 23
-7.849997
 33
0.0
  0
SOLID
  5
153
330
62
100
AcDbEntity
  8
TopPaste
100
AcDbTrace
 10
-4.90000036
 20
-7.849997
 30
0.0
 11
-4.60000096
 21
-7.849997
 31
0.0
 12
-4.90000036
 22
-7.349998
 32
0.0
 13
-4.60000096
 23
-7.349998
 33
0.0
  0
SOLID
  5
154
330
62
100
AcDbEntity
  8
TopSolder
100
AcDbTrace
 10
-4.95080036
 20
-7.900797
 30
0.0
 11
-4.549200959999999
 21
-7.900797
 31
0.0
 12
-4.95080036
 22
-7.299198
 32
0.0
 13
-4.549200959999999
 23
-7.299198
 33
0.0
  0
SOLID
  5
155
330
62
100
AcDbEntity
  8
TopLayer
100
AcDbTrace
 10
-4.90000036
 20
-7.849997
 30
0.0
 11
-4.60000096
 21
-7.849997
 31
0.0
 12
-4.90000036
 22
-7.349998
 32
0.0
 13
-4.60000096
 23
-7.349998
 33
0.0
  0
SOLID
  5
156
330
62
100
AcDbEntity
  8
TopPaste
100
AcDbTrace
 10
-5.34999946
 20
-6.899998899999999
 30
0.0
 11
-5.34999946
 21
-6.599999499999999
 31
0.0
 12
-5.849998459999999
 22
-6.899998899999999
 32
0.0
 13
-5.849998459999999
 23
-6.599999499999999
 33
0.0
  0
SOLID
  5
157
330
62
100
AcDbEntity
  8
TopSolder
100
AcDbTrace
 10
-5.29919946
 20
-6.9507989
 30
0.0
 11
-5.29919946
 21
-6.549199499999999
 31
0.0
 12
-5.90079846
 22
-6.9507989
 32
0.0
 13
-5.90079846
 23
-6.549199499999999
 33
0.0
  0
SOLID
  5
158
330
62
100
AcDbEntity
  8
TopLayer
100
AcDbTrace
 10
-5.34999946
 20
-6.899998899999999
 30
0.0
 11
-5.34999946
 21
-6.599999499999999
 31
0.0
 12
-5.849998459999999
 22
-6.899998899999999
 32
0.0
 13
-5.849998459999999
 23
-6.599999499999999
 33
0.0
  0
SOLID
  5
159
330
62
100
AcDbEntity
  8
TopPaste
100
AcDbTrace
 10
-5.34999946
 20
-6.39999736
 30
0.0
 11
-5.34999946
 21
-6.09999796
 31
0.0
 12
-5.849998459999999
 22
-6.39999736
 32
0.0
 13
-5.849998459999999
 23
-6.09999796
 33
0.0
  0
SOLID
  5
15A
330
62
100
AcDbEntity
  8
TopSolder
100
AcDbTrace
 10
-5.29919946
 20
-6.450797359999999
 30
0.0
 11
-5.29919946
 21
-6.04919796
 31
0.0
 12
-5.90079846
 22
-6.450797359999999
 32
0.0
 13
-5.90079846
 23
-6.04919796
 33
0.0
  0
SOLID
  5
15B
330
62
100
AcDbEntity
  8
TopLayer
100
AcDbTrace
 10
-5.34999946
 20
-6.39999736
 30
0.0
 11
-5.34999946
 21
-6.09999796
 31
0.0
 12
-5.849998459999999
 22
-6.39999736
 32
0.0
 13
-5.849998459999999
 23
-6.09999796
 33
0.0
  0
SOLID
  5
15C
330
62
100
AcDbEntity
  8
TopPaste
100
AcDbTrace
 10
-5.34999946
 20
-5.89999836
 30
0.0
 11
-5.34999946
 21
-5.59999896
 31
0.0
 12
-5.849998459999999
 22
-5.89999836
 32
0.0
 13
-5.849998459999999
 23
-5.59999896
 33
0.0
  0
SOLID
  5
15D
330
62
100
AcDbEntity
  8
TopSolder
100
AcDbTrace
 10
-5.29919946
 20
-5.950798359999999
 30
0.0
 11
-5.29919946
 21
-5.54919896
 31
0.0
 12
-5.90079846
 22
-5.950798359999999
 32
0.0
 13
-5.90079846
 23
-5.54919896
 33
0.0
  0
SOLID
  5
15E
330
62
100
AcDbEntity
  8
TopLayer
100
AcDbTrace
 10
-5.34999946
 20
-5.89999836
 30
0.0
 11
-5.34999946
 21
-5.59999896
 31
0.0
 12
-5.849998459999999
 22
-5.89999836
 32
0.0
 13
-5.849998459999999
 23
-5.59999896
 33
0.0
  0
SOLID
  5
15F
330
62
100
AcDbEntity
  8
TopPaste
100
AcDbTrace
 10
-5.34999946
 20
-5.399996819999999
 30
0.0
 11
-5.34999946
 21
-5.099997419999999
 31
0.0
 12
-5.849998459999999
 22
-5.399996819999999
 32
0.0
 13
-5.849998459999999
 23
-5.099997419999999
 33
0.0
  0
SOLID
  5
160
330
62
100
AcDbEntity
  8
TopSolder
100
AcDbTrace
 10
-5.29919946
 20
-5.45079682
 30
0.0
 11
-5.29919946
 21
-5.04919742
 31
0.0
 12
-5.90079846
 22
-5.45079682
 32
0.0
 13
-5.90079846
 23
-5.04919742
 33
0.0
  0
SOLID
  5
161
330
62
100
AcDbEntity
  8
TopLayer
100
AcDbTrace
 10
-5.34999946
 20
-5.399996819999999
 30
0.0
 11
-5.34999946
 21
-5.099997419999999
 31
0.0
 12
-5.849998459999999
 22
-5.399996819999999
 32
0.0
 13
-5.849998459999999
 23
-5.099997419999999
 33
0.0
  0
SOLID
  5
162
330
62
100
AcDbEntity
  8
TopPaste
100
AcDbTrace
 10
-5.34999946
 20
-4.89999782
 30
0.0
 11
-5.34999946
 21
-4.599998419999999
 31
0.0
 12
-5.849998459999999
 22
-4.89999782
 32
0.0
 13
-5.849998459999999
 23
-4.599998419999999
 33
0.0
  0
SOLID
  5
163
330
62
100
AcDbEntity
  8
TopSolder
100
AcDbTrace
 10
-5.29919946
 20
-4.95079782
 30
0.0
 11
-5.29919946
 21
-4.54919842
 31
0.0
 12
-5.90079846
 22
-4.95079782
 32
0.0
 13
-5.90079846
 23
-4.54919842
 33
0.0
  0
SOLID
  5
164
330
62
100
AcDbEntity
  8
TopLayer
100
AcDbTrace
 10
-5.34999946
 20
-4.89999782
 30
0.0
 11
-5.34999946
 21
-4.599998419999999
 31
0.0
 12
-5.849998459999999
 22
-4.89999782
 32
0.0
 13
-5.849998459999999
 23
-4.599998419999999
 33
0.0
  0
SOLID
  5
165
330
62
100
AcDbEntity
  8
TopPaste
100
AcDbTrace
 10
-5.34999946
 20
-4.39999882
 30
0.0
 11
-5.34999946
 21
-4.099999420000001
 31
0.0
 12
-5.849998459999999
 22
-4.39999882
 32
0.0
 13
-5.849998459999999
 23
-4.099999420000001
 33
0.0
  0
SOLID
  5
166
330
62
100
AcDbEntity
  8
TopSolder
100
AcDbTrace
 10
-5.29919946
 20
-4.45079882
 30
0.0
 11
-5.29919946
 21
-4.04919942
 31
0.0
 12
-5.90079846
 22
-4.45079882
 32
0.0
 13
-5.90079846
 23
-4.04919942
 33
0.0
  0
SOLID
  5
167
330
62
100
AcDbEntity
  8
TopLayer
100
AcDbTrace
 10
-5.34999946
 20
-4.39999882
 30
0.0
 11
-5.34999946
 21
-4.099999420000001
 31
0.0
 12
-5.849998459999999
 22
-4.39999882
 32
0.0
 13
-5.849998459999999
 23
-4.099999420000001
 33
0.0
  0
SOLID
  5
168
330
62
100
AcDbEntity
  8
TopPaste
100
AcDbTrace
 10
-5.34999946
 20
-3.89999728
 30
0.0
 11
-5.34999946
 21
-3.59999788
 31
0.0
 12
-5.849998459999999
 22
-3.89999728
 32
0.0
 13
-5.849998459999999
 23
-3.59999788
 33
0.0
  0
SOLID
  5
169
330
62
100
AcDbEntity
  8
TopSolder
100
AcDbTrace
 10
-5.29919946
 20
-3.95079728
 30
0.0
 11
-5.29919946
 21
-3.54919788
 31
0.0
 12
-5.90079846
 22
-3.95079728
 32
0.0
 13
-5.90079846
 23
-3.54919788
 33
0.0
  0
SOLID
  5
16A
330
62
100
AcDbEntity
  8
TopLayer
100
AcDbTrace
 10
-5.34999946
 20
-3.89999728
 30
0.0
 11
-5.34999946
 21
-3.59999788
 31
0.0
 12
-5.849998459999999
 22
-3.89999728
 32
0.0
 13
-5.849998459999999
 23
-3.59999788
 33
0.0
  0
SOLID
  5
16B
330
62
100
AcDbEntity
  8
TopPaste
100
AcDbTrace
 10
-5.34999946
 20
-3.39999828
 30
0.0
 11
-5.34999946
 21
-3.09999888
 31
0.0
 12
-5.849998459999999
 22
-3.39999828
 32
0.0
 13
-5.849998459999999
 23
-3.09999888
 33
0.0
  0
SOLID
  5
16C
330
62
100
AcDbEntity
  8
TopSolder
100
AcDbTrace
 10
-5.29919946
 20
-3.45079828
 30
0.0
 11
-5.29919946
 21
-3.04919888
 31
0.0
 12
-5.90079846
 22
-3.45079828
 32
0.0
 13
-5.90079846
 23
-3.04919888
 33
0.0
  0
SOLID
  5
16D
330
62
100
AcDbEntity
  8
TopLayer
100
AcDbTrace
 10
-5.34999946
 20
-3.39999828
 30
0.0
 11
-5.34999946
 21
-3.09999888
 31
0.0
 12
-5.849998459999999
 22
-3.39999828
 32
0.0
 13
-5.849998459999999
 23
-3.09999888
 33
0.0
  0
SOLID
  5
16E
330
62
100
AcDbEntity
  8
TopPaste
100
AcDbTrace
 10
-5.34999946
 20
-2.89999674
 30
0.0
 11
-5.34999946
 21
-2.59999734
 31
0.0
 12
-5.849998459999999
 22
-2.89999674
 32
0.0
 13
-5.849998459999999
 23
-2.59999734
 33
0.0
  0
SOLID
  5
16F
330
62
100
AcDbEntity
  8
TopSolder
100
AcDbTrace
 10
-5.29919946
 20
-2.95079674
 30
0.0
 11
-5.29919946
 21
-2.54919734
 31
0.0
 12
-5.90079846
 22
-2.95079674
 32
0.0
 13
-5.90079846
 23
-2.54919734
 33
0.0
  0
SOLID
  5
170
330
62
100
AcDbEntity
  8
TopLayer
100
AcDbTrace
 10
-5.34999946
 20
-2.89999674
 30
0.0
 11
-5.34999946
 21
-2.59999734
 31
0.0
 12
-5.849998459999999
 22
-2.89999674
 32
0.0
 13
-5.849998459999999
 23
-2.59999734
 33
0.0
  0
SOLID
  5
171
330
62
100
AcDbEntity
  8
TopPaste
100
AcDbTrace
 10
-5.34999946
 20
-2.39999774
 30
0.0
 11
-5.34999946
 21
-2.09999834
 31
0.0
 12
-5.849998459999999
 22
-2.39999774
 32
0.0
 13
-5.849998459999999
 23
-2.09999834
 33
0.0
  0
SOLID
  5
172
330
62
100
AcDbEntity
  8
TopSolder
100
AcDbTrace
 10
-5.29919946
 20
-2.45079774
 30
0.0
 11
-5.29919946
 21
-2.04919834
 31
0.0
 12
-5.90079846
 22
-2.45079774
 32
0.0
 13
-5.90079846
 23
-2.04919834
 33
0.0
  0
SOLID
  5
173
330
62
100
AcDbEntity
  8
TopLayer
100
AcDbTrace
 10
-5.34999946
 20
-2.39999774
 30
0.0
 11
-5.34999946
 21
-2.09999834
 31
0.0
 12
-5.849998459999999
 22
-2.39999774
 32
0.0
 13
-5.849998459999999
 23
-2.09999834
 33
0.0
  0
SOLID
  5
174
330
62
100
AcDbEntity
  8
TopPaste
100
AcDbTrace
 10
-5.34999946
 20
-1.89999874
 30
0.0
 11
-5.34999946
 21
-1.59999934
 31
0.0
 12
-5.849998459999999
 22
-1.89999874
 32
0.0
 13
-5.849998459999999
 23
-1.59999934
 33
0.0
  0
SOLID
  5
175
330
62
100
AcDbEntity
  8
TopSolder
100
AcDbTrace
 10
-5.29919946
 20
-1.95079874
 30
0.0
 11
-5.29919946
 21
-1.54919934
 31
0.0
 12
-5.90079846
 22
-1.95079874
 32
0.0
 13
-5.90079846
 23
-1.54919934
 33
0.0
  0
SOLID
  5
176
330
62
100
AcDbEntity
  8
TopLayer
100
AcDbTrace
 10
-5.34999946
 20
-1.89999874
 30
0.0
 11
-5.34999946
 21
-1.59999934
 31
0.0
 12
-5.849998459999999
 22
-1.89999874
 32
0.0
 13
-5.849998459999999
 23
-1.59999934
 33
0.0
  0
SOLID
  5
177
330
62
100
AcDbEntity
  8
TopPaste
100
AcDbTrace
 10
-5.34999946
 20
-1.3999972
 30
0.0
 11
-5.34999946
 21
-1.0999978
 31
0.0
 12
-5.849998459999999
 22
-1.3999972
 32
0.0
 13
-5.849998459999999
 23
-1.0999978
 33
0.0
  0
SOLID
  5
178
330
62
100
AcDbEntity
  8
TopSolder
100
AcDbTrace
 10
-5.29919946
 20
-1.4507972
 30
0.0
 11
-5.29919946
 21
-1.0491978
 31
0.0
 12
-5.90079846
 22
-1.4507972
 32
0.0
 13
-5.90079846
 23
-1.0491978
 33
0.0
  0
SOLID
  5
179
330
62
100
AcDbEntity
  8
TopLayer
100
AcDbTrace
 10
-5.34999946
 20
-1.3999972
 30
0.0
 11
-5.34999946
 21
-1.0999978
 31
0.0
 12
-5.849998459999999
 22
-1.3999972
 32
0.0
 13
-5.849998459999999
 23
-1.0999978
 33
0.0
  0
SOLID
  5
17A
330
62
100
AcDbEntity
  8
TopPaste
100
AcDbTrace
 10
-5.34999946
 20
-0.8999982
 30
0.0
 11
-5.34999946
 21
-0.5999987999999999
 31
0.0
 12
-5.849998459999999
 22
-0.8999982
 32
0.0
 13
-5.849998459999999
 23
-0.5999987999999999
 33
0.0
  0
SOLID
  5
17B
330
62
100
AcDbEntity
  8
TopSolder
100
AcDbTrace
 10
-5.29919946
 20
-0.9507981999999999
 30
0.0
 11
-5.29919946
 21
-0.5491988
 31
0.0
 12
-5.90079846
 22
-0.9507981999999999
 32
0.0
 13
-5.90079846
 23
-0.5491988
 33
0.0
  0
SOLID
  5
17C
330
62
100
AcDbEntity
  8
TopLayer
100
AcDbTrace
 10
-5.34999946
 20
-0.8999982
 30
0.0
 11
-5.34999946
 21
-0.5999987999999999
 31
0.0
 12
-5.849998459999999
 22
-0.8999982
 32
0.0
 13
-5.849998459999999
 23
-0.5999987999999999
 33
0.0
  0
SOLID
  5
17D
330
62
100
AcDbEntity
  8
TopPaste
100
AcDbTrace
 10
-5.34999946
 20
-0.3999992
 30
0.0
 11
-5.34999946
 21
-0.0999998
 31
0.0
 12
-5.849998459999999
 22
-0.3999992
 32
0.0
 13
-5.849998459999999
 23
-0.0999998
 33
0.0
  0
SOLID
  5
17E
330
62
100
AcDbEntity
  8
TopSolder
100
AcDbTrace
 10
-5.29919946
 20
-0.4507992
 30
0.0
 11
-5.29919946
 21
-0.0491998
 31
0.0
 12
-5.90079846
 22
-0.4507992
 32
0.0
 13
-5.90079846
 23
-0.0491998
 33
0.0
  0
SOLID
  5
17F
330
62
100
AcDbEntity
  8
TopLayer
100
AcDbTrace
 10
-5.34999946
 20
-0.3999992
 30
0.0
 11
-5.34999946
 21
-0.0999998
 31
0.0
 12
-5.849998459999999
 22
-0.3999992
 32
0.0
 13
-5.849998459999999
 23
-0.0999998
 33
0.0
  0
SOLID
  5
180
330
62
100
AcDbEntity
  8
TopPaste
100
AcDbTrace
 10
-5.34999946
 20
0.10000234
 30
0.0
 11
-5.34999946
 21
0.40000174
 31
0.0
 12
-5.849998459999999
 22
0.10000234
 32
0.0
 13
-5.849998459999999
 23
0.40000174
 33
0.0
  0
SOLID
  5
181
330
62
100
AcDbEntity
  8
TopSolder
100
AcDbTrace
 10
-5.29919946
 20
0.04920234
 30
0.0
 11
-5.29919946
 21
0.45080174
 31
0.0
 12
-5.90079846
 22
0.04920234
 32
0.0
 13
-5.90079846
 23
0.45080174
 33
0.0
  0
SOLID
  5
182
330
62
100
AcDbEntity
  8
TopLayer
100
AcDbTrace
 10
-5.34999946
 20
0.10000234
 30
0.0
 11
-5.34999946
 21
0.40000174
 31
0.0
 12
-5.849998459999999
 22
0.10000234
 32
0.0
 13
-5.849998459999999
 23
0.40000174
 33
0.0
  0
SOLID
  5
183
330
62
100
AcDbEntity
  8
TopPaste
100
AcDbTrace
 10
-5.34999946
 20
0.6000013399999999
 30
0.0
 11
-5.34999946
 21
0.90000074
 31
0.0
 12
-5.849998459999999
 22
0.6000013399999999
 32
0.0
 13
-5.849998459999999
 23
0.90000074
 33
0.0
  0
SOLID
  5
184
330
62
100
AcDbEntity
  8
TopSolder
100
AcDbTrace
 10
-5.29919946
 20
0.5492013399999999
 30
0.0
 11
-5.29919946
 21
0.9508007399999999
 31
0.0
 12
-5.90079846
 22
0.5492013399999999
 32
0.0
 13
-5.90079846
 23
0.9508007399999999
 33
0.0
  0
SOLID
  5
185
330
62
100
AcDbEntity
  8
TopLayer
100
AcDbTrace
 10
-5.34999946
 20
0.6000013399999999
 30
0.0
 11
-5.34999946
 21
0.90000074
 31
0.0
 12
-5.849998459999999
 22
0.6000013399999999
 32
0.0
 13
-5.849998459999999
 23
0.90000074
 33
0.0
  0
SOLID
  5
186
330
62
100
AcDbEntity
  8
TopPaste
100
AcDbTrace
 10
-5.34999946
 20
1.10000288
 30
0.0
 11
-5.34999946
 21
1.40000228
 31
0.0
 12
-5.849998459999999
 22
1.10000288
 32
0.0
 13
-5.849998459999999
 23
1.40000228
 33
0.0
  0
SOLID
  5
187
330
62
100
AcDbEntity
  8
TopSolder
100
AcDbTrace
 10
-5.29919946
 20
1.04920288
 30
0.0
 11
-5.29919946
 21
1.45080228
 31
0.0
 12
-5.90079846
 22
1.04920288
 32
0.0
 13
-5.90079846
 23
1.45080228
 33
0.0
  0
SOLID
  5
188
330
62
100
AcDbEntity
  8
TopLayer
100
AcDbTrace
 10
-5.34999946
 20
1.10000288
 30
0.0
 11
-5.34999946
 21
1.40000228
 31
0.0
 12
-5.849998459999999
 22
1.10000288
 32
0.0
 13
-5.849998459999999
 23
1.40000228
 33
0.0
  0
SOLID
  5
189
330
62
100
AcDbEntity
  8
TopPaste
100
AcDbTrace
 10
-5.34999946
 20
1.60000188
 30
0.0
 11
-5.34999946
 21
1.90000128
 31
0.0
 12
-5.849998459999999
 22
1.60000188
 32
0.0
 13
-5.849998459999999
 23
1.90000128
 33
0.0
  0
SOLID
  5
18A
330
62
100
AcDbEntity
  8
TopSolder
100
AcDbTrace
 10
-5.29919946
 20
1.54920188
 30
0.0
 11
-5.29919946
 21
1.95080128
 31
0.0
 12
-5.90079846
 22
1.54920188
 32
0.0
 13
-5.90079846
 23
1.95080128
 33
0.0
  0
SOLID
  5
18B
330
62
100
AcDbEntity
  8
TopLayer
100
AcDbTrace
 10
-5.34999946
 20
1.60000188
 30
0.0
 11
-5.34999946
 21
1.90000128
 31
0.0
 12
-5.849998459999999
 22
1.60000188
 32
0.0
 13
-5.849998459999999
 23
1.90000128
 33
0.0
  0
SOLID
  5
18C
330
62
100
AcDbEntity
  8
TopPaste
100
AcDbTrace
 10
-5.34999946
 20
2.10000088
 30
0.0
 11
-5.34999946
 21
2.40000028
 31
0.0
 12
-5.849998459999999
 22
2.10000088
 32
0.0
 13
-5.849998459999999
 23
2.40000028
 33
0.0
  0
SOLID
  5
18D
330
62
100
AcDbEntity
  8
TopSolder
100
AcDbTrace
 10
-5.29919946
 20
2.04920088
 30
0.0
 11
-5.29919946
 21
2.45080028
 31
0.0
 12
-5.90079846
 22
2.04920088
 32
0.0
 13
-5.90079846
 23
2.45080028
 33
0.0
  0
SOLID
  5
18E
330
62
100
AcDbEntity
  8
TopLayer
100
AcDbTrace
 10
-5.34999946
 20
2.10000088
 30
0.0
 11
-5.34999946
 21
2.40000028
 31
0.0
 12
-5.849998459999999
 22
2.10000088
 32
0.0
 13
-5.849998459999999
 23
2.40000028
 33
0.0
  0
SOLID
  5
18F
330
62
100
AcDbEntity
  8
TopPaste
100
AcDbTrace
 10
-5.34999946
 20
2.60000242
 30
0.0
 11
-5.34999946
 21
2.90000182
 31
0.0
 12
-5.849998459999999
 22
2.60000242
 32
0.0
 13
-5.849998459999999
 23
2.90000182
 33
0.0
  0
SOLID
  5
190
330
62
100
AcDbEntity
  8
TopSolder
100
AcDbTrace
 10
-5.29919946
 20
2.54920242
 30
0.0
 11
-5.29919946
 21
2.95080182
 31
0.0
 12
-5.90079846
 22
2.54920242
 32
0.0
 13
-5.90079846
 23
2.95080182
 33
0.0
  0
SOLID
  5
191
330
62
100
AcDbEntity
  8
TopLayer
100
AcDbTrace
 10
-5.34999946
 20
2.60000242
 30
0.0
 11
-5.34999946
 21
2.90000182
 31
0.0
 12
-5.849998459999999
 22
2.60000242
 32
0.0
 13
-5.849998459999999
 23
2.90000182
 33
0.0
  0
SOLID
  5
192
330
62
100
AcDbEntity
  8
TopPaste
100
AcDbTrace
 10
-5.34999946
 20
3.10000142
 30
0.0
 11
-5.34999946
 21
3.40000082
 31
0.0
 12
-5.849998459999999
 22
3.10000142
 32
0.0
 13
-5.849998459999999
 23
3.40000082
 33
0.0
  0
SOLID
  5
193
330
62
100
AcDbEntity
  8
TopSolder
100
AcDbTrace
 10
-5.29919946
 20
3.04920142
 30
0.0
 11
-5.29919946
 21
3.45080082
 31
0.0
 12
-5.90079846
 22
3.04920142
 32
0.0
 13
-5.90079846
 23
3.45080082
 33
0.0
  0
SOLID
  5
194
330
62
100
AcDbEntity
  8
TopLayer
100
AcDbTrace
 10
-5.34999946
 20
3.10000142
 30
0.0
 11
-5.34999946
 21
3.40000082
 31
0.0
 12
-5.849998459999999
 22
3.10000142
 32
0.0
 13
-5.849998459999999
 23
3.40000082
 33
0.0
  0
SOLID
  5
195
330
62
100
AcDbEntity
  8
TopPaste
100
AcDbTrace
 10
-5.34999946
 20
3.60000296
 30
0.0
 11
-5.34999946
 21
3.90000236
 31
0.0
 12
-5.849998459999999
 22
3.60000296
 32
0.0
 13
-5.849998459999999
 23
3.90000236
 33
0.0
  0
SOLID
  5
196
330
62
100
AcDbEntity
  8
TopSolder
100
AcDbTrace
 10
-5.29919946
 20
3.54920296
 30
0.0
 11
-5.29919946
 21
3.95080236
 31
0.0
 12
-5.90079846
 22
3.54920296
 32
0.0
 13
-5.90079846
 23
3.95080236
 33
0.0
  0
SOLID
  5
197
330
62
100
AcDbEntity
  8
TopLayer
100
AcDbTrace
 10
-5.34999946
 20
3.60000296
 30
0.0
 11
-5.34999946
 21
3.90000236
 31
0.0
 12
-5.849998459999999
 22
3.60000296
 32
0.0
 13
-5.849998459999999
 23
3.90000236
 33
0.0
  0
SOLID
  5
198
330
62
100
AcDbEntity
  8
TopPaste
100
AcDbTrace
 10
-5.34999946
 20
4.100001959999999
 30
0.0
 11
-5.34999946
 21
4.40000136
 31
0.0
 12
-5.849998459999999
 22
4.100001959999999
 32
0.0
 13
-5.849998459999999
 23
4.40000136
 33
0.0
  0
SOLID
  5
199
330
62
100
AcDbEntity
  8
TopSolder
100
AcDbTrace
 10
-5.29919946
 20
4.04920196
 30
0.0
 11
-5.29919946
 21
4.45080136
 31
0.0
 12
-5.90079846
 22
4.04920196
 32
0.0
 13
-5.90079846
 23
4.45080136
 33
0.0
  0
SOLID
  5
19A
330
62
100
AcDbEntity
  8
TopLayer
100
AcDbTrace
 10
-5.34999946
 20
4.100001959999999
 30
0.0
 11
-5.34999946
 21
4.40000136
 31
0.0
 12
-5.849998459999999
 22
4.100001959999999
 32
0.0
 13
-5.849998459999999
 23
4.40000136
 33
0.0
  0
SOLID
  5
19B
330
62
100
AcDbEntity
  8
TopPaste
100
AcDbTrace
 10
-5.34999946
 20
4.60000096
 30
0.0
 11
-5.34999946
 21
4.90000036
 31
0.0
 12
-5.849998459999999
 22
4.60000096
 32
0.0
 13
-5.849998459999999
 23
4.90000036
 33
0.0
  0
SOLID
  5
19C
330
62
100
AcDbEntity
  8
TopSolder
100
AcDbTrace
 10
-5.29919946
 20
4.549200959999999
 30
0.0
 11
-5.29919946
 21
4.95080036
 31
0.0
 12
-5.90079846
 22
4.549200959999999
 32
0.0
 13
-5.90079846
 23
4.95080036
 33
0.0
  0
SOLID
  5
19D
330
62
100
AcDbEntity
  8
TopLayer
100
AcDbTrace
 10
-5.34999946
 20
4.60000096
 30
0.0
 11
-5.34999946
 21
4.90000036
 31
0.0
 12
-5.849998459999999
 22
4.60000096
 32
0.0
 13
-5.849998459999999
 23
4.90000036
 33
0.0
  0
SOLID
  5
19E
330
62
100
AcDbEntity
  8
TopPaste
100
AcDbTrace
 10
-5.34999946
 20
5.1000025
 30
0.0
 11
-5.34999946
 21
5.400001899999999
 31
0.0
 12
-5.849998459999999
 22
5.1000025
 32
0.0
 13
-5.849998459999999
 23
5.400001899999999
 33
0.0
  0
SOLID
  5
19F
330
62
100
AcDbEntity
  8
TopSolder
100
AcDbTrace
 10
-5.29919946
 20
5.0492025
 30
0.0
 11
-5.29919946
 21
5.450801899999999
 31
0.0
 12
-5.90079846
 22
5.0492025
 32
0.0
 13
-5.90079846
 23
5.450801899999999
 33
0.0
  0
SOLID
  5
1A0
330
62
100
AcDbEntity
  8
TopLayer
100
AcDbTrace
 10
-5.34999946
 20
5.1000025
 30
0.0
 11
-5.34999946
 21
5.400001899999999
 31
0.0
 12
-5.849998459999999
 22
5.1000025
 32
0.0
 13
-5.849998459999999
 23
5.400001899999999
 33
0.0
  0
SOLID
  5
1A1
330
62
100
AcDbEntity
  8
TopPaste
100
AcDbTrace
 10
-5.34999946
 20
5.600001499999999
 30
0.0
 11
-5.34999946
 21
5.900000899999999
 31
0.0
 12
-5.849998459999999
 22
5.600001499999999
 32
0.0
 13
-5.849998459999999
 23
5.900000899999999
 33
0.0
  0
SOLID
  5
1A2
330
62
100
AcDbEntity
  8
TopSolder
100
AcDbTrace
 10
-5.29919946
 20
5.5492015
 30
0.0
 11
-5.29919946
 21
5.9508009
 31
0.0
 12
-5.90079846
 22
5.5492015
 32
0.0
 13
-5.90079846
 23
5.9508009
 33
0.0
  0
SOLID
  5
1A3
330
62
100
AcDbEntity
  8
TopLayer
100
AcDbTrace
 10
-5.34999946
 20
5.600001499999999
 30
0.0
 11
-5.34999946
 21
5.900000899999999
 31
0.0
 12
-5.849998459999999
 22
5.600001499999999
 32
0.0
 13
-5.849998459999999
 23
5.900000899999999
 33
0.0
  0
SOLID
  5
1A4
330
62
100
AcDbEntity
  8
TopPaste
100
AcDbTrace
 10
-5.34999946
 20
6.10000304
 30
0.0
 11
-5.34999946
 21
6.40000244
 31
0.0
 12
-5.849998459999999
 22
6.10000304
 32
0.0
 13
-5.849998459999999
 23
6.40000244
 33
0.0
  0
SOLID
  5
1A5
330
62
100
AcDbEntity
  8
TopSolder
100
AcDbTrace
 10
-5.29919946
 20
6.049203039999999
 30
0.0
 11
-5.29919946
 21
6.450802439999999
 31
0.0
 12
-5.90079846
 22
6.049203039999999
 32
0.0
 13
-5.90079846
 23
6.450802439999999
 33
0.0
  0
SOLID
  5
1A6
330
62
100
AcDbEntity
  8
TopLayer
100
AcDbTrace
 10
-5.34999946
 20
6.10000304
 30
0.0
 11
-5.34999946
 21
6.40000244
 31
0.0
 12
-5.849998459999999
 22
6.10000304
 32
0.0
 13
-5.849998459999999
 23
6.40000244
 33
0.0
  0
SOLID
  5
1A7
330
62
100
AcDbEntity
  8
TopPaste
100
AcDbTrace
 10
4.90000036
 20
7.849999540000001
 30
0.0
 11
4.60000096
 21
7.849999540000001
 31
0.0
 12
4.90000036
 22
7.35000054
 32
0.0
 13
4.60000096
 23
7.35000054
 33
0.0
  0
SOLID
  5
1A8
330
62
100
AcDbEntity
  8
TopSolder
100
AcDbTrace
 10
4.95080036
 20
7.900799539999999
 30
0.0
 11
4.549200959999999
 21
7.900799539999999
 31
0.0
 12
4.95080036
 22
7.29920054
 32
0.0
 13
4.549200959999999
 23
7.29920054
 33
0.0
  0
SOLID
  5
1A9
330
62
100
AcDbEntity
  8
TopLayer
100
AcDbTrace
 10
4.90000036
 20
7.849999540000001
 30
0.0
 11
4.60000096
 21
7.849999540000001
 31
0.0
 12
4.90000036
 22
7.35000054
 32
0.0
 13
4.60000096
 23
7.35000054
 33
0.0
  0
SOLID
  5
1AA
330
62
100
AcDbEntity
  8
TopPaste
100
AcDbTrace
 10
5.149999859999999
 20
7.15000094
 30
0.0
 11
5.849998459999999
 21
7.15000094
 31
0.0
 12
5.149999859999999
 22
7.849999540000001
 32
0.0
 13
5.849998459999999
 23
7.849999540000001
 33
0.0
  0
SOLID
  5
1AB
330
62
100
AcDbEntity
  8
TopSolder
100
AcDbTrace
 10
5.09919986
 20
7.09920094
 30
0.0
 11
5.90079846
 21
7.09920094
 31
0.0
 12
5.09919986
 22
7.900799539999999
 32
0.0
 13
5.90079846
 23
7.900799539999999
 33
0.0
  0
SOLID
  5
1AC
330
62
100
AcDbEntity
  8
TopLayer
100
AcDbTrace
 10
5.149999859999999
 20
7.15000094
 30
0.0
 11
5.849998459999999
 21
7.15000094
 31
0.0
 12
5.149999859999999
 22
7.849999540000001
 32
0.0
 13
5.849998459999999
 23
7.849999540000001
 33
0.0
  0
SOLID
  5
1AD
330
62
100
AcDbEntity
  8
TopPaste
100
AcDbTrace
 10
5.849998459999999
 20
6.599999499999999
 30
0.0
 11
5.849998459999999
 21
6.899998899999999
 31
0.0
 12
5.34999946
 22
6.599999499999999
 32
0.0
 13
5.34999946
 23
6.899998899999999
 33
0.0
  0
SOLID
  5
1AE
330
62
100
AcDbEntity
  8
TopSolder
100
AcDbTrace
 10
5.90079846
 20
6.549199499999999
 30
0.0
 11
5.90079846
 21
6.9507989
 31
0.0
 12
5.29919946
 22
6.549199499999999
 32
0.0
 13
5.29919946
 23
6.9507989
 33
0.0
  0
SOLID
  5
1AF
330
62
100
AcDbEntity
  8
TopLayer
100
AcDbTrace
 10
5.849998459999999
 20
6.599999499999999
 30
0.0
 11
5.849998459999999
 21
6.899998899999999
 31
0.0
 12
5.34999946
 22
6.599999499999999
 32
0.0
 13
5.34999946
 23
6.899998899999999
 33
0.0
  0
SOLID
  5
1B0
330
62
100
AcDbEntity
  8
TopPaste
100
AcDbTrace
 10
-5.34999946
 20
6.600002039999999
 30
0.0
 11
-5.34999946
 21
6.90000144
 31
0.0
 12
-5.849998459999999
 22
6.600002039999999
 32
0.0
 13
-5.849998459999999
 23
6.90000144
 33
0.0
  0
SOLID
  5
1B1
330
62
100
AcDbEntity
  8
TopSolder
100
AcDbTrace
 10
-5.29919946
 20
6.549202039999999
 30
0.0
 11
-5.29919946
 21
6.950801439999999
 31
0.0
 12
-5.90079846
 22
6.549202039999999
 32
0.0
 13
-5.90079846
 23
6.950801439999999
 33
0.0
  0
SOLID
  5
1B2
330
62
100
AcDbEntity
  8
TopLayer
100
AcDbTrace
 10
-5.34999946
 20
6.600002039999999
 30
0.0
 11
-5.34999946
 21
6.90000144
 31
0.0
 12
-5.849998459999999
 22
6.600002039999999
 32
0.0
 13
-5.849998459999999
 23
6.90000144
 33
0.0
  0
SOLID
  5
1B3
330
62
100
AcDbEntity
  8
TopPaste
100
AcDbTrace
 10
-5.149999859999999
 20
7.850002079999999
 30
0.0
 11
-5.849998459999999
 21
7.850002079999999
 31
0.0
 12
-5.149999859999999
 22
7.150003479999999
 32
0.0
 13
-5.849998459999999
 23
7.150003479999999
 33
0.0
  0
SOLID
  5
1B4
330
62
100
AcDbEntity
  8
TopSolder
100
AcDbTrace
 10
-5.09919986
 20
7.900802079999999
 30
0.0
 11
-5.90079846
 21
7.900802079999999
 31
0.0
 12
-5.09919986
 22
7.099203479999999
 32
0.0
 13
-5.90079846
 23
7.099203479999999
 33
0.0
  0
SOLID
  5
1B5
330
62
100
AcDbEntity
  8
TopLayer
100
AcDbTrace
 10
-5.149999859999999
 20
7.850002079999999
 30
0.0
 11
-5.849998459999999
 21
7.850002079999999
 31
0.0
 12
-5.149999859999999
 22
7.150003479999999
 32
0.0
 13
-5.849998459999999
 23
7.150003479999999
 33
0.0
  0
ENDBLK
  5
1BA
330
62
100
AcDbEntity
  8
0
100
AcDbBlockEnd
  0
ENDSEC
  0
SECTION
  2
ENTITIES
  0
INSERT
  5
1B6
330
1F
100
AcDbEntity
  8
0
100
AcDbBlockReference
  2
L______LWB6___LWB6__M_______P________S____1
 10
45.15905369999999
 20
68.96845744
 30
0.0
  0
TEXT
  5
1B8
330
1F
100
AcDbEntity
  8
TopOverlay
100
AcDbText
 10
37.9045851
 20
78.6456517
 30
0.0
 40
0.889
  1
Sona IF573_PCB_Footprint
  7
Arial
100
AcDbText
  0
ENDSEC
  0
SECTION
  2
OBJECTS
  0
DICTIONARY
  5
C
330
0
100
AcDbDictionary
281
     1
  3
ACAD_DETAILVIEWSTYLE
350
1C2
  3
ACAD_GROUP
350
D
  3
ACAD_LAYOUT
350
1A
  3
ACAD_MATERIAL
350
43
  3
ACAD_MLEADERSTYLE
350
5B
  3
ACAD_MLINESTYLE
350
17
  3
ACAD_PLOTSETTINGS
350
19
  3
ACAD_PLOTSTYLENAME
350
E
  3
ACAD_SCALELIST
350
47
  3
ACAD_SECTIONVIEWSTYLE
350
1C3
  3
ACAD_TABLESTYLE
350
59
  3
ACAD_VISUALSTYLE
350
2A
  3
ACDB_RECOMPOSE_DATA
350
1BF
  3
AcDbVariableDictionary
350
1BB
  0
SUN
  5
5D
330
29
100
AcDbSun
 90
        1
290
     0
 63
     7
421
 16777215
 40
1.0
291
     1
 91
  2455826
 92
 54000000
292
     0
 70
     2
 71
   256
280
     1
  0
DICTIONARY
  5
1C2
102
{ACAD_REACTORS
330
C
102
}
330
C
100
AcDbDictionary
281
     1
  0
DICTIONARY
  5
D
102
{ACAD_REACTORS
330
C
102
}
330
C
100
AcDbDictionary
281
     1
  0
DICTIONARY
  5
1A
102
{ACAD_REACTORS
330
C
102
}
330
C
100
AcDbDictionary
281
     1
  3
Layout1
350
1E
  3
Layout2
350
26
  3
Model
350
22
  0
DICTIONARY
  5
43
102
{ACAD_REACTORS
330
C
102
}
330
C
100
AcDbDictionary
281
     1
  3
ByBlock
350
45
  3
ByLayer
350
44
  3
Global
350
46
  0
DICTIONARY
  5
5B
102
{ACAD_REACTORS
330
C
102
}
330
C
100
AcDbDictionary
281
     1
  3
Standard
350
5C
  0
DICTIONARY
  5
17
102
{ACAD_REACTORS
330
C
102
}
330
C
100
AcDbDictionary
281
     1
  3
Standard
350
18
  0
DICTIONARY
  5
19
102
{ACAD_REACTORS
330
C
102
}
330
C
100
AcDbDictionary
281
     1
  0
ACDBDICTIONARYWDFLT
  5
E
102
{ACAD_REACTORS
330
C
102
}
330
C
100
AcDbDictionary
281
     1
  3
Normal
350
F
100
AcDbDictionaryWithDefault
340
F
  0
DICTIONARY
  5
47
102
{ACAD_REACTORS
330
C
102
}
330
C
100
AcDbDictionary
281
     1
  3
A0
350
48
  3
A1
350
49
  3
A2
350
4A
  3
A3
350
4B
  3
A4
350
4C
  3
A5
350
4D
  3
A6
350
4E
  3
A7
350
4F
  3
A8
350
50
  3
A9
350
51
  3
B1
350
52
  3
B2
350
53
  3
B3
350
54
  3
B4
350
55
  3
B5
350
56
  3
B6
350
57
  3
B7
350
58
  0
DICTIONARY
  5
1C3
102
{ACAD_REACTORS
330
C
102
}
330
C
100
AcDbDictionary
281
     1
  0
DICTIONARY
  5
59
102
{ACAD_REACTORS
330
C
102
}
330
C
100
AcDbDictionary
281
     1
  3
Standard
350
5A
  0
DICTIONARY
  5
2A
102
{ACAD_REACTORS
330
C
102
}
330
C
100
AcDbDictionary
281
     1
  3
2dWireframe
350
2F
  3
Basic
350
32
  3
Brighten
350
36
  3
ColorChange
350
3A
  3
Conceptual
350
34
  3
Dim
350
35
  3
EdgeColorOff
350
3D
  3
Facepattern
350
39
  3
Flat
350
2B
  3
FlatWithEdges
350
2C
  3
Gouraud
350
2D
  3
GouraudWithEdges
350
2E
  3
Hidden
350
31
  3
JitterOff
350
3B
  3
Linepattern
350
38
  3
OverhangOff
350
3C
  3
Realistic
350
33
  3
Shaded
350
42
  3
Shaded with edges
350
41
  3
Shades of Gray
350
3E
  3
Sketchy
350
3F
  3
Thicken
350
37
  3
Wireframe
350
30
  3
X-Ray
350
40
  0
XRECORD
  5
1BF
102
{ACAD_REACTORS
330
C
102
}
330
C
100
AcDbXrecord
280
     1
 90
        1
330
5A
  0
DICTIONARY
  5
1BB
102
{ACAD_REACTORS
330
C
102
}
330
C
100
AcDbDictionary
281
     1
  3
CANNOSCALE
350
1BC
  3
CMLEADERSTYLE
350
1C1
  3
CTABLESTYLE
350
1C0
  0
LAYOUT
  5
1E
102
{ACAD_REACTORS
330
1A
102
}
330
1A
100
AcDbPlotSettings
  1

  2
none_device
  4

  6

 40
0.0
 41
0.0
 42
0.0
 43
0.0
 44
0.0
 45
0.0
 46
0.0
 47
0.0
 48
0.0
 49
0.0
140
0.0
141
0.0
142
1.0
143
1.0
 70
   688
 72
     0
 73
     0
 74
     5
  7

 75
    16
 76
     0
 77
     2
 78
   300
147
1.0
148
0.0
149
0.0
100
AcDbLayout
  1
Layout1
 70
     1
 71
     1
 10
0.0
 20
0.0
 11
12.0
 21
9.0
 12
0.0
 22
0.0
 32
0.0
 14
1.000000000000000E+20
 24
1.000000000000000E+20
 34
1.000000000000000E+20
 15
-1.000000000000000E+20
 25
-1.000000000000000E+20
 35
-1.000000000000000E+20
146
0.0
 13
0.0
 23
0.0
 33
0.0
 16
1.0
 26
0.0
 36
0.0
 17
0.0
 27
1.0
 37
0.0
 76
     0
330
1B
  0
LAYOUT
  5
26
102
{ACAD_REACTORS
330
1A
102
}
330
1A
100
AcDbPlotSettings
  1

  2
none_device
  4

  6

 40
0.0
 41
0.0
 42
0.0
 43
0.0
 44
0.0
 45
0.0
 46
0.0
 47
0.0
 48
0.0
 49
0.0
140
0.0
141
0.0
142
1.0
143
1.0
 70
   688
 72
     0
 73
     0
 74
     5
  7

 75
    16
 76
     0
 77
     2
 78
   300
147
1.0
148
0.0
149
0.0
100
AcDbLayout
  1
Layout2
 70
     1
 71
     2
 10
0.0
 20
0.0
 11
0.0
 21
0.0
 12
0.0
 22
0.0
 32
0.0
 14
0.0
 24
0.0
 34
0.0
 15
0.0
 25
0.0
 35
0.0
146
0.0
 13
0.0
 23
0.0
 33
0.0
 16
1.0
 26
0.0
 36
0.0
 17
0.0
 27
1.0
 37
0.0
 76
     0
330
23
  0
LAYOUT
  5
22
102
{ACAD_REACTORS
330
1A
102
}
330
1A
100
AcDbPlotSettings
  1

  2
none_device
  4
Letter_(8.50_x_11.00_Inches)
  6

 40
6.35
 41
6.35
 42
6.35000508
 43
6.35000508
 44
215.9
 45
279.4
 46
0.0
 47
0.0
 48
0.0
 49
0.0
140
0.0
141
0.0
142
1.0
143
1.0
 70
  1712
 72
     0
 73
     0
 74
     0
  7

 75
     0
 76
     0
 77
     2
 78
   300
147
1.0
148
0.0
149
0.0
100
AcDbLayout
  1
Model
 70
     1
 71
     0
 10
37.84329744
 20
57.11943872
 11
69.95192512
 21
79.62758521999999
 12
0.0
 22
0.0
 32
0.0
 14
1.000000000000000E+20
 24
1.000000000000000E+20
 34
1.000000000000000E+20
 15
-1.000000000000000E+20
 25
-1.000000000000000E+20
 35
-1.000000000000000E+20
146
0.0
 13
0.0
 23
0.0
 33
0.0
 16
1.0
 26
0.0
 36
0.0
 17
0.0
 27
1.0
 37
0.0
 76
     0
330
1F
331
29
  0
MATERIAL
  5
45
102
{ACAD_REACTORS
330
43
102
}
330
43
100
AcDbMaterial
  1
ByBlock
 72
     1
 94
      127
  0
MATERIAL
  5
44
102
{ACAD_REACTORS
330
43
102
}
330
43
100
AcDbMaterial
  1
ByLayer
 72
     1
 94
      127
  0
MATERIAL
  5
46
102
{ACAD_REACTORS
330
43
102
}
330
43
100
AcDbMaterial
  1
Global
 72
     1
 94
      127
  0
MLEADERSTYLE
  5
5C
102
{ACAD_REACTORS
330
5B
102
}
330
5B
100
AcDbMLeaderStyle
179
     2
170
     2
171
     1
172
     0
 90
        2
 40
0.0
 41
0.0
173
     1
 91
-1056964608
340
14
 92
       -2
290
     1
 42
0.09
291
     1
 43
0.36
  3
Standard
341
0
 44
0.18
300

342
11
174
     1
178
     6
175
     1
176
     0
 93
-1056964608
 45
0.18
292
     0
297
     0
 46
0.18
343
0
 94
-1056964608
 47
1.0
 49
1.0
140
1.0
293
     1
141
0.0
294
     1
177
     0
142
1.0
295
     0
296
     0
143
0.125
271
     0
272
     9
273
     9
298
     0
  0
MLINESTYLE
  5
18
102
{ACAD_REACTORS
330
17
102
}
330
17
100
AcDbMlineStyle
  2
Standard
 70
     0
  3

 62
   256
 51
90.0
 52
90.0
 71
     2
 49
0.5
 62
   256
  6
BYLAYER
 49
-0.5
 62
   256
  6
BYLAYER
  0
ACDBPLACEHOLDER
  5
F
102
{ACAD_REACTORS
330
E
102
}
330
E
  0
SCALE
  5
48
102
{ACAD_REACTORS
330
47
102
}
330
47
100
AcDbScale
 70
     0
300
1:1
140
1.0
141
1.0
290
     1
  0
SCALE
  5
49
102
{ACAD_REACTORS
330
47
102
}
330
47
100
AcDbScale
 70
     0
300
1/128" = 1'-0"
140
0.0078125
141
12.0
290
     0
  0
SCALE
  5
4A
102
{ACAD_REACTORS
330
47
102
}
330
47
100
AcDbScale
 70
     0
300
1/64" = 1'-0"
140
0.015625
141
12.0
290
     0
  0
SCALE
  5
4B
102
{ACAD_REACTORS
330
47
102
}
330
47
100
AcDbScale
 70
     0
300
1/32" = 1'-0"
140
0.03125
141
12.0
290
     0
  0
SCALE
  5
4C
102
{ACAD_REACTORS
330
47
102
}
330
47
100
AcDbScale
 70
     0
300
1/16" = 1'-0"
140
0.0625
141
12.0
290
     0
  0
SCALE
  5
4D
102
{ACAD_REACTORS
330
47
102
}
330
47
100
AcDbScale
 70
     0
300
3/32" = 1'-0"
140
0.09375
141
12.0
290
     0
  0
SCALE
  5
4E
102
{ACAD_REACTORS
330
47
102
}
330
47
100
AcDbScale
 70
     0
300
1/8" = 1'-0"
140
0.125
141
12.0
290
     0
  0
SCALE
  5
4F
102
{ACAD_REACTORS
330
47
102
}
330
47
100
AcDbScale
 70
     0
300
3/16" = 1'-0"
140
0.1875
141
12.0
290
     0
  0
SCALE
  5
50
102
{ACAD_REACTORS
330
47
102
}
330
47
100
AcDbScale
 70
     0
300
1/4" = 1'-0"
140
0.25
141
12.0
290
     0
  0
SCALE
  5
51
102
{ACAD_REACTORS
330
47
102
}
330
47
100
AcDbScale
 70
     0
300
3/8" = 1'-0"
140
0.375
141
12.0
290
     0
  0
SCALE
  5
52
102
{ACAD_REACTORS
330
47
102
}
330
47
100
AcDbScale
 70
     0
300
1/2" = 1'-0"
140
0.5
141
12.0
290
     0
  0
SCALE
  5
53
102
{ACAD_REACTORS
330
47
102
}
330
47
100
AcDbScale
 70
     0
300
3/4" = 1'-0"
140
0.75
141
12.0
290
     0
  0
SCALE
  5
54
102
{ACAD_REACTORS
330
47
102
}
330
47
100
AcDbScale
 70
     0
300
1" = 1'-0"
140
1.0
141
12.0
290
     0
  0
SCALE
  5
55
102
{ACAD_REACTORS
330
47
102
}
330
47
100
AcDbScale
 70
     0
300
1-1/2" = 1'-0"
140
1.5
141
12.0
290
     0
  0
SCALE
  5
56
102
{ACAD_REACTORS
330
47
102
}
330
47
100
AcDbScale
 70
     0
300
3" = 1'-0"
140
3.0
141
12.0
290
     0
  0
SCALE
  5
57
102
{ACAD_REACTORS
330
47
102
}
330
47
100
AcDbScale
 70
     0
300
6" = 1'-0"
140
6.0
141
12.0
290
     0
  0
SCALE
  5
58
102
{ACAD_REACTORS
330
47
102
}
330
47
100
AcDbScale
 70
     0
300
1'-0" = 1'-0"
140
12.0
141
12.0
290
     0
  0
TABLESTYLE
  5
5A
102
{ACAD_REACTORS
330
59
102
}
102
{ACAD_XDICTIONARY
360
1BD
102
}
330
59
100
AcDbTableStyle
  3
Standard
 70
     0
 71
     0
 40
0.06
 41
0.06
280
     0
281
     0
  7
Standard
140
0.18
170
     2
 62
     0
 63
   257
283
     0
 90
        4
 91
        0
  1

274
    -2
284
     1
 64
     0
275
    -2
285
     1
 65
     0
276
    -2
286
     1
 66
     0
277
    -2
287
     1
 67
     0
278
    -2
288
     1
 68
     0
279
    -2
289
     1
 69
     0
  7
Standard
140
0.25
170
     5
 62
     0
 63
   257
283
     0
 90
        4
 91
        0
  1

274
    -2
284
     1
 64
     0
275
    -2
285
     1
 65
     0
276
    -2
286
     1
 66
     0
277
    -2
287
     1
 67
     0
278
    -2
288
     1
 68
     0
279
    -2
289
     1
 69
     0
  7
Standard
140
0.18
170
     5
 62
     0
 63
   257
283
     0
 90
        4
 91
        0
  1

274
    -2
284
     1
 64
     0
275
    -2
285
     1
 65
     0
276
    -2
286
     1
 66
     0
277
    -2
287
     1
 67
     0
278
    -2
288
     1
 68
     0
279
    -2
289
     1
 69
     0
  0
VISUALSTYLE
  5
2F
102
{ACAD_REACTORS
330
2A
102
}
330
2A
100
AcDbVisualStyle
  2
2dWireframe
 70
     4
177
     3
291
     0
 70
    58
 90
        0
176
     1
 90
        2
176
     1
 90
        0
176
     1
 90
        0
176
     1
 40
0.6
176
     1
 40
30.0
176
     1
 62
     7
420
 16777215
176
     1
 90
        1
176
     1
 90
        4
176
     1
 62
     7
176
     1
 62
   257
176
     1
 90
        1
176
     1
 90
        1
176
     1
 40
1.0
176
     1
 90
        0
176
     1
 62
   257
176
     1
 40
1.0
176
     1
 90
        1
176
     1
 90
        6
176
     1
 90
        2
176
     1
 62
     7
176
     1
 90
        5
176
     1
 90
        0
176
     1
 90
        0
176
     1
290
     0
176
     1
 90
        1
176
     1
 40
0.0
176
     1
 90
        0
176
     1
290
     1
176
     1
290
     1
176
     1
290
     0
176
     1
290
     0
176
     1
290
     0
176
     1
290
     0
176
     1
290
     0
176
     1
290
     0
176
     1
290
     0
176
     1
 90
       50
176
     1
 40
0.0
176
     1
 40
1.0
176
     1
 90
        0
176
     1
 62
    18
420
        0
176
     1
 90
       50
176
     1
 90
        3
176
     1
 62
     5
420
      255
176
     1
290
     0
176
     1
 90
       50
176
     1
 90
       50
176
     1
 90
       50
176
     1
290
     0
176
     1
 90
       50
176
     1
 62
   256
176
     0
 40
1.0
176
     0
 90
        2
176
     1
  1
strokes_ogs.tif
176
     1
290
     0
176
     1
 40
1.0
176
     1
 40
1.0
176
     1
  0
VISUALSTYLE
  5
32
102
{ACAD_REACTORS
330
2A
102
}
330
2A
100
AcDbVisualStyle
  2
Basic
 70
     7
177
     3
291
     1
 70
    58
 90
        1
176
     1
 90
        0
176
     1
 90
        1
176
     1
 90
        0
176
     1
 40
0.6
176
     1
 40
30.0
176
     1
 62
     7
420
 16777215
176
     1
 90
        0
176
     1
 90
        4
176
     1
 62
     7
176
     1
 62
   257
176
     1
 90
        1
176
     1
 90
        1
176
     1
 40
1.0
176
     1
 90
        8
176
     1
 62
     7
176
     1
 40
1.0
176
     1
 90
        1
176
     1
 90
        6
176
     1
 90
        2
176
     1
 62
     7
176
     1
 90
        5
176
     1
 90
        0
176
     1
 90
        0
176
     1
290
     0
176
     1
 90
        1
176
     1
 40
0.0
176
     1
 90
        0
176
     1
290
     0
176
     1
290
     1
176
     1
290
     1
176
     1
290
     0
176
     1
290
     0
176
     1
290
     0
176
     1
290
     0
176
     1
290
     0
176
     1
290
     0
176
     1
 90
       50
176
     1
 40
0.0
176
     1
 40
1.0
176
     1
 90
        0
176
     1
 62
    18
420
        0
176
     1
 90
       50
176
     1
 90
        3
176
     1
 62
     5
420
      255
176
     1
290
     0
176
     1
 90
       50
176
     1
 90
       50
176
     1
 90
       50
176
     1
290
     0
176
     1
 90
       50
176
     1
 62
   256
176
     0
 40
1.0
176
     0
 90
        2
176
     1
  1
strokes_ogs.tif
176
     1
290
     0
176
     1
 40
1.0
176
     1
 40
1.0
176
     1
  0
VISUALSTYLE
  5
36
102
{ACAD_REACTORS
330
2A
102
}
330
2A
100
AcDbVisualStyle
  2
Brighten
 70
    12
177
     3
291
     1
 70
    58
 90
        2
176
     1
 90
        2
176
     1
 90
        0
176
     1
 90
        0
176
     1
 40
0.6
176
     1
 40
30.0
176
     1
 62
     7
420
 16777215
176
     1
 90
        1
176
     1
 90
        4
176
     1
 62
     7
176
     1
 62
   257
176
     1
 90
        1
176
     1
 90
        1
176
     1
 40
1.0
176
     1
 90
        8
176
     1
 62
     7
176
     1
 40
1.0
176
     1
 90
        1
176
     1
 90
        6
176
     1
 90
        2
176
     1
 62
     7
176
     1
 90
        5
176
     1
 90
        0
176
     1
 90
        0
176
     1
290
     0
176
     1
 90
        1
176
     1
 40
50.0
176
     1
 90
        0
176
     1
290
     0
176
     1
290
     1
176
     1
290
     1
176
     1
290
     0
176
     1
290
     0
176
     1
290
     0
176
     1
290
     0
176
     1
290
     0
176
     1
290
     0
176
     1
 90
       50
176
     1
 40
0.0
176
     1
 40
1.0
176
     1
 90
        0
176
     1
 62
    18
420
        0
176
     1
 90
       50
176
     1
 90
        3
176
     1
 62
     5
420
      255
176
     1
290
     0
176
     1
 90
       50
176
     1
 90
       50
176
     1
 90
       50
176
     1
290
     0
176
     1
 90
       50
176
     1
 62
   256
176
     0
 40
1.0
176
     0
 90
        2
176
     1
  1
strokes_ogs.tif
176
     1
290
     0
176
     1
 40
1.0
176
     1
 40
1.0
176
     1
  0
VISUALSTYLE
  5
3A
102
{ACAD_REACTORS
330
2A
102
}
330
2A
100
AcDbVisualStyle
  2
ColorChange
 70
    16
177
     3
291
     1
 70
    58
 90
        2
176
     1
 90
        2
176
     1
 90
        3
176
     1
 90
        0
176
     1
 40
0.6
176
     1
 40
30.0
176
     1
 62
     8
420
  8421504
176
     1
 90
        1
176
     1
 90
        4
176
     1
 62
     7
176
     1
 62
   257
176
     1
 90
        1
176
     1
 90
        1
176
     1
 40
1.0
176
     1
 90
        8
176
     1
 62
     8
420
  8421504
176
     1
 40
1.0
176
     1
 90
        1
176
     1
 90
        6
176
     1
 90
        2
176
     1
 62
     7
176
     1
 90
        5
176
     1
 90
        0
176
     1
 90
        0
176
     1
290
     0
176
     1
 90
        1
176
     1
 40
0.0
176
     1
 90
        0
176
     1
290
     0
176
     1
290
     1
176
     1
290
     1
176
     1
290
     0
176
     1
290
     0
176
     1
290
     0
176
     1
290
     0
176
     1
290
     0
176
     1
290
     0
176
     1
 90
       50
176
     1
 40
0.0
176
     1
 40
1.0
176
     1
 90
        0
176
     1
 62
    18
420
        0
176
     1
 90
       50
176
     1
 90
        3
176
     1
 62
     5
420
      255
176
     1
290
     0
176
     1
 90
       50
176
     1
 90
       50
176
     1
 90
       50
176
     1
290
     0
176
     1
 90
       50
176
     1
 62
   256
176
     0
 40
1.0
176
     0
 90
        2
176
     1
  1
strokes_ogs.tif
176
     1
290
     0
176
     1
 40
1.0
176
     1
 40
1.0
176
     1
  0
VISUALSTYLE
  5
34
102
{ACAD_REACTORS
330
2A
102
}
330
2A
100
AcDbVisualStyle
  2
Conceptual
 70
     9
177
     3
291
     0
 70
    58
 90
        3
176
     1
 90
        2
176
     1
 90
        0
176
     1
 90
        0
176
     1
 40
0.6
176
     1
 40
30.0
176
     1
 62
     7
420
 16777215
176
     1
 90
        2
176
     1
 90
        2
176
     1
 62
     7
176
     1
 62
   257
176
     1
 90
        1
176
     1
 90
        1
176
     1
 40
179.0
176
     1
 90
        8
176
     1
 62
     7
176
     1
 40
1.0
176
     1
 90
        1
176
     1
 90
        6
176
     1
 90
        2
176
     1
 62
     7
176
     1
 90
        3
176
     1
 90
        0
176
     1
 90
        0
176
     1
290
     0
176
     1
 90
        1
176
     1
 40
0.0
176
     1
 90
        0
176
     1
290
     0
176
     1
290
     1
176
     1
290
     1
176
     1
290
     0
176
     1
290
     0
176
     1
290
     0
176
     1
290
     0
176
     1
290
     0
176
     1
290
     0
176
     1
 90
       50
176
     1
 40
0.0
176
     1
 40
1.0
176
     1
 90
        0
176
     1
 62
    18
420
        0
176
     1
 90
       50
176
     1
 90
        3
176
     1
 62
     5
420
      255
176
     1
290
     0
176
     1
 90
       50
176
     1
 90
       50
176
     1
 90
       50
176
     1
290
     0
176
     1
 90
       50
176
     1
 62
   256
176
     0
 40
1.0
176
     0
 90
        2
176
     1
  1
strokes_ogs.tif
176
     1
290
     0
176
     1
 40
1.0
176
     1
 40
1.0
176
     1
  0
VISUALSTYLE
  5
35
102
{ACAD_REACTORS
330
2A
102
}
330
2A
100
AcDbVisualStyle
  2
Dim
 70
    11
177
     3
291
     1
 70
    58
 90
        2
176
     1
 90
        2
176
     1
 90
        0
176
     1
 90
        0
176
     1
 40
0.6
176
     1
 40
30.0
176
     1
 62
     7
420
 16777215
176
     1
 90
        1
176
     1
 90
        4
176
     1
 62
     7
176
     1
 62
   257
176
     1
 90
        1
176
     1
 90
        1
176
     1
 40
1.0
176
     1
 90
        8
176
     1
 62
     7
176
     1
 40
1.0
176
     1
 90
        1
176
     1
 90
        6
176
     1
 90
        2
176
     1
 62
     7
176
     1
 90
        5
176
     1
 90
        0
176
     1
 90
        0
176
     1
290
     0
176
     1
 90
        1
176
     1
 40
-50.0
176
     1
 90
        0
176
     1
290
     0
176
     1
290
     1
176
     1
290
     1
176
     1
290
     0
176
     1
290
     0
176
     1
290
     0
176
     1
290
     0
176
     1
290
     0
176
     1
290
     0
176
     1
 90
       50
176
     1
 40
0.0
176
     1
 40
1.0
176
     1
 90
        0
176
     1
 62
    18
420
        0
176
     1
 90
       50
176
     1
 90
        3
176
     1
 62
     5
420
      255
176
     1
290
     0
176
     1
 90
       50
176
     1
 90
       50
176
     1
 90
       50
176
     1
290
     0
176
     1
 90
       50
176
     1
 62
   256
176
     0
 40
1.0
176
     0
 90
        2
176
     1
  1
strokes_ogs.tif
176
     1
290
     0
176
     1
 40
1.0
176
     1
 40
1.0
176
     1
  0
VISUALSTYLE
  5
3D
102
{ACAD_REACTORS
330
2A
102
}
330
2A
100
AcDbVisualStyle
  2
EdgeColorOff
 70
    22
177
     3
291
     1
 70
    58
 90
        2
176
     0
 90
        2
176
     0
 90
        0
176
     0
 90
        0
176
     0
 40
0.6
176
     0
 40
30.0
176
     0
 62
     7
420
 16777215
176
     0
 90
        1
176
     0
 90
        4
176
     0
 62
     7
176
     0
 62
   257
176
     0
 90
        1
176
     0
 90
        1
176
     0
 40
1.0
176
     0
 90
        8
176
     2
 62
     7
176
     0
 40
1.0
176
     0
 90
        1
176
     0
 90
        6
176
     0
 90
        2
176
     0
 62
     7
176
     0
 90
        5
176
     0
 90
        0
176
     0
 90
        0
176
     0
290
     0
176
     0
 90
        1
176
     0
 40
0.0
176
     0
 90
        0
176
     0
290
     0
176
     0
290
     1
176
     0
290
     1
176
     0
290
     0
176
     0
290
     0
176
     0
290
     0
176
     0
290
     0
176
     0
290
     0
176
     0
290
     0
176
     0
 90
       50
176
     0
 40
0.0
176
     0
 40
1.0
176
     0
 90
        0
176
     0
 62
    18
420
        0
176
     0
 90
       50
176
     0
 90
        3
176
     0
 62
     5
420
      255
176
     0
290
     0
176
     0
 90
       50
176
     0
 90
       50
176
     0
 90
       50
176
     0
290
     0
176
     0
 90
       50
176
     0
 62
   256
176
     0
 40
1.0
176
     0
 90
        2
176
     0
  1
strokes_ogs.tif
176
     0
290
     0
176
     0
 40
1.0
176
     0
 40
1.0
176
     0
  0
VISUALSTYLE
  5
39
102
{ACAD_REACTORS
330
2A
102
}
330
2A
100
AcDbVisualStyle
  2
Facepattern
 70
    15
177
     3
291
     1
 70
    58
 90
        2
176
     1
 90
        2
176
     1
 90
        0
176
     1
 90
        0
176
     1
 40
0.6
176
     1
 40
30.0
176
     1
 62
     7
420
 16777215
176
     1
 90
        1
176
     1
 90
        4
176
     1
 62
     7
176
     1
 62
   257
176
     1
 90
        1
176
     1
 90
        1
176
     1
 40
1.0
176
     1
 90
        8
176
     1
 62
     7
176
     1
 40
1.0
176
     1
 90
        1
176
     1
 90
        6
176
     1
 90
        2
176
     1
 62
     7
176
     1
 90
        5
176
     1
 90
        0
176
     1
 90
        0
176
     1
290
     0
176
     1
 90
        1
176
     1
 40
0.0
176
     1
 90
        0
176
     1
290
     0
176
     1
290
     1
176
     1
290
     1
176
     1
290
     0
176
     1
290
     0
176
     1
290
     0
176
     1
290
     0
176
     1
290
     0
176
     1
290
     0
176
     1
 90
       50
176
     1
 40
0.0
176
     1
 40
1.0
176
     1
 90
        0
176
     1
 62
    18
420
        0
176
     1
 90
       50
176
     1
 90
        3
176
     1
 62
     5
420
      255
176
     1
290
     0
176
     1
 90
       50
176
     1
 90
       50
176
     1
 90
       50
176
     1
290
     0
176
     1
 90
       50
176
     1
 62
   256
176
     0
 40
1.0
176
     0
 90
        2
176
     1
  1
strokes_ogs.tif
176
     1
290
     0
176
     1
 40
1.0
176
     1
 40
1.0
176
     1
  0
VISUALSTYLE
  5
2B
102
{ACAD_REACTORS
330
2A
102
}
330
2A
100
AcDbVisualStyle
  2
Flat
 70
     0
177
     3
291
     1
 70
    58
 90
        2
176
     1
 90
        1
176
     1
 90
        1
176
     1
 90
        2
176
     1
 40
0.6
176
     1
 40
30.0
176
     1
 62
     7
420
 16777215
176
     1
 90
        0
176
     1
 90
        0
176
     1
 62
     7
176
     1
 62
   257
176
     1
 90
        1
176
     1
 90
        1
176
     1
 40
1.0
176
     1
 90
        8
176
     1
 62
     7
176
     1
 40
1.0
176
     1
 90
        1
176
     1
 90
        6
176
     1
 90
        2
176
     1
 62
     7
176
     1
 90
        5
176
     1
 90
        0
176
     1
 90
        0
176
     1
290
     0
176
     1
 90
       13
176
     1
 40
0.0
176
     1
 90
        0
176
     1
290
     0
176
     1
290
     1
176
     1
290
     1
176
     1
290
     0
176
     1
290
     0
176
     1
290
     0
176
     1
290
     0
176
     1
290
     0
176
     1
290
     0
176
     1
 90
       50
176
     1
 40
0.0
176
     1
 40
1.0
176
     1
 90
        0
176
     1
 62
    18
420
        0
176
     1
 90
       50
176
     1
 90
        3
176
     1
 62
     5
420
      255
176
     1
290
     0
176
     1
 90
       50
176
     1
 90
       50
176
     1
 90
       50
176
     1
290
     0
176
     1
 90
       50
176
     1
 62
   256
176
     0
 40
1.0
176
     0
 90
        2
176
     1
  1
strokes_ogs.tif
176
     1
290
     0
176
     1
 40
1.0
176
     1
 40
1.0
176
     1
  0
VISUALSTYLE
  5
2C
102
{ACAD_REACTORS
330
2A
102
}
330
2A
100
AcDbVisualStyle
  2
FlatWithEdges
 70
     1
177
     3
291
     1
 70
    58
 90
        2
176
     1
 90
        1
176
     1
 90
        1
176
     1
 90
        2
176
     1
 40
0.6
176
     1
 40
30.0
176
     1
 62
     7
420
 16777215
176
     1
 90
        1
176
     1
 90
        0
176
     1
 62
     7
176
     1
 62
   257
176
     1
 90
        1
176
     1
 90
        1
176
     1
 40
1.0
176
     1
 90
        0
176
     1
 62
   257
176
     1
 40
1.0
176
     1
 90
        1
176
     1
 90
        6
176
     1
 90
        2
176
     1
 62
     7
176
     1
 90
        5
176
     1
 90
        0
176
     1
 90
        0
176
     1
290
     0
176
     1
 90
       13
176
     1
 40
0.0
176
     1
 90
        0
176
     1
290
     0
176
     1
290
     1
176
     1
290
     1
176
     1
290
     0
176
     1
290
     0
176
     1
290
     0
176
     1
290
     0
176
     1
290
     0
176
     1
290
     0
176
     1
 90
       50
176
     1
 40
0.0
176
     1
 40
1.0
176
     1
 90
        0
176
     1
 62
    18
420
        0
176
     1
 90
       50
176
     1
 90
        3
176
     1
 62
     5
420
      255
176
     1
290
     0
176
     1
 90
       50
176
     1
 90
       50
176
     1
 90
       50
176
     1
290
     0
176
     1
 90
       50
176
     1
 62
   256
176
     0
 40
1.0
176
     0
 90
        2
176
     1
  1
strokes_ogs.tif
176
     1
290
     0
176
     1
 40
1.0
176
     1
 40
1.0
176
     1
  0
VISUALSTYLE
  5
2D
102
{ACAD_REACTORS
330
2A
102
}
330
2A
100
AcDbVisualStyle
  2
Gouraud
 70
     2
177
     3
291
     1
 70
    58
 90
        2
176
     1
 90
        2
176
     1
 90
        1
176
     1
 90
        2
176
     1
 40
0.6
176
     1
 40
30.0
176
     1
 62
     7
420
 16777215
176
     1
 90
        0
176
     1
 90
        0
176
     1
 62
     7
176
     1
 62
   257
176
     1
 90
        1
176
     1
 90
        1
176
     1
 40
1.0
176
     1
 90
        0
176
     1
 62
     7
176
     1
 40
1.0
176
     1
 90
        1
176
     1
 90
        6
176
     1
 90
        2
176
     1
 62
     7
176
     1
 90
        5
176
     1
 90
        0
176
     1
 90
        0
176
     1
290
     0
176
     1
 90
       13
176
     1
 40
0.0
176
     1
 90
        0
176
     1
290
     0
176
     1
290
     1
176
     1
290
     1
176
     1
290
     0
176
     1
290
     0
176
     1
290
     0
176
     1
290
     0
176
     1
290
     0
176
     1
290
     0
176
     1
 90
       50
176
     1
 40
0.0
176
     1
 40
1.0
176
     1
 90
        0
176
     1
 62
    18
420
        0
176
     1
 90
       50
176
     1
 90
        3
176
     1
 62
     5
420
      255
176
     1
290
     0
176
     1
 90
       50
176
     1
 90
       50
176
     1
 90
       50
176
     1
290
     0
176
     1
 90
       50
176
     1
 62
   256
176
     0
 40
1.0
176
     0
 90
        2
176
     1
  1
strokes_ogs.tif
176
     1
290
     0
176
     1
 40
1.0
176
     1
 40
1.0
176
     1
  0
VISUALSTYLE
  5
2E
102
{ACAD_REACTORS
330
2A
102
}
330
2A
100
AcDbVisualStyle
  2
GouraudWithEdges
 70
     3
177
     3
291
     1
 70
    58
 90
        2
176
     1
 90
        2
176
     1
 90
        1
176
     1
 90
        2
176
     1
 40
0.6
176
     1
 40
30.0
176
     1
 62
     7
420
 16777215
176
     1
 90
        1
176
     1
 90
        0
176
     1
 62
     7
176
     1
 62
   257
176
     1
 90
        1
176
     1
 90
        1
176
     1
 40
1.0
176
     1
 90
        0
176
     1
 62
   257
176
     1
 40
1.0
176
     1
 90
        1
176
     1
 90
        6
176
     1
 90
        2
176
     1
 62
     7
176
     1
 90
        5
176
     1
 90
        0
176
     1
 90
        0
176
     1
290
     0
176
     1
 90
       13
176
     1
 40
0.0
176
     1
 90
        0
176
     1
290
     0
176
     1
290
     1
176
     1
290
     1
176
     1
290
     0
176
     1
290
     0
176
     1
290
     0
176
     1
290
     0
176
     1
290
     0
176
     1
290
     0
176
     1
 90
       50
176
     1
 40
0.0
176
     1
 40
1.0
176
     1
 90
        0
176
     1
 62
    18
420
        0
176
     1
 90
       50
176
     1
 90
        3
176
     1
 62
     5
420
      255
176
     1
290
     0
176
     1
 90
       50
176
     1
 90
       50
176
     1
 90
       50
176
     1
290
     0
176
     1
 90
       50
176
     1
 62
   256
176
     0
 40
1.0
176
     0
 90
        2
176
     1
  1
strokes_ogs.tif
176
     1
290
     0
176
     1
 40
1.0
176
     1
 40
1.0
176
     1
  0
VISUALSTYLE
  5
31
102
{ACAD_REACTORS
330
2A
102
}
330
2A
100
AcDbVisualStyle
  2
Hidden
 70
     6
177
     3
291
     0
 70
    58
 90
        1
176
     1
 90
        2
176
     1
 90
        2
176
     1
 90
        0
176
     1
 40
0.6
176
     1
 40
30.0
176
     1
 62
     7
420
 16777215
176
     1
 90
        2
176
     1
 90
        2
176
     1
 62
     7
176
     1
 62
   257
176
     1
 90
        2
176
     1
 90
        1
176
     1
 40
40.0
176
     1
 90
        0
176
     1
 62
   257
176
     1
 40
1.0
176
     1
 90
        1
176
     1
 90
        6
176
     1
 90
        2
176
     1
 62
     7
176
     1
 90
        3
176
     1
 90
        0
176
     1
 90
        0
176
     1
290
     0
176
     1
 90
        1
176
     1
 40
0.0
176
     1
 90
        0
176
     1
290
     0
176
     1
290
     1
176
     1
290
     1
176
     1
290
     0
176
     1
290
     0
176
     1
290
     0
176
     1
290
     0
176
     1
290
     0
176
     1
290
     0
176
     1
 90
       50
176
     1
 40
0.0
176
     1
 40
1.0
176
     1
 90
        0
176
     1
 62
    18
420
        0
176
     1
 90
       50
176
     1
 90
        3
176
     1
 62
     5
420
      255
176
     1
290
     0
176
     1
 90
       50
176
     1
 90
       50
176
     1
 90
       50
176
     1
290
     0
176
     1
 90
       50
176
     1
 62
   256
176
     0
 40
1.0
176
     0
 90
        2
176
     1
  1
strokes_ogs.tif
176
     1
290
     0
176
     1
 40
1.0
176
     1
 40
1.0
176
     1
  0
VISUALSTYLE
  5
3B
102
{ACAD_REACTORS
330
2A
102
}
330
2A
100
AcDbVisualStyle
  2
JitterOff
 70
    20
177
     3
291
     1
 70
    58
 90
        2
176
     0
 90
        2
176
     0
 90
        0
176
     0
 90
        0
176
     0
 40
0.6
176
     0
 40
30.0
176
     0
 62
     7
420
 16777215
176
     0
 90
        1
176
     0
 90
        4
176
     0
 62
     7
176
     0
 62
   257
176
     0
 90
        1
176
     0
 90
        1
176
     0
 40
1.0
176
     0
 90
       10
176
     2
 62
     7
176
     0
 40
1.0
176
     0
 90
        1
176
     0
 90
        6
176
     0
 90
        2
176
     0
 62
     7
176
     0
 90
        5
176
     0
 90
        0
176
     0
 90
        0
176
     0
290
     0
176
     0
 90
        1
176
     0
 40
0.0
176
     0
 90
        0
176
     0
290
     0
176
     0
290
     1
176
     0
290
     1
176
     0
290
     0
176
     0
290
     0
176
     0
290
     0
176
     0
290
     0
176
     0
290
     0
176
     0
290
     0
176
     0
 90
       50
176
     0
 40
0.0
176
     0
 40
1.0
176
     0
 90
        0
176
     0
 62
    18
420
        0
176
     0
 90
       50
176
     0
 90
        3
176
     0
 62
     5
420
      255
176
     0
290
     0
176
     0
 90
       50
176
     0
 90
       50
176
     0
 90
       50
176
     0
290
     0
176
     0
 90
       50
176
     0
 62
   256
176
     0
 40
1.0
176
     0
 90
        2
176
     0
  1
strokes_ogs.tif
176
     0
290
     0
176
     0
 40
1.0
176
     0
 40
1.0
176
     0
  0
VISUALSTYLE
  5
38
102
{ACAD_REACTORS
330
2A
102
}
330
2A
100
AcDbVisualStyle
  2
Linepattern
 70
    14
177
     3
291
     1
 70
    58
 90
        2
176
     1
 90
        2
176
     1
 90
        0
176
     1
 90
        0
176
     1
 40
0.6
176
     1
 40
30.0
176
     1
 62
     7
420
 16777215
176
     1
 90
        1
176
     1
 90
        4
176
     1
 62
     7
176
     1
 62
   257
176
     1
 90
        7
176
     1
 90
        7
176
     1
 40
1.0
176
     1
 90
        8
176
     1
 62
     7
176
     1
 40
1.0
176
     1
 90
        1
176
     1
 90
        6
176
     1
 90
        2
176
     1
 62
     7
176
     1
 90
        5
176
     1
 90
        0
176
     1
 90
        0
176
     1
290
     0
176
     1
 90
        1
176
     1
 40
0.0
176
     1
 90
        0
176
     1
290
     0
176
     1
290
     1
176
     1
290
     1
176
     1
290
     0
176
     1
290
     0
176
     1
290
     0
176
     1
290
     0
176
     1
290
     0
176
     1
290
     0
176
     1
 90
       50
176
     1
 40
0.0
176
     1
 40
1.0
176
     1
 90
        0
176
     1
 62
    18
420
        0
176
     1
 90
       50
176
     1
 90
        3
176
     1
 62
     5
420
      255
176
     1
290
     0
176
     1
 90
       50
176
     1
 90
       50
176
     1
 90
       50
176
     1
290
     0
176
     1
 90
       50
176
     1
 62
   256
176
     0
 40
1.0
176
     0
 90
        2
176
     1
  1
strokes_ogs.tif
176
     1
290
     0
176
     1
 40
1.0
176
     1
 40
1.0
176
     1
  0
VISUALSTYLE
  5
3C
102
{ACAD_REACTORS
330
2A
102
}
330
2A
100
AcDbVisualStyle
  2
OverhangOff
 70
    21
177
     3
291
     1
 70
    58
 90
        2
176
     0
 90
        2
176
     0
 90
        0
176
     0
 90
        0
176
     0
 40
0.6
176
     0
 40
30.0
176
     0
 62
     7
420
 16777215
176
     0
 90
        1
176
     0
 90
        4
176
     0
 62
     7
176
     0
 62
   257
176
     0
 90
        1
176
     0
 90
        1
176
     0
 40
1.0
176
     0
 90
        9
176
     2
 62
     7
176
     0
 40
1.0
176
     0
 90
        1
176
     0
 90
        6
176
     0
 90
        2
176
     0
 62
     7
176
     0
 90
        5
176
     0
 90
        0
176
     0
 90
        0
176
     0
290
     0
176
     0
 90
        1
176
     0
 40
0.0
176
     0
 90
        0
176
     0
290
     0
176
     0
290
     1
176
     0
290
     1
176
     0
290
     0
176
     0
290
     0
176
     0
290
     0
176
     0
290
     0
176
     0
290
     0
176
     0
290
     0
176
     0
 90
       50
176
     0
 40
0.0
176
     0
 40
1.0
176
     0
 90
        0
176
     0
 62
    18
420
        0
176
     0
 90
       50
176
     0
 90
        3
176
     0
 62
     5
420
      255
176
     0
290
     0
176
     0
 90
       50
176
     0
 90
       50
176
     0
 90
       50
176
     0
290
     0
176
     0
 90
       50
176
     0
 62
   256
176
     0
 40
1.0
176
     0
 90
        2
176
     0
  1
strokes_ogs.tif
176
     0
290
     0
176
     0
 40
1.0
176
     0
 40
1.0
176
     0
  0
VISUALSTYLE
  5
33
102
{ACAD_REACTORS
330
2A
102
}
330
2A
100
AcDbVisualStyle
  2
Realistic
 70
     8
177
     3
291
     0
 70
    58
 90
        2
176
     1
 90
        3
176
     1
 90
        0
176
     1
 90
        2
176
     1
 40
0.6
176
     1
 40
30.0
176
     1
 62
     7
420
 16777215
176
     1
 90
        0
176
     1
 90
        0
176
     1
 62
     7
176
     1
 62
   257
176
     1
 90
        1
176
     1
 90
        1
176
     1
 40
1.0
176
     1
 90
        8
176
     1
 62
   257
176
     1
 40
1.0
176
     1
 90
        1
176
     1
 90
        6
176
     1
 90
        2
176
     1
 62
     7
176
     1
 90
        3
176
     1
 90
        0
176
     1
 90
        0
176
     1
290
     0
176
     1
 90
       13
176
     1
 40
0.0
176
     1
 90
        0
176
     1
290
     0
176
     1
290
     1
176
     1
290
     1
176
     1
290
     0
176
     1
290
     0
176
     1
290
     0
176
     1
290
     0
176
     1
290
     0
176
     1
290
     0
176
     1
 90
       50
176
     1
 40
0.0
176
     1
 40
1.0
176
     1
 90
        0
176
     1
 62
    18
420
        0
176
     1
 90
       50
176
     1
 90
        3
176
     1
 62
     5
420
      255
176
     1
290
     0
176
     1
 90
       50
176
     1
 90
       50
176
     1
 90
       50
176
     1
290
     0
176
     1
 90
       50
176
     1
 62
   256
176
     0
 40
1.0
176
     0
 90
        2
176
     1
  1
strokes_ogs.tif
176
     1
290
     0
176
     1
 40
1.0
176
     1
 40
1.0
176
     1
  0
VISUALSTYLE
  5
42
102
{ACAD_REACTORS
330
2A
102
}
330
2A
100
AcDbVisualStyle
  2
Shaded
 70
    27
177
     3
291
     0
 70
    58
 90
        2
176
     1
 90
        2
176
     1
 90
        1
176
     1
 90
        2
176
     1
 40
0.6
176
     1
 40
30.0
176
     1
 62
     7
420
 16777215
176
     1
 90
        0
176
     1
 90
        4
176
     1
 62
     7
176
     1
 62
   257
176
     1
 90
        1
176
     1
 90
        1
176
     1
 40
1.0
176
     1
 90
        8
176
     1
 62
   257
176
     1
 40
1.0
176
     1
 90
        1
176
     1
 90
        6
176
     1
 90
        2
176
     1
 62
     8
420
  7895160
176
     1
 90
        3
176
     1
 90
        0
176
     1
 90
        0
176
     1
290
     0
176
     1
 90
        5
176
     1
 40
0.0
176
     1
 90
        0
176
     1
290
     0
176
     1
290
     1
176
     1
290
     1
176
     1
290
     0
176
     1
290
     0
176
     1
290
     0
176
     1
290
     0
176
     1
290
     0
176
     1
290
     0
176
     1
 90
       50
176
     1
 40
0.0
176
     1
 40
1.0
176
     1
 90
        0
176
     1
 62
    18
420
        0
176
     1
 90
       50
176
     1
 90
        3
176
     1
 62
     5
420
      255
176
     1
290
     0
176
     1
 90
       50
176
     1
 90
       50
176
     1
 90
       50
176
     1
290
     0
176
     1
 90
       50
176
     1
 62
   256
176
     0
 40
1.0
176
     0
 90
        2
176
     1
  1
strokes_ogs.tif
176
     1
290
     0
176
     1
 40
1.0
176
     1
 40
1.0
176
     1
  0
VISUALSTYLE
  5
41
102
{ACAD_REACTORS
330
2A
102
}
330
2A
100
AcDbVisualStyle
  2
Shaded with edges
 70
    26
177
     3
291
     0
 70
    58
 90
        2
176
     1
 90
        2
176
     1
 90
        1
176
     1
 90
        2
176
     1
 40
0.6
176
     1
 40
30.0
176
     1
 62
     7
420
 16777215
176
     1
 90
        1
176
     1
 90
       10
176
     1
 62
     7
176
     1
 62
   257
176
     1
 90
        2
176
     1
 90
        1
176
     1
 40
1.0
176
     1
 90
        8
176
     1
 62
   257
176
     1
 40
1.0
176
     1
 90
        1
176
     1
 90
        6
176
     1
 90
        2
176
     1
 62
     7
176
     1
 90
        3
176
     1
 90
        0
176
     1
 90
        0
176
     1
290
     0
176
     1
 90
        5
176
     1
 40
0.0
176
     1
 90
        0
176
     1
290
     0
176
     1
290
     1
176
     1
290
     1
176
     1
290
     0
176
     1
290
     0
176
     1
290
     0
176
     1
290
     0
176
     1
290
     0
176
     1
290
     0
176
     1
 90
       50
176
     1
 40
0.0
176
     1
 40
1.0
176
     1
 90
        0
176
     1
 62
    18
420
        0
176
     1
 90
       50
176
     1
 90
        3
176
     1
 62
     5
420
      255
176
     1
290
     0
176
     1
 90
       50
176
     1
 90
       50
176
     1
 90
       50
176
     1
290
     0
176
     1
 90
       50
176
     1
 62
   256
176
     0
 40
1.0
176
     0
 90
        2
176
     1
  1
strokes_ogs.tif
176
     1
290
     0
176
     1
 40
1.0
176
     1
 40
1.0
176
     1
  0
VISUALSTYLE
  5
3E
102
{ACAD_REACTORS
330
2A
102
}
330
2A
100
AcDbVisualStyle
  2
Shades of Gray
 70
    23
177
     3
291
     0
 70
    58
 90
        2
176
     1
 90
        2
176
     1
 90
        3
176
     1
 90
        0
176
     1
 40
0.6
176
     1
 40
30.0
176
     1
 62
     7
420
 16777215
176
     1
 90
        2
176
     1
 90
        2
176
     1
 62
     7
176
     1
 62
     7
176
     1
 90
        1
176
     1
 90
        1
176
     1
 40
40.0
176
     1
 90
        8
176
     1
 62
     7
176
     1
 40
1.0
176
     1
 90
        1
176
     1
 90
        6
176
     1
 90
        2
176
     1
 62
     7
176
     1
 90
        3
176
     1
 90
        0
176
     1
 90
        0
176
     1
290
     0
176
     1
 90
        1
176
     1
 40
0.0
176
     1
 90
        0
176
     1
290
     0
176
     1
290
     1
176
     1
290
     1
176
     1
290
     0
176
     1
290
     0
176
     1
290
     0
176
     1
290
     0
176
     1
290
     0
176
     1
290
     0
176
     1
 90
       50
176
     1
 40
0.0
176
     1
 40
1.0
176
     1
 90
        0
176
     1
 62
    18
420
        0
176
     1
 90
       50
176
     1
 90
        3
176
     1
 62
     5
420
      255
176
     1
290
     0
176
     1
 90
       50
176
     1
 90
       50
176
     1
 90
       50
176
     1
290
     0
176
     1
 90
       50
176
     1
 62
   256
176
     0
 40
1.0
176
     0
 90
        2
176
     1
  1
strokes_ogs.tif
176
     1
290
     0
176
     1
 40
1.0
176
     1
 40
1.0
176
     1
  0
VISUALSTYLE
  5
3F
102
{ACAD_REACTORS
330
2A
102
}
330
2A
100
AcDbVisualStyle
  2
Sketchy
 70
    24
177
     3
291
     0
 70
    58
 90
        1
176
     1
 90
        2
176
     1
 90
        2
176
     1
 90
        0
176
     1
 40
0.6
176
     1
 40
30.0
176
     1
 62
     7
420
 16777215
176
     1
 90
        2
176
     1
 90
        2
176
     1
 62
     7
176
     1
 62
     7
176
     1
 90
        1
176
     1
 90
        1
176
     1
 40
40.0
176
     1
 90
       11
176
     1
 62
     7
176
     1
 40
1.0
176
     1
 90
        1
176
     1
 90
        6
176
     1
 90
        2
176
     1
 62
     7
176
     1
 90
        6
176
     1
 90
        0
176
     1
 90
        0
176
     1
290
     0
176
     1
 90
        1
176
     1
 40
0.0
176
     1
 90
        0
176
     1
290
     0
176
     1
290
     1
176
     1
290
     1
176
     1
290
     0
176
     1
290
     0
176
     1
290
     0
176
     1
290
     0
176
     1
290
     0
176
     1
290
     0
176
     1
 90
       50
176
     1
 40
0.0
176
     1
 40
1.0
176
     1
 90
        0
176
     1
 62
    18
420
        0
176
     1
 90
       50
176
     1
 90
        3
176
     1
 62
     5
420
      255
176
     1
290
     0
176
     1
 90
       50
176
     1
 90
       50
176
     1
 90
       50
176
     1
290
     0
176
     1
 90
       50
176
     1
 62
   256
176
     0
 40
1.0
176
     0
 90
        2
176
     1
  1
strokes_ogs.tif
176
     1
290
     0
176
     1
 40
1.0
176
     1
 40
1.0
176
     1
  0
VISUALSTYLE
  5
37
102
{ACAD_REACTORS
330
2A
102
}
330
2A
100
AcDbVisualStyle
  2
Thicken
 70
    13
177
     3
291
     1
 70
    58
 90
        2
176
     1
 90
        2
176
     1
 90
        0
176
     1
 90
        0
176
     1
 40
0.6
176
     1
 40
30.0
176
     1
 62
     7
420
 16777215
176
     1
 90
        1
176
     1
 90
        4
176
     1
 62
     7
176
     1
 62
   257
176
     1
 90
        1
176
     1
 90
        1
176
     1
 40
1.0
176
     1
 90
       12
176
     1
 62
     7
176
     1
 40
1.0
176
     1
 90
        1
176
     1
 90
        6
176
     1
 90
        2
176
     1
 62
     7
176
     1
 90
        5
176
     1
 90
        0
176
     1
 90
        0
176
     1
290
     0
176
     1
 90
        1
176
     1
 40
0.0
176
     1
 90
        0
176
     1
290
     0
176
     1
290
     1
176
     1
290
     1
176
     1
290
     0
176
     1
290
     0
176
     1
290
     0
176
     1
290
     0
176
     1
290
     0
176
     1
290
     0
176
     1
 90
       50
176
     1
 40
0.0
176
     1
 40
1.0
176
     1
 90
        0
176
     1
 62
    18
420
        0
176
     1
 90
       50
176
     1
 90
        3
176
     1
 62
     5
420
      255
176
     1
290
     0
176
     1
 90
       50
176
     1
 90
       50
176
     1
 90
       50
176
     1
290
     0
176
     1
 90
       50
176
     1
 62
   256
176
     0
 40
1.0
176
     0
 90
        2
176
     1
  1
strokes_ogs.tif
176
     1
290
     0
176
     1
 40
1.0
176
     1
 40
1.0
176
     1
  0
VISUALSTYLE
  5
30
102
{ACAD_REACTORS
330
2A
102
}
330
2A
100
AcDbVisualStyle
  2
Wireframe
 70
     5
177
     3
291
     0
 70
    58
 90
        0
176
     1
 90
        2
176
     1
 90
        0
176
     1
 90
        0
176
     1
 40
0.6
176
     1
 40
30.0
176
     1
 62
     7
420
 16777215
176
     1
 90
        1
176
     1
 90
        4
176
     1
 62
     7
176
     1
 62
   257
176
     1
 90
        1
176
     1
 90
        1
176
     1
 40
1.0
176
     1
 90
        0
176
     1
 62
   257
176
     1
 40
1.0
176
     1
 90
        1
176
     1
 90
        6
176
     1
 90
        2
176
     1
 62
     7
176
     1
 90
        3
176
     1
 90
        0
176
     1
 90
        0
176
     1
290
     0
176
     1
 90
        1
176
     1
 40
0.0
176
     1
 90
        0
176
     1
290
     0
176
     1
290
     1
176
     1
290
     1
176
     1
290
     0
176
     1
290
     0
176
     1
290
     0
176
     1
290
     0
176
     1
290
     0
176
     1
290
     0
176
     1
 90
       50
176
     1
 40
0.0
176
     1
 40
1.0
176
     1
 90
        0
176
     1
 62
    18
420
        0
176
     1
 90
       50
176
     1
 90
        3
176
     1
 62
     5
420
      255
176
     1
290
     0
176
     1
 90
       50
176
     1
 90
       50
176
     1
 90
       50
176
     1
290
     0
176
     1
 90
       50
176
     1
 62
   256
176
     0
 40
1.0
176
     0
 90
        2
176
     1
  1
strokes_ogs.tif
176
     1
290
     0
176
     1
 40
1.0
176
     1
 40
1.0
176
     1
  0
VISUALSTYLE
  5
40
102
{ACAD_REACTORS
330
2A
102
}
330
2A
100
AcDbVisualStyle
  2
X-Ray
 70
    25
177
     3
291
     0
 70
    58
 90
        2
176
     1
 90
        2
176
     1
 90
        1
176
     1
 90
        1
176
     1
 40
0.5
176
     1
 40
30.0
176
     1
 62
     7
420
 16777215
176
     1
 90
        1
176
     1
 90
        0
176
     1
 62
     7
176
     1
 62
   257
176
     1
 90
        1
176
     1
 90
        1
176
     1
 40
1.0
176
     1
 90
        8
176
     1
 62
     7
176
     1
 40
1.0
176
     1
 90
        1
176
     1
 90
        6
176
     1
 90
        2
176
     1
 62
     7
176
     1
 90
        3
176
     1
 90
        0
176
     1
 90
        0
176
     1
290
     0
176
     1
 90
       13
176
     1
 40
0.0
176
     1
 90
        0
176
     1
290
     0
176
     1
290
     1
176
     1
290
     1
176
     1
290
     0
176
     1
290
     0
176
     1
290
     0
176
     1
290
     0
176
     1
290
     0
176
     1
290
     0
176
     1
 90
       50
176
     1
 40
0.0
176
     1
 40
1.0
176
     1
 90
        0
176
     1
 62
    18
420
        0
176
     1
 90
       50
176
     1
 90
        3
176
     1
 62
     5
420
      255
176
     1
290
     0
176
     1
 90
       50
176
     1
 90
       50
176
     1
 90
       50
176
     1
290
     0
176
     1
 90
       50
176
     1
 62
   256
176
     0
 40
1.0
176
     0
 90
        2
176
     1
  1
strokes_ogs.tif
176
     1
290
     0
176
     1
 40
1.0
176
     1
 40
1.0
176
     1
  0
DICTIONARYVAR
  5
1BC
102
{ACAD_REACTORS
330
1BB
102
}
330
1BB
100
DictionaryVariables
280
     0
  1
1:1
  0
DICTIONARYVAR
  5
1C1
102
{ACAD_REACTORS
330
1BB
102
}
330
1BB
100
DictionaryVariables
280
     0
  1
Standard
  0
DICTIONARYVAR
  5
1C0
102
{ACAD_REACTORS
330
1BB
102
}
330
1BB
100
DictionaryVariables
280
     0
  1
Standard
  0
DICTIONARY
  5
1BD
330
5A
100
AcDbDictionary
280
     1
281
     1
  3
ACAD_ROUNDTRIP_2008_TABLESTYLE_CELLSTYLEMAP
360
1BE
  0
CELLSTYLEMAP
  5
1BE
102
{ACAD_REACTORS
330
1BD
102
}
330
1BD
100
AcDbCellStyleMap
 90
        3
300
CELLSTYLE
  1
TABLEFORMAT_BEGIN
 90
        5
170
     1
 91
        0
 92
    32768
 62
   257
 93
        1
300
CONTENTFORMAT
  1
CONTENTFORMAT_BEGIN
 90
        0
 91
        0
 92
        4
 93
        0
300

 40
0.0
140
1.0
 94
        5
 62
     0
340
11
144
0.25
309
CONTENTFORMAT_END
171
     1
301
MARGIN
  1
CELLMARGIN_BEGIN
 40
0.06
 40
0.06
 40
0.06
 40
0.06
 40
0.06
 40
0.06
309
CELLMARGIN_END
 94
        6
 95
        1
302
GRIDFORMAT
  1
GRIDFORMAT_BEGIN
 90
        0
 91
        1
 62
     0
 92
       -2
340
14
 93
        0
 40
0.045
309
GRIDFORMAT_END
 95
        2
302
GRIDFORMAT
  1
GRIDFORMAT_BEGIN
 90
        0
 91
        1
 62
     0
 92
       -2
340
14
 93
        0
 40
0.045
309
GRIDFORMAT_END
 95
        4
302
GRIDFORMAT
  1
GRIDFORMAT_BEGIN
 90
        0
 91
        1
 62
     0
 92
       -2
340
14
 93
        0
 40
0.045
309
GRIDFORMAT_END
 95
        8
302
GRIDFORMAT
  1
GRIDFORMAT_BEGIN
 90
        0
 91
        1
 62
     0
 92
       -2
340
14
 93
        0
 40
0.045
309
GRIDFORMAT_END
 95
       16
302
GRIDFORMAT
  1
GRIDFORMAT_BEGIN
 90
        0
 91
        1
 62
     0
 92
       -2
340
14
 93
        0
 40
0.045
309
GRIDFORMAT_END
 95
       32
302
GRIDFORMAT
  1
GRIDFORMAT_BEGIN
 90
        0
 91
        1
 62
     0
 92
       -2
340
14
 93
        0
 40
0.045
309
GRIDFORMAT_END
309
TABLEFORMAT_END
  1
CELLSTYLE_BEGIN
 90
        1
 91
        1
300
_TITLE
309
CELLSTYLE_END
300
CELLSTYLE
  1
TABLEFORMAT_BEGIN
 90
        5
170
     1
 91
        0
 92
        0
 62
   257
 93
        1
300
CONTENTFORMAT
  1
CONTENTFORMAT_BEGIN
 90
        0
 91
        0
 92
        4
 93
        0
300

 40
0.0
140
1.0
 94
        5
 62
     0
340
11
144
0.18
309
CONTENTFORMAT_END
171
     1
301
MARGIN
  1
CELLMARGIN_BEGIN
 40
0.06
 40
0.06
 40
0.06
 40
0.06
 40
0.06
 40
0.06
309
CELLMARGIN_END
 94
        6
 95
        1
302
GRIDFORMAT
  1
GRIDFORMAT_BEGIN
 90
        0
 91
        1
 62
     0
 92
       -2
340
14
 93
        0
 40
0.045
309
GRIDFORMAT_END
 95
        2
302
GRIDFORMAT
  1
GRIDFORMAT_BEGIN
 90
        0
 91
        1
 62
     0
 92
       -2
340
14
 93
        0
 40
0.045
309
GRIDFORMAT_END
 95
        4
302
GRIDFORMAT
  1
GRIDFORMAT_BEGIN
 90
        0
 91
        1
 62
     0
 92
       -2
340
14
 93
        0
 40
0.045
309
GRIDFORMAT_END
 95
        8
302
GRIDFORMAT
  1
GRIDFORMAT_BEGIN
 90
        0
 91
        1
 62
     0
 92
       -2
340
14
 93
        0
 40
0.045
309
GRIDFORMAT_END
 95
       16
302
GRIDFORMAT
  1
GRIDFORMAT_BEGIN
 90
        0
 91
        1
 62
     0
 92
       -2
340
14
 93
        0
 40
0.045
309
GRIDFORMAT_END
 95
       32
302
GRIDFORMAT
  1
GRIDFORMAT_BEGIN
 90
        0
 91
        1
 62
     0
 92
       -2
340
14
 93
        0
 40
0.045
309
GRIDFORMAT_END
309
TABLEFORMAT_END
  1
CELLSTYLE_BEGIN
 90
        2
 91
        1
300
_HEADER
309
CELLSTYLE_END
300
CELLSTYLE
  1
TABLEFORMAT_BEGIN
 90
        5
170
     1
 91
        0
 92
        0
 62
   257
 93
        1
300
CONTENTFORMAT
  1
CONTENTFORMAT_BEGIN
 90
        0
 91
        0
 92
        4
 93
        0
300

 40
0.0
140
1.0
 94
        2
 62
     0
340
11
144
0.18
309
CONTENTFORMAT_END
171
     1
301
MARGIN
  1
CELLMARGIN_BEGIN
 40
0.06
 40
0.06
 40
0.06
 40
0.06
 40
0.06
 40
0.06
309
CELLMARGIN_END
 94
        6
 95
        1
302
GRIDFORMAT
  1
GRIDFORMAT_BEGIN
 90
        0
 91
        1
 62
     0
 92
       -2
340
14
 93
        0
 40
0.045
309
GRIDFORMAT_END
 95
        2
302
GRIDFORMAT
  1
GRIDFORMAT_BEGIN
 90
        0
 91
        1
 62
     0
 92
       -2
340
14
 93
        0
 40
0.045
309
GRIDFORMAT_END
 95
        4
302
GRIDFORMAT
  1
GRIDFORMAT_BEGIN
 90
        0
 91
        1
 62
     0
 92
       -2
340
14
 93
        0
 40
0.045
309
GRIDFORMAT_END
 95
        8
302
GRIDFORMAT
  1
GRIDFORMAT_BEGIN
 90
        0
 91
        1
 62
     0
 92
       -2
340
14
 93
        0
 40
0.045
309
GRIDFORMAT_END
 95
       16
302
GRIDFORMAT
  1
GRIDFORMAT_BEGIN
 90
        0
 91
        1
 62
     0
 92
       -2
340
14
 93
        0
 40
0.045
309
GRIDFORMAT_END
 95
       32
302
GRIDFORMAT
  1
GRIDFORMAT_BEGIN
 90
        0
 91
        1
 62
     0
 92
       -2
340
14
 93
        0
 40
0.045
309
GRIDFORMAT_END
309
TABLEFORMAT_END
  1
CELLSTYLE_BEGIN
 90
        3
 91
        2
300
_DATA
309
CELLSTYLE_END
  0
ENDSEC
  0
EOF
